<svg aria-hidden="true" style="position: absolute; width: 0; height: 0; overflow: hidden;" version="1.1" xmlns="http://www.w3.org/2000/svg" xmlns:xlink="http://www.w3.org/1999/xlink">
<defs>
<symbol id="icon-discord" viewBox="0 0 32 32">
<path fill="#fff" style="fill: var(--color1, #fff)" d="M4.774 28.261h19.012l-0.908-2.94 2.172 1.864 1.991 1.784 3.627 3.031v-28.7c-0.091-1.784-1.627-3.3-3.531-3.3l-22.356 0.004c-1.903 0-3.447 1.519-3.447 3.303v21.653c0 1.881 1.541 3.301 3.44 3.301zM18.838 7.577l-0.044 0.016 0.016-0.016h0.028zM8.663 9.269c2.444-1.779 4.709-1.693 4.709-1.693l0.183 0.18c-2.991 0.713-4.347 2.049-4.347 2.049s0.363-0.177 0.996-0.448c4.028-1.584 8.427-1.469 12.499 0.536 0 0-1.359-1.249-4.165-2.049l0.248-0.244c0.388 0.001 2.441 0.073 4.639 1.68 0 0 2.459 4.2 2.459 9.36-0.081-0.099-1.525 2.221-5.241 2.301 0 0-0.629-0.712-1.077-1.333 2.173-0.624 2.987-1.872 2.987-1.872-0.713 0.449-1.364 0.716-1.892 0.983-0.812 0.357-1.625 0.533-2.437 0.713-3.845 0.624-6.004-0.42-8.044-1.248l-0.697-0.355c0 0 0.812 1.248 2.899 1.872-0.548 0.625-1.091 1.336-1.091 1.336-3.715-0.088-5.069-2.408-5.069-2.408 0-5.168 2.444-9.36 2.444-9.36z"></path>
<path fill="#fff" style="fill: var(--color1, #fff)" d="M19.077 17.028c0.948 0 1.72-0.8 1.72-1.787 0-0.98-0.768-1.78-1.72-1.78v0.004c-0.944 0-1.717 0.797-1.72 1.784 0 0.979 0.772 1.779 1.72 1.779z"></path>
<path fill="#fff" style="fill: var(--color1, #fff)" d="M12.92 17.028c0.948 0 1.72-0.8 1.72-1.787 0-0.98-0.767-1.78-1.715-1.78l-0.005 0.004c-0.948 0-1.72 0.797-1.72 1.784 0 0.979 0.772 1.779 1.72 1.779z"></path>
</symbol>
<symbol id="icon-facebook" viewBox="0 0 32 32">
<path fill="#fff" style="fill: var(--color1, #fff)" d="M21.329 5.313h2.921v-5.088c-0.504-0.069-2.237-0.225-4.256-0.225-4.212 0-7.097 2.649-7.097 7.519v4.481h-4.648v5.688h4.648v14.312h5.699v-14.311h4.46l0.708-5.688h-5.169v-3.919c0.001-1.644 0.444-2.769 2.735-2.769z"></path>
</symbol>
<symbol id="icon-instagram" viewBox="0 0 32 32">
<path fill="#fff" style="fill: var(--color1, #fff)" d="M31.969 9.408c-0.075-1.7-0.35-2.869-0.744-3.882-0.406-1.075-1.031-2.038-1.85-2.838-0.8-0.813-1.769-1.444-2.832-1.844-1.019-0.394-2.182-0.669-3.882-0.744-1.713-0.081-2.257-0.1-6.601-0.1s-4.888 0.019-6.595 0.094c-1.7 0.075-2.869 0.35-3.882 0.744-1.075 0.406-2.038 1.031-2.838 1.85-0.813 0.8-1.444 1.769-1.844 2.832-0.394 1.019-0.669 2.182-0.744 3.882-0.081 1.713-0.1 2.257-0.1 6.601s0.019 4.888 0.094 6.595c0.075 1.7 0.35 2.869 0.744 3.882 0.406 1.075 1.038 2.038 1.85 2.838 0.8 0.813 1.769 1.444 2.832 1.844 1.019 0.394 2.182 0.669 3.882 0.744 1.706 0.075 2.25 0.094 6.595 0.094s4.888-0.019 6.595-0.094c1.7-0.075 2.869-0.35 3.882-0.744 2.151-0.831 3.851-2.532 4.682-4.682 0.394-1.019 0.669-2.182 0.744-3.882 0.075-1.707 0.094-2.25 0.094-6.595s-0.006-4.888-0.081-6.595zM29.087 22.473c-0.069 1.563-0.331 2.407-0.55 2.969-0.538 1.394-1.644 2.5-3.038 3.038-0.563 0.219-1.413 0.481-2.969 0.55-1.688 0.075-2.194 0.094-6.464 0.094s-4.782-0.019-6.464-0.094c-1.563-0.069-2.407-0.331-2.969-0.55-0.694-0.256-1.325-0.663-1.838-1.194-0.531-0.519-0.938-1.144-1.194-1.838-0.219-0.563-0.481-1.413-0.55-2.969-0.075-1.688-0.094-2.194-0.094-6.464s0.019-4.782 0.094-6.464c0.069-1.563 0.331-2.407 0.55-2.969 0.256-0.694 0.663-1.325 1.2-1.838 0.519-0.531 1.144-0.938 1.838-1.194 0.563-0.219 1.413-0.481 2.969-0.55 1.688-0.075 2.194-0.094 6.464-0.094 4.276 0 4.782 0.019 6.464 0.094 1.563 0.069 2.407 0.331 2.969 0.55 0.694 0.256 1.325 0.662 1.838 1.194 0.531 0.519 0.938 1.144 1.194 1.838 0.219 0.563 0.481 1.413 0.55 2.969 0.075 1.688 0.094 2.194 0.094 6.464s-0.019 4.77-0.094 6.458z"></path>
<path fill="#fff" style="fill: var(--color1, #fff)" d="M16.059 7.783c-4.538 0-8.22 3.682-8.22 8.22s3.682 8.22 8.22 8.22c4.538 0 8.22-3.682 8.22-8.22s-3.682-8.22-8.22-8.22zM16.059 21.336c-2.944 0-5.332-2.388-5.332-5.332s2.388-5.332 5.332-5.332c2.944 0 5.332 2.388 5.332 5.332s-2.388 5.332-5.332 5.332z"></path>
<path fill="#fff" style="fill: var(--color1, #fff)" d="M26.524 7.458c0 1.060-0.859 1.919-1.919 1.919s-1.919-0.859-1.919-1.919c0-1.060 0.859-1.919 1.919-1.919s1.919 0.859 1.919 1.919z"></path>
</symbol>
<symbol id="icon-telegram" viewBox="0 0 32 32">
<path fill="#fff" style="fill: var(--color1, #fff)" d="M0.565 15.428l7.373 2.752 2.854 9.178c0.183 0.588 0.901 0.805 1.379 0.415l4.11-3.351c0.431-0.351 1.044-0.369 1.495-0.042l7.413 5.382c0.51 0.371 1.233 0.091 1.361-0.525l5.431-26.122c0.14-0.674-0.522-1.236-1.164-0.988l-30.261 11.674c-0.747 0.288-0.74 1.345 0.009 1.626zM10.333 16.715l14.41-8.875c0.259-0.159 0.525 0.191 0.303 0.397l-11.893 11.055c-0.418 0.389-0.688 0.91-0.764 1.475l-0.405 3.002c-0.054 0.401-0.617 0.441-0.727 0.053l-1.558-5.475c-0.178-0.624 0.082-1.291 0.634-1.632z"></path>
</symbol>
<symbol id="icon-twitter" viewBox="0 0 32 32">
<path fill="#fff" style="fill: var(--color1, #fff)" d="M32 6.078c-1.19 0.522-2.458 0.868-3.78 1.036 1.36-0.812 2.398-2.088 2.886-3.626-1.268 0.756-2.668 1.29-4.16 1.588-1.204-1.282-2.92-2.076-4.792-2.076-3.632 0-6.556 2.948-6.556 6.562 0 0.52 0.044 1.020 0.152 1.496-5.454-0.266-10.28-2.88-13.522-6.862-0.566 0.982-0.898 2.106-0.898 3.316 0 2.272 1.17 4.286 2.914 5.452-1.054-0.020-2.088-0.326-2.964-0.808 0 0.020 0 0.046 0 0.072 0 3.188 2.274 5.836 5.256 6.446-0.534 0.146-1.116 0.216-1.72 0.216-0.42 0-0.844-0.024-1.242-0.112 0.85 2.598 3.262 4.508 6.13 4.57-2.232 1.746-5.066 2.798-8.134 2.798-0.538 0-1.054-0.024-1.57-0.090 2.906 1.874 6.35 2.944 10.064 2.944 12.072 0 18.672-10 18.672-18.668 0-0.29-0.010-0.57-0.024-0.848 1.302-0.924 2.396-2.078 3.288-3.406z"></path>
</symbol>
<symbol id="icon-youtube" viewBox="0 0 31 32">
<path fill="#fff" style="fill: var(--color1, #fff)" d="M29.626 8.467c-0.337-1.253-1.326-2.24-2.58-2.578-2.29-0.626-11.452-0.626-11.452-0.626s-9.161 0-11.451 0.602c-1.23 0.337-2.242 1.349-2.58 2.601-0.603 2.288-0.603 7.033-0.603 7.033s0 4.769 0.603 7.033c0.338 1.253 1.326 2.24 2.58 2.577 2.314 0.626 11.452 0.626 11.452 0.626s9.161 0 11.451-0.602c1.254-0.337 2.242-1.325 2.58-2.577 0.603-2.288 0.603-7.033 0.603-7.033s0.024-4.769-0.603-7.057zM12.677 19.884v-8.767l7.618 4.384-7.618 4.384z"></path>
</symbol>
<symbol id="icon-times-solid" viewBox="0 0 22 32">
<path d="M15.17 16l6.254-6.254c0.767-0.768 0.767-2.012 0-2.78l-1.39-1.39c-0.767-0.768-2.012-0.768-2.78 0l-6.254 6.254-6.254-6.254c-0.768-0.768-2.012-0.768-2.78 0l-1.39 1.39c-0.767 0.768-0.767 2.012 0 2.78l6.254 6.254-6.254 6.254c-0.767 0.767-0.767 2.012 0 2.78l1.39 1.39c0.767 0.767 2.013 0.767 2.78 0l6.254-6.254 6.254 6.254c0.767 0.767 2.012 0.767 2.78 0l1.39-1.39c0.767-0.767 0.767-2.012 0-2.78l-6.254-6.254z"></path>
</symbol>
<symbol id="icon-bars-solid" viewBox="0 0 28 32">
<path d="M1 8.25h26c0.552 0 1-0.448 1-1v-2.5c0-0.552-0.448-1-1-1h-26c-0.552 0-1 0.448-1 1v2.5c0 0.552 0.448 1 1 1zM1 18.25h26c0.552 0 1-0.448 1-1v-2.5c0-0.552-0.448-1-1-1h-26c-0.552 0-1 0.448-1 1v2.5c0 0.552 0.448 1 1 1zM1 28.25h26c0.552 0 1-0.448 1-1v-2.5c0-0.552-0.448-1-1-1h-26c-0.552 0-1 0.448-1 1v2.5c0 0.552 0.448 1 1 1z"></path>
</symbol>
</defs>
</svg>
