<svg width="90" height="98" viewBox="0 0 90 98" fill="none" xmlns="http://www.w3.org/2000/svg">
<path d="M40.7981 83.1172L48.274 90.5581L40.7981 97.9991L33.3223 90.3851L40.7981 83.1172Z" fill="white"/>
<path d="M49.1448 74.6426L56.6207 82.0835L49.1448 89.5821L41.6689 82.1412L49.1448 74.6426Z" fill="white"/>
<path d="M57.4886 66.5059L65.0224 74.0045L57.4886 81.4454L50.0127 73.8314L57.4886 66.5059Z" fill="white"/>
<path d="M65.8343 58.084L73.3102 65.5249L65.8343 72.9659L58.3584 65.5249L65.8343 58.084Z" fill="white"/>
<path d="M74.179 49.8945L81.6549 57.3355L74.179 64.7764L66.7031 57.1624L74.179 49.8945Z" fill="white"/>
<path d="M82.5237 41.4727L89.9996 48.9136L82.5237 56.3545L75.0479 48.9136L82.5237 41.4727Z" fill="white"/>
<path d="M65.8343 41.6445L73.3102 49.0855L65.8343 56.5264L58.3584 48.9124L65.8343 41.6445Z" fill="white"/>
<path d="M74.179 33.168L81.6549 40.6089L74.179 48.0499L66.7031 40.6089L74.179 33.168Z" fill="white"/>
<path d="M57.4886 33.3398L64.9645 40.7808L57.4886 48.2794L50.0127 40.6654L57.4886 33.3398Z" fill="white"/>
<path d="M57.4886 49.7793L64.9645 57.2202L57.4886 64.7189L50.0127 57.2779L57.4886 49.7793Z" fill="white"/>
<path d="M49.1448 58.084L56.6207 65.5249L49.1448 72.9659L41.6689 65.5249L49.1448 58.084Z" fill="white"/>
<path d="M40.7981 66.2207L48.274 73.6616L40.7981 81.1026L33.3223 73.6616L40.7981 66.2207Z" fill="white"/>
<path d="M49.1448 41.4727L56.6207 48.9136L49.1448 56.3545L41.6689 48.9136L49.1448 41.4727Z" fill="white"/>
<path d="M65.8343 24.918L73.3102 32.3589L65.8343 39.7999L58.3584 32.3589L65.8343 24.918Z" fill="white"/>
<path d="M49.1448 25.0352L56.6207 32.4761L49.1448 39.9747L41.6689 32.3607L49.1448 25.0352Z" fill="white"/>
<path d="M40.7981 33.168L48.274 40.6089L40.7981 48.0499L33.3223 40.6089L40.7981 33.168Z" fill="white"/>
<path d="M57.4886 16.6113L64.9645 24.0523L57.4886 31.5509L50.0127 24.11L57.4886 16.6113Z" fill="white"/>
<path d="M40.7981 16.7266L48.274 24.1675L40.7981 31.6084L33.3223 23.9944L40.7981 16.7266Z" fill="white"/>
<path d="M24.1663 16.6113L31.6422 24.0523L24.1663 31.4932L16.6904 24.0523L24.1663 16.6113Z" fill="white"/>
<path d="M24.1663 66.3906L31.6422 73.8316L24.1663 81.2725L16.6904 73.8316L24.1663 66.3906Z" fill="white"/>
<path d="M24.1663 49.7793L31.6422 57.2202L24.1663 64.6612L16.6904 57.2202L24.1663 49.7793Z" fill="white"/>
<path d="M7.47589 33.168L14.9518 40.6089L7.47589 48.0499L0 40.6089L7.47589 33.168Z" fill="white"/>
<path d="M49.1448 8.30664L56.6207 15.7476L49.1448 23.2462L41.6689 15.7476L49.1448 8.30664Z" fill="white"/>
<path d="M40.7981 0L48.274 7.44094L40.7981 14.8819L33.3223 7.44094L40.7981 0Z" fill="white"/>
</svg>
