<svg width="78" height="94" viewBox="0 0 78 94" fill="none" xmlns="http://www.w3.org/2000/svg">
<path d="M28.9705 84.3965C26.8462 84.6696 26.8462 82.3154 25.4472 81.47C23.7762 80.4555 22.8177 80.6766 21.354 81.6911C17.0405 84.6696 12.9473 87.8823 9.13902 91.4851C8.41364 92.1614 7.57168 92.8248 6.71676 93.345C4.92921 94.2555 3.07689 94.2945 1.50954 92.9548C-0.00599057 91.7192 -0.342776 90.0934 0.330795 88.1164C1.96291 83.33 4.35926 78.9467 6.43179 74.3294C9.34628 67.8131 12.3126 61.2708 15.3955 54.8065C16.2374 53.0116 16.8462 51.3728 16.3022 49.4088C17.0923 49.0706 17.6364 49.6819 18.3747 49.864C18.7115 49.9811 19.1001 50.0851 19.3851 50.3193C20.6804 53.2457 23.5301 52.1792 25.7192 52.9076C26.328 53.0636 27.0145 53.2457 27.6234 53.4799C27.8436 53.5969 28.0767 53.753 28.2969 53.9351C29.0223 55.2357 29.4757 56.5754 29.6311 58.0452C29.5145 58.9946 28.9057 59.8401 28.9575 60.7896C28.841 61.1798 28.6855 61.4659 28.4524 61.8041C27.5068 63.3258 26.0949 64.5485 25.7192 66.3694C25.7192 69.0097 25.1104 71.4289 23.2581 73.458C22.7529 74.0303 22.5845 74.7586 22.9213 75.539C23.4913 76.4885 24.4368 77.1128 25.0457 78.0103C26.1726 79.5841 27.7788 80.5335 29.1389 81.8342C29.5275 82.4455 29.7477 83.0828 29.5922 83.8112C29.4239 84.0193 29.2425 84.2404 28.9705 84.3965Z" fill="#5C0106"/>
<path d="M61.6912 51.5431C66.9631 63.1319 72.274 74.7338 77.4941 86.3096C78.7895 89.1711 77.4941 92.1626 74.7999 93.3462C72.0667 94.5818 69.0745 93.4633 67.6238 90.3677C65.3828 85.5813 63.1937 80.7428 61.1342 75.8523C60.5254 74.3956 59.7352 73.7193 58.2197 74.1095C57.313 74.0574 56.4839 75.2931 55.5254 74.2265C53.7897 71.9114 51.769 69.7783 52.2223 66.5266C52.3389 65.5121 51.6524 64.5496 51.0436 63.7172C50.3182 62.4816 49.256 61.285 49.4762 59.8933C49.2042 60.6217 49.1394 62.0914 47.5721 62.3645C47.3519 62.2085 47.1835 62.0264 47.0669 61.7532C46.9503 61.363 46.9503 60.9598 47.0669 60.5696C47.5203 59.334 48.1291 58.1374 48.3623 56.8627C48.4788 56.1864 48.5177 55.5621 48.7509 54.9508C49.4244 53.9363 49.4762 52.7006 50.0462 51.6341C51.0565 50.5676 52.1187 49.501 53.5306 48.8897C56.6782 48.4345 58.5047 45.6251 61.3155 44.5065C61.9243 44.2334 62.4943 43.9342 63.2197 43.9992C65.2274 45.8592 62.7145 46.5225 62.2093 47.7061C61.9373 48.3174 60.1368 47.8232 61.0824 49.2799C61.5228 49.9693 60.7456 50.9968 61.6912 51.5431Z" fill="#5C0106"/>
<path d="M28.5172 22.9663C29.5276 23.7597 29.8125 23.1224 30.1882 22.238C31.4835 19.2595 32.8825 16.333 34.2167 13.4065C35.227 11.0913 36.8462 9.47852 39.4239 9.47852C42.0016 9.47852 43.6725 11.0003 44.6311 13.3675C45.9264 16.5281 47.3254 19.6627 48.6596 22.7712C48.9963 23.2785 49.6052 23.5646 49.7217 24.176C49.6699 26.8163 50.3305 29.5087 49.5663 32.162C48.1673 33.5667 47.3254 31.9409 46.2632 31.5507C46.043 31.4336 45.758 31.3296 45.5378 31.2125C44.0223 30.4191 42.5067 31.5507 40.9912 31.0955C40.1493 30.8743 40.0845 29.7948 39.3202 29.5737C38.7114 30.0809 38.7114 30.8743 38.2581 31.4336C37.6493 32.11 36.8591 32.5652 36.0172 32.8904C34.683 33.1115 33.7762 33.9049 33.2192 35.0885C32.6493 35.8169 32.2737 36.6623 31.8851 37.5207C31.4317 38.4702 30.7581 39.2636 29.5276 38.8604C27.5587 37.4557 28.4006 35.2055 27.9602 33.3456C27.1701 30.8223 28.6856 28.286 27.9602 25.7628C27.4032 24.6572 26.1727 23.4736 28.5172 22.9663Z" fill="#5C0106"/>
<path d="M49.3078 24.1512C49.1523 23.6959 48.9192 23.2407 48.7378 22.8115C50.072 22.5383 51.1989 22.5904 51.0435 24.4503C50.6549 28.4433 53.0124 31.5389 54.4632 35.0377C55.9139 34.0231 56.7041 32.6054 57.4942 31.2658C59.0098 28.6774 58.5046 26.4793 56.0953 24.6844C54.6963 23.6179 53.1808 22.6684 51.7818 21.5889C50.3311 20.4053 49.2041 18.9485 48.5306 17.1406C48.0772 15.892 47.4036 14.2141 48.5306 13.6028C49.7611 12.9265 50.3829 14.7344 51.0435 15.6188C53.2326 18.5453 56.5357 19.885 59.6574 21.9791C60.2274 19.4558 59.3854 17.3617 58.4787 15.3977C57.0797 12.3542 55.5124 9.37568 53.9968 6.39717C53.6082 5.55174 53.2067 4.71932 52.9347 3.80886C52.4813 2.46918 51.9891 0.648259 53.5046 0.101982C55.0202 -0.470307 55.072 1.50669 55.5771 2.53421C57.5849 6.64429 61.1859 9.6228 63.5823 13.889C63.9709 12.2501 63.7377 10.9625 63.4657 9.72685C63.2455 8.71234 63.4657 7.86691 63.8543 7.02148C64.1263 6.41017 64.761 6.072 65.4864 6.11102C66.2766 6.16305 66.0952 6.90442 66.16 7.41168C66.3154 8.4262 66.5486 9.4277 67.1703 10.2731C69.7998 13.876 69.476 17.3617 67.0149 20.8995C66.4061 21.7449 66.0045 22.8115 65.2791 24.1642C67.3517 23.774 67.4682 21.1857 69.5926 21.4588C68.5822 23.7089 68.8024 26.0241 68.7506 28.3783C68.6988 33.776 64.774 38.7836 59.1652 40.9817C58.5564 41.2028 57.3129 40.9296 57.5331 41.9962C57.8051 43.1798 58.8673 42.5685 59.6574 42.4514C62.1704 41.9962 64.6315 41.4369 67.1056 39.8631C66.3154 43.9732 65.1367 47.511 62.2222 50.2684C61.7688 50.6586 61.432 51.0618 61.6522 51.7251C60.6419 51.3869 60.0849 50.8797 60.9787 49.8131C60.4087 48.9027 61.0305 48.4735 61.704 48.1353C62.9994 47.563 63.5564 46.3404 64.0097 45.1568C64.6185 43.583 63.4398 44.0252 62.6755 44.2073C60.0978 45.0007 57.4683 45.1178 54.8259 45.664C52.9217 46.0022 51.5746 45.2088 50.6808 43.531C50.6808 43.0757 50.901 42.7376 51.2508 42.4644C52.1575 41.8531 52.8829 41.1247 53.8285 40.6045C55.1626 40.1493 56.5616 39.8111 57.9217 39.3038C59.5538 38.9136 60.9528 38.0682 62.1315 37.1057C61.0046 37.1577 60.1626 39.694 58.5434 37.678C59.217 35.5969 60.9009 34.0752 61.73 32.1112C63.1289 29.0676 63.1289 25.816 63.6341 22.6034C63.6859 22.2132 63.7507 21.7579 63.9061 21.3677C66.2636 18.3892 67.274 15.1766 65.4734 11.5738C65.8102 14.006 65.3569 16.2952 64.0227 18.3892C62.7921 19.846 61.9502 19.5728 61.3932 17.8169C61.0564 16.7504 60.888 15.7359 60.7844 14.6173C60.9398 12.0941 58.4787 11.0145 57.9346 9.38868C58.66 10.6893 59.6056 12.4322 60.3958 14.2271C61.3025 17.0886 62.5201 20.1321 61.4579 22.9936C59.9424 27.2597 60.6678 32.1632 57.546 35.9871C56.2507 37.5089 55.3569 39.1868 53.1808 39.4209C52.0539 38.0812 50.8233 36.7805 50.2663 35.0377C49.8648 31.4218 49.8259 27.767 49.3078 24.1512Z" fill="#510405"/>
<path d="M28.5169 22.9674C27.6102 23.6438 27.2216 24.3722 28.5169 25.0485C28.4651 26.063 28.6335 27.0645 28.3615 28.092C27.2346 32.3582 27.2993 36.5853 28.7501 40.8125C28.7501 41.0856 28.6983 41.3848 28.5299 41.6579C27.2346 42.2302 26.3408 41.3848 25.447 40.8125C22.7139 37.6519 19.5015 34.9595 17.9341 30.9145C17.2605 29.1716 17.8175 27.1426 16.7554 25.5167C16.5999 23.9429 16.4833 22.3561 16.0818 20.7953C15.9264 18.207 16.3538 15.8008 17.7139 13.5247C18.4393 12.5752 19.0092 11.5086 19.5015 10.3641C19.8901 9.85681 20.1103 9.2325 20.4082 8.68622C20.1362 8.90733 20.0714 9.29753 19.903 9.59668C18.7243 10.8973 17.6621 12.3021 16.6517 13.7068C15.3176 14.8904 15.4082 16.5162 15.4082 18.09C14.8383 18.9354 14.2813 18.5452 13.7373 18.09C13.1284 17.2966 12.7269 16.4512 12.4031 15.5667C11.8331 13.5897 12.2865 11.6777 12.973 9.77877C12.8176 10.234 12.701 10.6242 12.5196 11.0794C11.4575 13.6027 10.6155 16.139 13.1284 18.3501C13.245 18.5712 13.3487 18.8574 13.4005 19.1435C13.6207 20.6653 14.4108 22.005 14.4108 23.5267C14.5274 26.5052 14.7994 29.4317 16.0818 32.1761C16.5352 33.0215 17.0921 33.854 17.0274 34.8815C16.574 36.0131 15.7839 35.7269 15.0196 35.3367C14.2942 34.9465 13.7891 34.2051 13.0119 33.932C10.8875 33.1386 11.7165 30.9535 10.8875 29.5488C10.2787 28.1441 10.7321 26.6873 10.4342 25.2826C10.8228 26.7394 10.214 28.2611 10.9393 29.6658C11.5481 31.1226 11.0948 32.9825 12.6751 34.0491C14.4108 35.961 16.1595 37.821 18.5041 38.9525C18.9574 39.1736 19.4496 39.3427 19.9548 39.5248C21.6906 40.2532 23.5947 40.3703 25.2268 41.3848C26.8589 42.2302 28.1931 43.2967 28.0247 45.4298C27.9729 46.4443 27.9081 47.5109 26.5739 47.745C25.1232 47.6279 24.3848 46.0021 22.9341 45.885C20.2398 45.3128 17.5585 44.8185 14.8124 44.8185C13.4134 45.4949 14.6569 46.1192 14.8642 46.7305C15.201 47.68 16.4315 48.3693 15.5378 49.5919C12.0145 47.68 11.8461 44.0771 10.771 40.3703C14.359 41.7099 17.5585 42.8935 21.017 42.8415C20.9652 41.3848 19.8901 41.5018 19.2294 41.2677C12.6233 39.0176 9.13884 34.1791 9.13884 27.2076C9.13884 25.3477 8.86682 23.5527 8.29688 21.6928C9.96785 21.4717 10.3046 23.2146 11.6 23.6698C11.6 22.031 10.6544 20.8084 9.96785 19.5597C8.45232 16.6332 8.51708 13.8758 10.3564 11.1185C10.9653 10.208 11.6 9.20648 11.6518 8.07491C11.7036 7.39857 11.4963 6.43608 12.5974 6.39706C13.6077 6.34504 14.1129 7.19046 14.3331 7.97086C14.4885 8.76426 14.5533 9.64871 14.2813 10.4421C14.0093 11.3526 13.7113 12.12 14.3979 13.4206C17.3124 9.49263 20.7838 6.267 22.7009 1.88378C23.0377 1.15541 23.0895 0.0238366 24.2164 0.244949C25.2786 0.46606 25.0584 1.54561 25.1232 2.326C25.2398 4.00385 24.4496 5.36954 23.789 6.82628C21.7812 10.9884 19.0222 14.8123 18.1284 19.5467C17.973 20.3401 17.7398 21.1205 18.1284 22.07C21.6517 20.3271 25.1361 18.5322 27.3123 15.0334C27.7009 14.4221 28.219 13.3556 29.2164 13.7978C30.162 14.253 29.7864 15.2545 29.605 16.0479C29.0351 18.9744 27.2475 21.0425 24.9548 22.7463C17.8953 27.8059 17.8305 28.5993 23.6595 35.4668C23.7113 35.5188 23.8149 35.5188 23.9315 35.5838C26.0558 32.3842 26.8978 28.8334 26.846 24.9965C26.7812 23.1365 26.8978 23.1365 28.5169 22.9674Z" fill="#4F0305"/>
<path d="M42.4675 89.8733C42.2473 90.3806 42.0141 90.8878 41.7421 91.3301C41.4053 91.8373 41.6903 93.6973 40.2914 91.8373C39.838 91.265 39.7862 92.9039 39.3458 92.9689C38.2188 93.6453 38.7758 90.2635 37.1048 92.3576C36.7681 92.7478 36.4313 91.7463 36.1981 91.226C35.5893 89.7042 34.8639 89.0279 33.8406 91.174C33.5038 89.9904 33.2318 89.0929 32.9339 88.2475C32.5453 87.6752 32.6619 87.181 33.2059 86.7257C34.9417 86.1144 35.8354 87.9093 37.2991 88.1825C38.0245 88.5727 38.4779 89.249 38.8147 90.0944C39.5401 89.4181 39.7603 88.5206 40.5504 88.0784C41.3406 87.7402 41.6774 88.2345 42.066 88.7548C42.3121 89.132 42.3121 89.5352 42.4675 89.8733Z" fill="#541111"/>
<path d="M56.0941 74.11C56.8195 74.9034 57.5448 73.2645 58.2832 74.162C57.8298 74.8383 60.3557 74.7733 58.7365 75.3976C57.1692 76.0089 57.1692 77.4787 56.3143 78.3241C54.7987 79.8459 53.3998 81.7578 51.0423 82.148C50.8221 82.031 50.6537 81.8749 50.5371 81.6408C50.5371 80.3401 51.4827 79.6638 52.2081 78.7793C53.3868 77.7648 54.5656 76.8023 54.9412 75.2415C55.3039 74.7343 55.5241 74.279 56.0941 74.11Z" fill="#500D0D"/>
<path d="M51.1073 82.161C50.654 84.5282 48.3742 85.6598 47.4027 87.7278C47.0659 88.4042 46.1721 88.9635 45.2784 88.2351C44.6695 87.4417 44.825 86.5962 45.2784 85.8028C45.667 85.0094 46.3405 84.5542 47.0141 84.125C47.7395 83.6698 48.0763 82.8764 48.5296 82.213C49.255 81.0815 50.097 81.0815 50.9519 82.0569L51.1073 82.161Z" fill="#551213"/>
<path d="M33.2841 87.0509C33.1676 87.4411 33.0639 87.8964 32.9474 88.2866C30.2531 88.4036 29.1909 86.8298 28.9707 84.3586C29.0225 84.0854 29.0873 83.7863 29.1261 83.5131C29.6961 83.175 30.1883 83.4611 30.6417 83.7343C31.393 84.9699 33.6339 84.9699 33.2841 87.0509Z" fill="#480608"/>
<path d="M15.577 49.2921C15.4604 47.6533 14.0096 46.7038 13.3879 45.2991C12.9345 44.3496 13.0511 43.9985 13.9967 43.7773C14.1521 43.9334 14.3853 44.1155 14.5666 44.2846C15.6288 45.4682 16.419 46.8079 17.7531 47.7183C18.8153 48.5117 19.1521 49.4612 17.7013 50.3066C17.248 49.9685 16.9759 49.3572 16.1858 49.3572C16.0304 49.3572 15.8102 49.2921 15.577 49.2921Z" fill="#E0C7A1"/>
<path d="M42.4678 89.8722C42.3123 89.6511 42.131 89.417 41.9626 89.1959C41.9108 88.0123 42.416 87.1799 43.5947 86.7637C44.5014 86.8157 44.5403 87.7782 45.1103 88.1684C44.8382 89.0138 44.5014 89.8462 44.2035 90.8087C43.1932 91.2639 43.4911 89.352 42.4678 89.8722Z" fill="#4D110F"/>
<path d="M45.0464 88.2348C44.1397 88.3909 43.479 88.2868 43.7122 87.1032C43.8676 85.8026 44.1656 84.632 45.8365 85.8676C45.6811 86.661 45.4998 87.4414 45.3314 88.2348L45.2148 88.3519L45.0464 88.2348Z" fill="#A9816E"/>
<path d="M47.6747 60.6729C47.6228 61.011 47.5581 61.3492 47.5192 61.7394C46.185 62.8059 44.7861 63.7164 42.9726 62.923C43.3612 63.9895 44.2032 64.9 44.9415 65.9015C45.9519 68.3727 45.7317 70.6879 43.8146 72.6519C42.9726 73.1592 42.0788 73.2242 41.1203 72.808C40.6669 72.5869 40.5504 72.1967 40.5115 71.6764C40.5633 70.948 41.0814 70.4408 41.4571 69.8815C41.7939 69.1531 42.584 68.4248 41.7939 67.5143C39.825 67.7354 37.882 67.5143 35.9131 67.6704C35.2395 69.3092 36.9752 69.9205 37.312 71.1692C37.4286 72.5088 36.5866 72.912 35.4597 73.0291C34.6696 73.0291 34.0089 72.756 33.4908 72.1186C32.4805 70.2067 31.9235 68.2297 32.882 66.0966C33.4908 64.6919 33.6722 63.4563 31.8716 62.8319C31.4183 62.6759 30.9261 62.4417 30.5375 62.1036C30.0841 61.8304 29.8639 61.3752 29.6955 60.868C29.4235 59.9575 29.4753 59.008 29.1903 58.0585C28.737 56.6538 28.3484 55.2491 27.895 53.8314C27.7396 52.986 28.2836 52.9209 28.9053 52.9209C29.5789 53.1941 29.7473 53.9354 30.0841 54.4947C30.5893 55.4052 31.5349 55.4442 32.3898 55.7304C32.7266 55.8474 32.9986 55.7304 32.6618 55.7304C32.6618 55.5743 32.61 55.3922 32.3898 55.2751C31.5996 54.5988 30.8742 53.9745 30.382 53.077C29.7085 51.5032 28.4131 49.9814 29.8768 48.1735C30.0971 48.0174 30.3302 47.9004 30.6022 47.9004C30.8224 48.0174 31.0556 48.1735 31.211 48.4076C31.2628 50.2026 32.338 50.4237 33.7887 50.0465C34.7343 49.4742 35.7965 48.9149 36.9364 49.2531C38.7239 49.8644 40.4208 49.136 42.1436 49.097C43.8146 48.9409 45.1099 50.7358 46.9104 50.1115C47.584 50.2676 48.0373 50.7228 48.3094 51.3471C48.4648 52.2966 47.1824 52.4137 47.2472 53.3241C46.7938 54.1696 46.0166 54.7288 45.2783 55.3402C44.7084 55.7954 44.3716 56.4717 43.6462 56.7449C43.4907 56.7449 43.1928 56.6928 43.141 56.7449C42.9208 57.018 43.2576 56.7969 43.2964 56.8619C43.6332 56.5888 43.5685 57.7724 44.0866 57.083C44.242 56.8099 44.4234 56.4717 44.6954 56.2376C45.6021 55.5092 46.7679 55.5092 47.7265 54.8979C48.0633 54.6768 48.4 54.5598 48.7886 54.5077C49.0607 54.5598 49.242 54.6638 49.3974 54.8459C49.3456 55.5222 49.242 56.2506 49.1772 56.927C47.9726 58.0845 47.4026 59.1901 47.6747 60.6729Z" fill="#FAD2AA"/>
<path d="M26.614 54.9902C27.6243 57.9167 26.8342 60.388 25.215 62.6381C24.4249 63.7046 23.4275 64.7712 23.6477 66.0718C24.2176 69.6096 21.6788 70.299 18.8809 71.4696C21.5751 65.7337 24.0881 60.3229 26.614 54.9902Z" fill="#F6F5F5"/>
<path d="M30.7066 61.778C31.0952 61.9341 31.4967 62.1162 31.8853 62.2852C32.0408 62.4413 32.1574 62.7405 32.1574 62.9616C32.0408 63.755 31.9372 64.4834 31.6522 65.2117C31.147 66.4604 28.5045 66.2262 29.5278 68.4764C29.6444 68.9836 29.6444 69.5429 29.476 70.0502C29.3594 70.4404 29.204 70.7785 28.9708 71.1167C28.4657 72.0662 28.8543 73.3148 28.0253 74.1602C27.7532 74.2773 27.4553 74.2123 27.2351 74.1082C26.3284 72.8076 26.3931 71.1817 25.7843 69.777C25.5123 68.5934 24.774 67.4619 25.1108 66.1742C24.9553 63.859 27.0797 62.8575 27.9605 61.1797C28.8154 61.778 29.6444 62.2332 30.7066 61.778Z" fill="#DDB692"/>
<path d="M17.6617 50.3609C18.0503 49.3464 17.9985 48.566 16.9363 47.8896C15.641 46.9792 14.4752 45.9126 13.9053 44.3518C15.4208 43.5584 16.6384 44.4689 17.9337 45.0282C20.3949 47.4604 23.5425 48.527 26.6124 49.7496C27.558 50.9852 28.3482 52.2728 27.286 53.8597C26.7161 53.8597 26.1073 54.0157 25.615 53.5865C25.0451 53.4695 26.185 52.572 24.9415 52.4549C22.8689 52.2338 20.7964 51.5445 18.8793 50.543C18.6073 50.4779 18.1539 50.4259 17.6617 50.3609Z" fill="#631813"/>
<path d="M27.4545 74.1094C27.5711 74.1094 27.7265 74.1094 27.8431 74.1094C28.5685 74.5646 28.5685 75.358 28.6851 76.0864C28.6851 77.5431 29.5918 78.8308 29.6954 80.2485C29.5789 80.9769 29.6954 81.8223 28.6333 81.8873C27.1177 80.8208 25.0452 80.2485 24.54 78.0634C24.6955 77.8423 24.8768 77.7252 25.1488 77.7252C26.483 77.8813 26.0944 76.8147 26.2758 76.0864C26.3924 75.293 26.6644 74.5646 27.4545 74.1094Z" fill="#F2CFAA"/>
<path d="M27.403 53.8585C27.403 52.4538 27.131 51.1141 26.3408 49.8655C26.4574 49.5924 26.561 49.3582 26.7942 49.1891C27.403 48.851 28.4263 48.968 28.3097 47.8495C29.0351 47.6284 29.7087 47.5763 30.2138 48.3567C28.8149 50.0996 30.8226 51.5173 30.6672 53.1432C30.162 53.7154 29.5403 53.2992 28.9962 53.2992C28.5429 53.3513 28.0895 53.4553 27.8693 53.9105C27.7268 53.9235 27.5714 53.8585 27.403 53.8585Z" fill="#B88D72"/>
<path d="M25.097 66.123C25.4856 67.2546 25.8224 68.3732 26.224 69.4397C26.496 70.3502 26.2758 71.0786 25.4986 71.6379C24.7084 72.3142 24.9934 73.3807 24.6566 74.2262C23.9831 74.8375 23.6463 76.0211 22.351 75.7479C21.509 75.1366 21.4054 74.1741 22.0142 73.5498C24.1515 71.4558 24.9934 68.9845 25.097 66.123Z" fill="#EBD2B3"/>
<path d="M19.0615 50.4766C21.3672 51.0489 23.6081 51.6602 25.8879 52.2194C26.2765 52.3365 26.8983 52.1024 26.8335 52.8307C26.7817 53.5071 25.7713 52.7787 25.7066 53.5591C25.0978 53.4421 24.476 53.403 23.8542 53.286C21.9112 52.9478 19.7221 53.0128 19.0615 50.4766Z" fill="#DEC0A3"/>
<path d="M28.6338 81.9274C29.3074 81.5372 29.0224 80.7958 29.139 80.2495C29.9291 79.4561 30.4732 81.199 31.2633 80.4056C31.7167 80.2495 32.2089 80.0674 32.7141 80.1325C33.284 80.4056 33.3876 80.8608 33.2193 81.4331C32.2089 82.3436 32.0923 84.1775 30.3048 84.2426C30.1493 83.6703 29.6312 83.6313 29.126 83.5662C28.9706 82.9939 28.8151 82.4997 28.6338 81.9274Z" fill="#CEAB88"/>
<path d="M22.416 75.747C23.4264 75.5909 23.3616 73.952 24.6051 74.1081C26.2372 75.1747 25.5119 76.6314 25.1751 78.0361C24.9549 78.0361 24.7865 78.0881 24.5663 78.0881C23.4264 77.6979 22.8176 76.8655 22.416 75.747Z" fill="#C6A78B"/>
<path d="M30.7065 61.7771C30.6547 63.52 29.3076 62.5055 28.634 62.5705C27.7273 62.6876 28.064 61.66 28.0252 61.1138C28.1806 60.9577 28.362 60.7756 28.5951 60.6065C29.0485 60.0342 29.6055 60.2163 30.1625 60.4894C30.2661 60.9447 30.4863 61.3479 30.7065 61.7771Z" fill="#AC7F5D"/>
<path d="M30.0973 60.4909C29.5921 60.5429 29.0869 60.608 28.5299 60.608C27.6232 59.4764 28.6465 58.8651 29.1387 58.1367C30.2138 58.644 29.7605 59.7105 30.0973 60.4909Z" fill="#5B0801"/>
<path d="M44.255 65.6668C43.1928 65.2767 42.9208 64.3662 42.4674 63.4167C42.1954 62.6883 42.4156 62.2851 42.8042 62.012C43.8145 61.2836 43.6462 62.1291 43.5943 62.6883C44.8897 62.3502 46.172 62.012 47.4674 61.6738C47.5839 61.7909 47.6228 61.947 47.6228 62.1291C48.9181 62.5193 50.3171 62.5843 51.4958 63.3647C52.6746 63.937 53.1668 65.3417 52.9466 66.1741C52.1046 69.6729 54.7989 71.5718 56.0295 74.0561C55.874 74.4463 56.0295 75.0056 55.4595 75.2397C53.387 75.5779 53.672 73.783 53.1539 72.7164C52.8818 72.2092 52.5451 71.7669 52.1435 71.3767C51.0813 70.5833 51.0813 72.3912 50.2394 72.1051C49.9674 72.1051 49.7342 71.988 49.514 71.832C48.9052 70.8175 48.4518 69.7509 48.2834 68.5673C48.8534 66.5513 47.3378 65.7579 46.0943 64.7954C46.4311 64.9515 45.641 64.6393 45.9777 64.5743C45.9777 64.5743 45.9777 64.4182 45.9777 64.3532C45.5503 64.8214 45.4337 65.953 44.255 65.6668Z" fill="#EFCEAA"/>
<path d="M55.5239 63.1455C53.283 63.8739 52.3762 62.6383 51.7674 61.2856C51.2623 60.219 50.9773 59.0354 50.7571 57.8519C50.6016 56.9414 49.9669 55.4847 51.0939 55.1465C52.2208 54.8083 52.428 56.3821 52.8296 57.2275C53.7881 59.1525 54.5783 61.1165 55.5239 63.1455Z" fill="#F3EFEE"/>
<path d="M61.5867 44.9086C59.9157 45.8191 58.439 46.9897 57.0401 48.2904C56.1334 49.0838 55.0712 49.591 53.7888 49.3049C53.2189 48.8496 53.1152 48.2383 53.1152 47.562C53.1152 46.2223 53.9054 45.546 55.123 45.1948C57.2603 45.1948 59.3458 44.0242 61.5867 44.9086Z" fill="#E6C29B"/>
<path d="M63.2057 43.504C63.8145 43.1659 64.501 42.8927 65.33 42.4375C64.8249 45.6371 62.9078 47.6661 61.0166 49.7082C60.2265 49.435 58.9441 49.37 60.4467 48.2514C61.5088 47.458 62.6358 46.7297 63.3611 45.5461C63.6332 45.0908 64.1513 44.6356 63.2446 44.3104C62.9207 44.0243 62.9207 43.7902 63.2057 43.504Z" fill="#DAC2A7"/>
<path d="M53.6728 47.7201C53.6728 48.2274 53.7246 48.7346 53.7246 49.2419C52.4293 49.7491 52.0537 51.6741 50.305 51.6091C50.1884 51.492 50.0848 51.3359 49.9682 51.2189C49.5925 47.6811 50.7713 46.5495 53.6728 47.7201Z" fill="#AEADAD"/>
<path d="M63.2056 43.5059C63.2056 43.727 63.2574 43.9611 63.2574 44.2342C62.6875 44.4553 62.1305 44.6895 61.5865 44.9106C59.3455 45.1317 57.1046 45.3008 54.8637 45.5219C54.3585 45.678 54.2549 45.4699 54.3585 45.0666C57.3248 44.5204 60.2264 44.0261 63.2056 43.5059Z" fill="#E3D5CB"/>
<path d="M51.4961 63.418C50.0453 63.535 48.6464 63.47 47.623 62.1823C48.4132 61.3889 49.0738 60.5435 49.4754 59.2559C50.2007 60.7126 50.8873 62.0783 51.4961 63.418Z" fill="#B18B72"/>
<path d="M46.9502 53.2465C46.1601 51.8418 48.0772 52.336 48.1808 51.5686C48.3362 51.4125 48.5694 51.2305 48.7896 51.1784C49.2948 51.1264 49.7999 51.1264 50.1238 51.6337L50.2404 51.6857L50.3569 51.5686C50.0849 52.7522 50.7455 54.209 49.2948 55.0024C49.0746 54.9503 48.8414 54.8853 48.6212 54.8463C48.129 54.248 47.559 53.6887 46.9502 53.2465Z" fill="#E3D7D4"/>
<path d="M52.6755 53.2469C52.1055 53.468 51.4967 54.1574 51.0434 53.1949C50.7066 52.5185 51.0952 52.1804 51.8335 52.1804C53.5692 52.0633 55.2014 50.3854 57.1055 51.6731C56.0433 53.351 54.1262 52.6226 52.6755 53.2469Z" fill="#C7A786"/>
<path d="M47.6747 60.6725C46.0038 58.6565 47.4545 57.8111 49.0737 57.1348C48.6462 58.3054 48.1281 59.489 47.6747 60.6725Z" fill="#B18B72"/>
<path d="M52.6748 53.2469C54.009 52.2974 55.8225 52.7396 57.1048 51.6081C57.6748 51.491 58.167 51.452 58.7758 51.9462C56.7033 52.7396 54.7991 53.5851 52.6748 53.2469Z" fill="#E0C6A9"/>
<path d="M35.7572 32.5284C36.4826 32.1902 36.936 31.2277 37.8816 31.2927C38.7235 30.3823 39.6173 29.953 40.7313 30.6814C42.467 30.7334 44.2157 29.6149 45.9385 30.6814C45.8867 31.1366 45.6665 31.4098 45.3297 31.6959C44.4877 32.3072 43.3608 32.3723 42.48 32.8275C41.8064 33.1657 39.3971 32.7104 41.3012 34.8045C41.6898 35.1947 41.081 35.5979 40.6277 35.754C39.9541 36.0271 39.1769 35.9101 38.1666 36.1442C41.4178 36.9376 43.2572 38.8495 43.8919 41.8931C43.7753 42.1662 43.5551 42.4003 43.2831 42.5044C41.6121 43.0767 39.9152 42.7255 38.2443 42.8426C35.5111 42.7255 32.7521 42.3353 30.1744 41.4379C29.0474 40.7095 29.164 39.76 29.7858 38.7325C32.1433 38.3943 31.3013 35.5719 32.9723 34.6874C33.6977 35.0776 33.5422 35.754 33.4775 36.4303C33.1407 39.695 33.1407 39.695 36.4438 39.4739C36.8324 39.4739 37.1691 39.4739 38.0111 39.4739C36.379 38.9016 34.0992 40.0462 34.0345 38.1342C33.9438 36.1962 32.778 33.5559 35.7572 32.5284Z" fill="#F50405"/>
<path d="M50.9264 35.2971C51.6518 36.6368 53.4394 37.3782 53.2321 39.2251C53.7373 39.7324 53.5041 40.3567 53.3875 40.9029C53.1673 41.9175 52.4419 42.3597 51.4834 42.5808C47.8435 42.4637 46.6 41.1761 46.328 37.1831C46.2762 36.4547 46.2762 35.7263 46.2762 34.985C46.4964 33.5802 45.6674 32.1235 46.4316 30.7578C47.4938 31.096 47.8824 32.5007 49.1259 32.5527C50.201 33.151 50.201 34.4387 50.9264 35.2971Z" fill="#B80405"/>
<path d="M35.7588 32.5273C33.4013 33.828 35.4867 36.2992 34.4246 38.0421C34.036 38.6534 35.7199 38.7185 36.3935 38.4973C38.2976 37.9251 38.8546 38.8355 39.1266 40.6955C37.8313 40.7475 37.0541 39.785 35.7069 40.1232C32.6241 40.9686 31.7303 39.6679 32.6241 36.5203C32.7795 35.909 33.0127 35.2847 32.8443 34.6084C33.3365 33.3207 34.0619 32.1892 35.7588 32.5273Z" fill="#FC4848"/>
<path d="M29.6958 38.7316C29.6958 39.46 29.6958 40.1883 29.644 40.9297C29.4238 41.3849 29.1388 41.7231 28.5171 41.3849C26.0948 37.0017 26.6129 32.5014 27.9083 27.8711C28.8539 29.666 27.5715 31.7601 28.5818 33.555C28.9186 35.2978 28.6336 37.1448 29.6958 38.7316Z" fill="#DED69B"/>
<path d="M50.9266 35.299C49.8645 34.7267 49.1909 33.8943 49.1391 32.5936C49.5277 29.7842 48.6857 26.9618 49.2945 24.1523C50.3696 27.7682 50.8878 31.462 50.9266 35.299Z" fill="#E0D9C6"/>
<path d="M28.582 33.5551C27.0665 31.8122 28.4654 29.7312 27.9085 27.8712C28.0639 26.9217 27.5717 25.7902 28.5173 25.0098C29.8773 27.8712 27.8437 30.7327 28.582 33.5551Z" fill="#E5DCCE"/>
<path d="M46.4571 30.7857C47.0271 32.2424 47.1825 33.7122 47.0271 35.2339C46.4183 36.0794 47.1436 37.25 46.1203 38.3945C44.6696 35.9623 44.9934 33.6732 45.3302 31.358C45.5504 31.1369 45.7835 30.9028 46.0037 30.6816C46.1203 30.7337 46.2758 30.7337 46.4571 30.7857Z" fill="#FC2828"/>
<path d="M40.7316 30.6663C39.786 30.8874 38.8274 31.0565 37.8818 31.2776C37.9984 30.042 38.5554 29.0795 39.3326 27.9609C40.2393 28.7153 40.4595 29.7168 40.7316 30.6663Z" fill="#DDD1CD"/>
<path d="M53.4003 40.9158C52.105 40.5256 53.3485 39.7843 53.2449 39.238C56.6646 37.326 57.9469 33.8403 59.6309 30.5626C60.5765 28.7027 58.4003 26.7387 59.1257 26.0623C60.4599 24.8787 60.978 23.6951 61.0946 22.0693C61.3148 19.3249 60.3692 16.7756 59.864 14.1873C59.8122 13.6801 59.3589 13.0037 60.0842 12.7826C60.8744 12.5615 61.0298 13.4589 61.4184 13.8491C61.6904 15.1498 61.9884 16.3724 62.2086 17.6731C62.5972 20.1053 63.2707 17.7901 63.8407 17.7901C64.5143 17.2829 65.0712 17.517 65.408 18.1283C65.978 19.1428 65.0194 19.7671 64.6179 20.5605C63.6723 21.2369 63.4909 22.3034 63.1023 23.2659C62.649 24.6056 62.8821 26.0103 62.8821 27.376C62.8821 29.1189 62.9987 30.8097 62.092 32.3705C61.5868 34.4516 60.1231 35.9083 58.7241 37.4301C58.2708 38.1064 58.9962 39.0689 58.1542 39.6282C56.7034 40.5777 55.1361 41.0849 53.4003 40.9158Z" fill="#F5F1B0"/>
<path d="M45.3306 31.3555C46.4575 33.2674 45.6026 35.4005 46.0559 37.5466C46.7813 36.8703 46.1725 35.6867 47.0015 35.2314C47.1181 36.8703 46.885 38.392 47.7917 40.0179C49.1906 42.4501 48.9704 42.5411 51.4316 41.0844C51.9367 41.5916 51.2761 42.0989 51.4834 42.6062C51.2632 42.8793 51.0948 43.1134 50.8746 43.3996C50.0326 43.9719 49.1388 44.0759 48.1803 43.9719C47.7269 43.7507 47.3901 43.2955 47.0534 42.9053C46.2114 41.7737 44.6311 42.5671 43.7503 41.6047C41.898 39.5886 40.7192 36.4931 37.1441 36.9353C36.9887 36.9353 36.6907 36.5971 36.6389 36.363C36.5871 35.7907 37.0275 35.4525 37.4809 35.4135C38.6078 35.2965 39.67 35.2965 40.9006 35.2574C40.4472 34.412 39.2684 34.6852 38.9317 33.6836C40.7322 32.0838 43.1544 32.0318 45.3306 31.3555Z" fill="#D60202"/>
<path d="M48.1935 43.6215C49.1002 43.5695 49.9811 43.4654 50.8878 43.4004C52.1831 43.6215 52.4551 45.9887 54.3074 45.0392C54.4629 45.1953 54.6442 45.3774 54.8126 45.4945C54.0872 46.0667 53.5173 46.7301 53.6857 47.7446C50.266 47.0162 50.4992 49.6045 50.0976 51.6336C49.5925 51.6336 49.0873 51.6336 48.5821 51.5815C47.5717 50.0077 47.7401 48.3819 48.8023 46.9642C49.9292 45.5075 49.0743 44.9482 47.9603 44.3239C47.9733 44.0637 48.0122 43.8426 48.1935 43.6215Z" fill="#C9C4C4"/>
<path d="M64.3206 20.7187C63.8154 19.8083 66.7429 18.2865 63.8154 17.7923C65.1108 15.1519 65.5512 12.4596 64.2688 9.41602C68.6988 12.9538 67.6366 18.8588 64.3854 21.291C64.2688 21.174 64.2299 21.0699 64.2688 20.9008C64.2688 20.8358 64.3206 20.7187 64.3206 20.7187Z" fill="#E6DFB6"/>
<path d="M62.0788 32.4875C62.4674 29.3269 61.4052 26.0753 62.7523 22.9797C63.5943 24.4365 62.7005 25.9582 62.9726 27.428C62.7523 25.9062 63.2446 24.5015 63.1928 22.9797C63.1409 22.0302 63.7627 21.9132 64.4881 22.0693C63.8275 25.555 64.2679 29.3269 62.0788 32.4875Z" fill="#C7B194"/>
<path d="M56.9888 23.2014C54.0743 21.6276 50.9267 20.457 50.0977 16.9062C51.7686 19.7027 55.5251 20.34 56.9888 23.2014Z" fill="#DAD1B0"/>
<path d="M61.4703 13.9153C61.0169 14.4226 59.9547 12.0033 59.8382 14.2535C58.6076 11.9383 57.377 9.63615 56.1465 7.33398C58.4392 9.07687 60.6283 10.9368 61.4703 13.9153Z" fill="#E3DCBE"/>
<path d="M58.1663 39.7337C58.2181 38.9403 57.3243 37.9908 58.7362 37.5356C61.0419 38.264 61.9875 36.2349 63.7103 35.5586C62.7 37.9388 60.6792 39.1224 58.1663 39.7337Z" fill="#D2C9A3"/>
<path d="M64.5016 22.0705C62.5974 22.3437 63.9316 23.8134 63.6596 24.6588C63.271 25.7254 63.271 26.974 63.0508 28.7039C62.2606 26.3887 62.9342 24.6588 62.7788 22.955C63.0508 22.0445 62.727 20.6398 64.3461 20.7569C64.3461 20.913 64.3461 21.1471 64.3461 21.3292C64.4368 21.5633 64.4368 21.8364 64.5016 22.0705Z" fill="#663F20"/>
<path d="M67.234 30.849C67.0138 32.5269 66.2884 33.8926 64.6045 34.738C65.5501 32.761 66.12 30.6279 66.7288 28.5469C68.076 29.1062 67.3506 30.0556 67.234 30.849Z" fill="#E1D7B9"/>
<path d="M67.2348 30.8506C67.0145 30.1222 67.455 29.2117 66.7296 28.5354C66.4575 27.1307 67.0664 25.8951 67.5197 24.6074C67.6881 26.7405 68.2581 28.8346 67.2348 30.8506Z" fill="#B9A997"/>
<path d="M18.439 13.4095C17.1437 15.6596 16.9883 18.1959 16.7033 20.6802C16.4831 22.423 17.0919 24.0619 17.2732 25.7397C17.6618 26.312 18.9442 26.312 18.452 27.5346C17.2732 30.3961 19.1256 32.4901 20.5763 34.5062C22.0919 36.6392 23.996 38.4342 25.7317 40.3591C26.0037 40.9704 25.6799 41.2045 25.1618 41.3736C23.1929 41.1005 21.3535 40.5802 19.553 39.7348C19.0478 38.8243 18.8276 37.7188 17.5841 37.4196C17.2473 37.1985 17.0142 36.9124 16.8587 36.5742C16.5219 36.0019 17.0789 35.3386 16.7033 34.7143C16.3147 33.9859 15.9779 33.1925 15.5764 32.4641C14.7862 29.4206 14.851 26.338 14.566 23.2945C14.4106 21.7727 13.4391 20.5501 13.1152 19.0674C14.7862 18.7292 16.0297 18.0008 15.4209 15.9068C15.4727 15.1784 15.7577 14.6061 16.2111 14.0468C16.6644 13.4745 16.8199 12.6421 17.5064 12.369C18.724 11.9397 18.8406 12.46 18.439 13.4095Z" fill="#EFEAAA"/>
<path d="M28.517 41.4377C28.9056 41.2816 29.2424 41.0995 29.6439 40.9824C32.4418 41.3726 35.2527 41.7758 38.0506 42.166C39.5013 42.7383 41.1335 42.0099 42.649 42.6733C41.9754 44.4682 40.5247 44.4682 39.1257 44.5332C36.4962 44.6893 33.9185 44.6893 32.7915 47.8499C32.4548 48.7604 31.561 48.8644 30.719 48.2401C30.5636 48.2401 30.3304 48.2921 30.1491 48.3572C29.4237 48.3051 28.6335 48.2401 27.9082 48.2401C27.0014 48.5132 26.4574 48.3572 26.3408 47.3296C28.1931 47.1736 27.131 45.6908 27.4678 44.8584C27.9211 43.7918 26.9626 42.3351 28.3745 41.4767L28.517 41.4377Z" fill="#FBFAFA"/>
<path d="M26.3924 47.2761C26.8976 47.5492 27.4546 47.8874 27.9597 48.1865C27.7395 48.5247 30.0841 49.136 27.8432 49.3701C27.338 49.4221 26.8328 49.7083 26.3276 49.8774C22.908 49.6042 20.1619 47.9654 17.8691 45.4942C17.921 44.0894 18.8795 44.9869 19.4365 44.8828C20.7707 44.6097 22.1308 45.4551 23.465 44.9999C24.9416 45.13 25.4468 46.4957 26.3924 47.2761Z" fill="#ECC7A1"/>
<path d="M15.0846 22.9277C16.0302 26.0883 16.0302 29.2229 15.6934 32.4876C14.0613 29.6781 13.6857 26.6346 13.9577 23.422C15.0199 24.8787 14.6313 22.9668 15.0846 22.9277Z" fill="#B8A982"/>
<path d="M12.9984 15.6056C13.3352 16.334 13.672 17.0103 13.944 17.7387C13.9959 18.8052 13.4389 18.8052 12.6487 18.4671C9.8508 14.8642 9.8508 14.422 12.1435 10.9883C13.1668 12.393 11.8327 14.2009 12.9984 15.6056Z" fill="#E8E2A5"/>
<path d="M23.4789 44.9732C21.6914 46.1568 19.6707 44.8562 17.8183 45.4805C16.4842 45.3244 15.3961 44.0758 13.9453 44.2969C13.9453 44.1408 13.9453 43.9587 13.9453 43.7246C17.2095 43.7246 20.3572 44.1798 23.4789 44.9732Z" fill="#E8DCD0"/>
<path d="M17.3641 36.5975C17.4159 36.7145 17.5195 36.8706 17.5843 36.9877C17.7397 37.7811 20.4988 37.716 18.3744 39.3028C15.6801 38.3534 13.8278 36.4414 12.2734 34.1913C12.0014 33.619 12.3252 33.5149 12.7786 33.4629C14.4107 34.3343 15.5117 36.0252 17.3641 36.5975Z" fill="#E2DBB5"/>
<path d="M18.4398 13.407C18.3232 12.8347 18.1678 12.1583 17.533 13.0688C17.1444 13.6411 17.0797 14.5255 16.0823 14.2524C16.0823 13.9792 15.9657 13.6801 16.1341 13.407C17.261 12.0673 18.375 10.6626 19.5019 9.29688C20.0719 9.57001 19.8905 10.1423 20.0071 10.5975C19.4501 11.495 18.945 12.4575 18.4398 13.407Z" fill="#DED7B4"/>
<path d="M17.364 36.599C14.5143 37.6136 14.4496 34.3489 12.7656 33.6205C12.8174 33.3474 13.219 33.3474 13.3356 33.1133C14.7345 33.1133 14.9677 35.7016 16.82 34.7521C17.4806 35.1813 17.4806 35.8447 17.364 36.599Z" fill="#6B3E28"/>
<path d="M28.4009 41.4773C28.1289 42.6088 27.7921 43.7274 27.4942 44.859C27.7662 42.999 25.1885 43.0641 25.1367 41.3602C25.2922 41.022 25.4735 40.6839 25.7067 40.3457C26.6652 40.6449 27.2999 41.6464 28.4009 41.4773Z" fill="#C8BE82"/>
<path d="M15.0845 22.9287C14.9679 23.3189 14.9291 23.7221 14.8125 24.1123C14.5405 23.8912 14.2426 23.6571 13.9705 23.436C13.854 21.9792 12.74 20.7306 12.7918 19.2088C12.8436 18.9357 13.012 18.9357 13.1804 19.0918C14.126 20.2234 15.0198 21.407 15.0845 22.9287Z" fill="#552116"/>
<path d="M23.5432 21.8365C22.1442 23.2932 20.6287 24.3597 18.3359 23.1371C19.9033 22.4087 21.4188 21.7974 22.8825 21.1211C23.2452 21.2251 23.4784 21.4463 23.5432 21.8365Z" fill="#C7BDA2"/>
<path d="M11.2111 29.6649C8.85364 28.3252 10.6412 26.2312 9.87695 23.916C11.8329 26.0101 10.8744 27.922 11.2111 29.6649Z" fill="#9D8886"/>
<path d="M23.5427 21.8368C23.3225 21.6157 23.0893 21.3815 22.8691 21.1084C24.2681 20.0419 25.7189 18.9103 27.1178 17.8438C26.6126 19.8858 25.3303 21.0694 23.5427 21.8368Z" fill="#E8E3BA"/>
<path d="M13.2722 33.1004C13.1168 33.2565 12.8836 33.4386 12.7023 33.6077C12.5468 33.7638 12.4302 33.9979 12.2489 34.18C11.3033 32.8403 9.94322 31.5396 11.122 29.6797L11.0702 29.7317C12.2748 30.5641 11.4458 32.7102 13.2722 33.1004Z" fill="#C9C0AD"/>
<path d="M12.9998 15.6076C11.4842 14.2679 12.6112 12.512 12.2096 10.9902C12.4816 9.97571 12.7796 8.97421 13.1164 8.01172C13.3884 10.548 12.3262 13.0193 12.9998 15.6076Z" fill="#DBD0CE"/>
<path d="M16.0821 13.3438C16.0821 13.6169 16.0821 13.916 16.0302 14.1892C16.0302 14.8005 16.0821 15.4898 16.0821 16.1011C15.4732 16.5564 16.3541 17.844 15.0717 17.9611C14.1779 16.1662 14.6313 14.6444 16.0821 13.3438Z" fill="#6A291F"/>
<path d="M19.9417 10.547C19.7863 10.0918 19.6049 9.70162 19.4365 9.24639C19.9417 8.23187 20.5635 7.38644 21.6256 6.54102C21.8458 8.34893 20.4469 9.24639 19.9417 10.547Z" fill="#DCD6C6"/>
<path d="M15.1369 17.9732C15.4737 17.3619 15.8105 16.7246 16.1473 16.1133C16.3675 18.3114 15.8752 19.7681 13.181 19.0918C13.0644 19.0918 12.9089 19.1438 12.7924 19.2089C12.7405 18.9877 12.7405 18.7016 12.6758 18.4805C13.181 18.4285 13.6861 18.3244 13.9711 17.7521C14.4504 17.4009 14.5151 19.1568 15.1369 17.9732Z" fill="#DED7B4"/>
<path d="M17.2608 25.7256C16.8075 24.0477 15.6287 22.4609 16.6909 20.666C17.209 22.2918 17.4292 23.9957 17.2608 25.7256Z" fill="#DED7B4"/>
<path d="M18.3877 39.2781C18.8928 39.005 19.1131 38.6018 18.5042 38.3286C17.8307 38.0555 17.3255 37.8214 17.5975 36.989C19.7866 36.8329 19.8384 38.1726 19.6053 39.7334C19.1131 39.8504 18.7245 39.6813 18.3877 39.2781Z" fill="#B3A185"/>
<path d="M30.2656 84.2414C31.5998 83.7862 31.2112 81.6011 32.9599 81.497C34.0221 81.0418 34.9288 81.38 35.8096 82.0043C38.3873 84.5926 38.7241 85.9973 37.4806 88.8197C35.6283 89.392 34.9029 87.1809 33.2708 87.1419C32.2734 86.1534 31.276 85.1909 30.2656 84.2414Z" fill="#EDCCA5"/>
<path d="M37.4938 88.7432C37.999 86.1028 36.9887 83.9047 35.2529 81.9277C35.3695 81.8757 35.4731 81.7716 35.5249 81.7066C36.1985 81.5505 36.7555 81.8236 37.3125 82.0968C37.5327 82.2138 37.7659 82.3699 37.9213 82.552C38.5949 83.3974 38.7633 84.464 38.828 85.6476C39.1001 84.1258 40.0586 82.9032 39.5016 81.3814C39.8384 80.471 40.2918 79.5215 41.2892 79.5215C42.6881 79.5735 42.1959 81.0953 42.6881 81.8887C42.7399 83.6316 40.784 84.8152 41.2892 86.7271C41.341 87.2344 41.2892 87.7416 40.8358 88.1318C40.227 89.1464 39.6052 90.1479 38.8669 91.3965C38.3747 90.369 37.9343 89.5756 37.4938 88.7432Z" fill="#AD8360"/>
<path d="M40.849 88.1686C40.7972 87.5963 40.7972 87.102 40.7324 86.5298C41.2376 84.6178 44.2168 84.7869 44.1521 82.4197C44.3075 81.8474 44.5407 81.4052 45.0588 81.119C45.4474 80.9629 45.849 80.9629 46.2894 81.119C46.5096 81.2361 46.7427 81.4572 46.8982 81.6913C47.3515 82.6408 47.7401 83.6683 47.5717 84.7349C46.665 84.6178 46.2764 85.3071 45.836 85.8664C44.7091 85.5282 44.3205 86.4777 43.7117 87.1151C42.9863 87.6873 42.3775 88.3507 41.9759 89.1961C41.134 89.3002 41.6392 88.0645 40.849 88.1686Z" fill="#F0D0AA"/>
<path d="M47.5579 84.7489C46.7159 83.9555 46.7159 82.889 46.6123 81.8224C47.0009 80.8079 48.0113 80.1446 48.348 79.013C48.6848 77.8814 48.9568 76.6978 49.747 75.9174C48.4517 76.1385 48.4128 77.3221 48.0113 78.2846C47.7911 78.6228 47.4413 78.8569 47.0009 78.6748C46.0553 75.6313 47.1563 72.9259 49.8506 71.8594C50.0708 71.8594 50.304 71.9114 50.5242 71.9114C51.5345 73.4332 51.6511 75.2281 51.975 76.9059C52.0268 77.3612 51.9231 77.8164 52.0915 78.2456C52.3117 78.5187 52.3636 78.8179 52.4283 79.091C52.2081 80.1576 50.6408 80.5478 50.9128 81.9525C49.9024 81.4452 49.2418 81.7964 48.7885 82.7459C48.4646 83.4482 48.5294 84.3977 47.5579 84.7489Z" fill="#D8B491"/>
<path d="M52.4934 79.1818C52.338 79.0257 52.2214 78.7916 52.04 78.6095C52.1955 76.9707 52.5452 75.4099 52.4286 73.771C52.3768 73.0427 52.2084 71.9111 53.6592 72.4704C54.3328 73.4199 53.9312 75.0587 55.5634 75.3318C55.2266 76.1773 55.7836 76.9056 55.952 77.699C54.8898 77.9722 55.1618 76.7496 54.4364 76.5675C54.1903 77.699 54.5789 79.4029 52.4934 79.1818Z" fill="#D6B89E"/>
<path d="M30.7061 48.2256C31.3149 48.1736 32.2216 48.3427 32.3382 47.4973C32.7915 43.6733 35.706 43.9595 38.4003 43.7253C39.6309 43.6083 41.0298 44.0635 42.0402 42.8799C40.7449 42.1515 39.2423 43.1531 38.0635 42.1515C39.8511 42.0995 41.7034 42.0345 43.491 41.9955C43.9961 41.7223 44.5531 41.8394 45.1231 41.8394C45.6282 41.8394 46.3018 41.7223 46.5738 42.3466C46.9106 43.023 46.522 43.5823 46.0687 44.0895C46.0687 44.0895 46.0168 44.2456 45.9132 44.2456C43.4003 45.1561 42.3252 47.2241 41.7034 49.6433C39.2811 50.3197 36.82 49.3052 34.4236 49.7994C33.0247 49.9165 31.7941 49.5783 30.719 48.6678C30.7579 48.5638 30.7579 48.4077 30.7061 48.2256Z" fill="#ECECEC"/>
<path d="M48.1282 44.2982C49.0349 44.4153 50.1359 43.843 50.7059 44.8055C51.2758 45.872 50.1359 46.4833 49.5271 47.0556C48.1282 48.3563 48.9572 50.0992 48.6204 51.5559C48.465 51.5559 48.2836 51.5559 48.167 51.5559C47.7784 51.2177 47.3769 50.8275 46.9883 50.4894C46.3795 50.2162 46.0816 49.761 45.9261 49.1497C45.6152 47.0426 45.7318 45.1307 48.1282 44.2982Z" fill="#EEEFEF"/>
<path d="M35.2393 67.4752C35.2393 66.8639 35.7444 66.1356 36.1848 66.4087C38.2574 67.5923 40.4335 66.2526 42.519 66.8639C42.791 68.0996 41.9491 69.1141 42.0138 70.2977C41.8584 70.87 41.4439 71.1431 40.8869 71.3122C40.4335 71.7024 40.0449 73.8355 39.4361 71.5853C39.0993 70.4017 38.4258 70.2847 37.5838 69.9465C36.8196 69.1011 35.5242 68.7759 35.2393 67.4752Z" fill="#976C4E"/>
<path d="M44.2557 65.668C45.2012 65.0957 45.5898 64.0942 46.1598 62.6895C46.3152 63.6389 46.4318 64.0291 46.4966 64.4844C47.5069 66.7345 46.8334 69.0497 46.38 71.2348C46.108 72.4704 45.538 73.602 43.8671 72.7566C43.7505 72.6395 43.6469 72.5354 43.5303 72.4184C44.5536 70.2333 45.3308 68.1002 44.2557 65.668Z" fill="#5A130E"/>
<path d="M37.9991 58.4239C38.1157 58.0857 38.2711 57.8516 38.2193 57.7476C37.8307 56.681 37.4939 55.6665 38.4395 54.7691C38.5949 54.613 39.2296 54.613 39.3851 54.717C40.4472 55.7316 40.2918 57.0842 40.1752 58.3719C40.1752 58.489 40.1234 58.593 40.0587 58.645C39.3851 59.3214 40.2141 61.1683 38.7633 60.9602C37.6493 60.7781 38.2711 59.1913 37.9991 58.4239Z" fill="#B88D6B"/>
<path d="M37.2737 69.7261C38.4525 69.8432 40.4602 68.6596 39.7348 71.469C39.6183 71.9243 39.7866 71.9763 40.9136 71.3129C40.9136 71.7031 40.9136 72.0413 40.9654 72.4445C39.5146 75.1889 37.4421 73.6931 35.538 73.355C35.2659 73.1339 35.2012 72.8997 35.3825 72.5616C36.5095 72.5616 37.3903 72.3405 36.9499 70.8837C36.5872 70.3375 36.4836 69.8432 37.2737 69.7261Z" fill="#5B1610"/>
<path d="M31.2114 65.1233C31.4835 64.447 30.9394 63.4845 31.885 62.9902C32.7917 63.9397 33.0638 65.1883 33.5171 66.3719C32.5715 68.2319 33.5171 70.0268 33.6726 71.8217C33.7244 72.8882 33.1026 72.7712 32.3772 72.6151C31.1596 70.1699 30.3695 67.7506 31.2114 65.1233Z" fill="#612017"/>
<path d="M35.2398 73.0422C37.0921 72.4699 39.1516 74.2909 40.9003 72.4309C41.8071 72.4309 42.6879 72.4309 43.5946 72.4309L43.7112 72.3789C44.2811 73.9527 42.9858 74.0568 42.0791 74.577C40.0713 75.1883 37.9858 75.4875 35.9781 74.525C35.4211 74.1608 35.0714 73.7186 35.2398 73.0422Z" fill="#EAC7A0"/>
<path d="M34.1259 49.3581C36.7036 49.3581 39.3331 49.3061 41.9108 49.3061C42.0663 49.15 42.2994 49.085 42.5196 49.2541C42.6751 49.4752 42.6751 49.6443 42.5714 49.8654C40.4471 50.1385 38.3616 50.8799 36.1855 49.9824C35.0585 49.5272 34.5534 51.114 33.5559 50.9319C32.999 50.1515 33.5171 49.6963 34.1259 49.3581Z" fill="#C0927E"/>
<path d="M33.4524 66.3446C32.4421 65.4341 31.8203 64.3286 31.8203 62.9629C31.8203 62.7418 31.8203 62.5727 31.8203 62.3516C34.6312 62.7418 34.5794 64.3286 33.4524 66.3446Z" fill="#C49E79"/>
<path d="M46.9495 53.2463C48.8536 52.3359 48.7371 53.6365 48.6205 54.8852C48.465 55.1063 48.2837 55.3924 48.1153 55.6135C47.0531 55.0412 45.5376 57.0703 44.6309 55.0412C45.434 54.4169 46.1853 53.8576 46.9495 53.2463Z" fill="#EBE8E6"/>
<path d="M28.9707 53.2858C29.4241 52.3363 30.0976 52.8956 30.6417 53.1297C31.3671 53.741 32.0924 54.3133 32.8308 54.9246C32.2608 56.2253 31.924 56.2253 29.7479 55.0807C29.0873 54.7035 29.0225 53.9751 28.9707 53.2858Z" fill="#EAE3E3"/>
<path d="M34.1268 49.3599C33.9713 49.8672 33.7382 50.4265 33.5568 50.9337C31.7045 51.3239 30.5905 50.8167 30.7589 48.6836C31.8859 48.8657 33.1164 48.6316 34.1268 49.3599Z" fill="#B88D72"/>
<path d="M42.584 49.8672C42.584 49.7501 42.584 49.594 42.584 49.477C43.1539 48.6836 43.9182 48.6836 44.7083 48.6836C45.3819 48.6836 45.9389 48.9567 46.4441 49.3599C46.5995 49.7501 46.7809 50.1533 46.9493 50.4915C45.1617 52.6246 43.9829 50.3224 42.584 49.8672Z" fill="#A06656"/>
<path d="M37.2734 69.7281C37.1569 70.1183 37.0014 70.4564 36.8848 70.8596C35.2139 70.2874 34.8123 69.1168 35.2527 67.543C36.0299 68.1413 37.8822 67.8031 37.2734 69.7281Z" fill="#5A130C"/>
<path d="M29.8135 55.1072C30.8238 54.9512 31.9378 56.4469 32.8964 54.9512C33.9067 55.1723 33.9067 56.0827 34.3471 57.3834C32.728 56.0567 30.6425 57.1233 29.8135 55.1072Z" fill="#430605"/>
<path d="M44.6705 55.043C45.6809 56.1095 47.0928 54.8219 48.1549 55.6153C47.2482 56.6298 45.914 56.2916 44.7871 56.7989C44.3985 57.02 43.9969 57.072 43.6602 56.6818C44.0358 56.1095 44.3208 55.5372 44.6705 55.043Z" fill="#56171A"/>
<path d="M36.4185 59.9844C36.0818 61.7273 36.302 63.145 34.9678 64.1465C35.5766 62.9239 34.2424 61.285 36.4185 59.9844Z" fill="#C6A27C"/>
<path d="M43.7116 56.6675C44.1002 56.7195 44.4369 56.7195 44.8385 56.7846C44.5017 58.5795 42.8696 57.5129 41.9888 58.0852C41.937 57.8641 41.7168 57.5129 41.7686 57.4089C42.1313 56.4984 42.753 56.1082 43.7116 56.6675Z" fill="#C39F83"/>
<path d="M35.2393 73.0441C35.3948 73.3823 35.5761 73.7725 35.8093 74.1107C35.6927 74.5009 35.4725 74.787 35.0191 74.839C34.1124 74.1107 32.558 74.0456 32.4414 72.4068C33.0114 72.4588 33.387 72.2507 33.6202 71.7305C34.1901 71.9516 34.7471 72.2377 35.2523 72.4588C35.3041 72.706 35.3041 72.875 35.2393 73.0441Z" fill="#7F5140"/>
<path d="M41.9754 70.2716C41.25 68.6328 41.25 68.6328 42.5453 66.8379C43.193 68.0345 43.193 68.0345 41.9754 70.2716Z" fill="#4A0A03"/>
<path d="M32.455 72.432C33.2452 73.3424 34.5794 73.5635 35.1882 74.6301C35.6415 74.7861 35.9783 75.1373 36.3151 75.5405C36.8203 76.2169 37.3773 76.8802 37.7659 77.6736C37.9213 78.3499 37.8825 78.9743 37.1959 79.3514C35.0068 79.2344 34.0483 77.1533 32.4291 76.1909C32.1571 76.412 31.8203 76.581 31.4188 76.464C30.2918 75.4495 30.4732 74.0318 30.2918 72.7441C30.4473 71.3394 30.4473 69.9997 29.683 68.6991C29.5276 68.6991 29.2944 68.6991 29.1131 68.6991C27.5457 66.1758 29.5665 65.7206 31.1856 64.9922C31.6001 67.5285 32.0535 69.9607 32.455 72.432Z" fill="#B08663"/>
<path d="M25.0977 71.248C25.4863 70.6367 25.8231 70.0644 26.2247 69.4531C27.1314 70.8578 27.1702 72.4967 27.4034 74.1225C27.1832 74.8509 26.95 75.5792 26.7298 76.3206C25.0589 76.4377 25.4993 75.137 25.3309 74.2395C25.0977 73.2771 24.8775 72.2495 25.0977 71.248Z" fill="#8B5A3F"/>
<path d="M29.087 70.1155C29.087 69.6602 29.087 69.205 29.1388 68.7758L29.2554 68.6197C29.8642 67.9434 30.3823 68.3986 30.3823 68.9579C30.4341 70.0895 30.8357 71.156 30.4341 72.2746C30.3823 72.8468 30.5507 73.4582 29.8253 73.6793C29.5533 73.6793 29.2554 73.5622 29.0352 73.3411C28.245 72.2485 28.517 71.182 29.087 70.1155Z" fill="#E9C9A2"/>
<path d="M29.0866 70.1172C29.0348 71.3008 28.97 72.4844 29.5918 73.616C29.6436 75.632 29.4363 75.9311 28.2576 75.4759C28.3094 73.8371 27.9208 72.1592 28.5296 70.5204C28.7498 70.3903 28.9182 70.2342 29.0866 70.1172Z" fill="#CDA37F"/>
<path d="M28.5173 70.5059C28.5173 72.2487 28.5173 74.0046 28.5691 75.7345C28.7245 76.1898 28.5691 76.3458 28.1157 76.3068C28.0639 75.5784 27.9603 74.8501 27.8955 74.1087C28.0639 72.9251 27.6364 71.5724 28.5173 70.5059Z" fill="#7C4930"/>
<path d="M28.1276 76.2945C28.283 76.1384 28.3996 75.9043 28.581 75.7222C29.4229 75.267 28.6328 73.9793 29.6431 73.5891L29.7597 73.5371C31.0939 75.7872 32.2727 78.1024 31.3918 80.9118C30.1613 82.3686 30.0965 79.9624 29.2027 80.3005C28.853 78.8828 27.7908 77.7642 28.1276 76.2945Z" fill="#936146"/>
<path d="M25.0981 71.248C26.4971 72.6528 24.593 75.137 26.7691 76.3076C26.6525 77.153 27.2743 78.1025 26.4323 78.7788C26.3157 78.8959 25.5904 78.2716 25.137 77.9854C24.295 76.7498 25.1888 75.3451 24.5671 74.0575C24.3209 73.095 23.9323 72.0284 25.0981 71.248Z" fill="#B08060"/>
<path d="M31.7033 76.5291C31.9235 76.308 32.1566 76.0219 32.3768 75.8008C33.3872 77.8168 35.6281 79.2995 35.2265 81.9919L35.2784 81.9399C34.4882 81.7838 33.7628 81.6017 32.9727 81.4326C32.9727 80.9774 32.9209 80.5222 32.4675 80.3011C31.4312 79.1825 30.3691 78.1159 31.7033 76.5291Z" fill="#A98567"/>
<path d="M31.7033 76.5289C30.7577 77.9856 32.1566 79.0522 32.4287 80.3008C32.2085 80.756 31.8199 80.8731 31.3665 80.8731C30.7965 78.4018 30.3043 75.9696 29.7344 73.4983C29.8898 73.1602 30.0712 72.822 30.2396 72.4838C30.395 72.3278 30.6282 72.2627 30.8484 72.4318C31.1592 73.7715 31.4313 75.1762 31.7033 76.5289Z" fill="#F7D5AB"/>
<path d="M41.9102 74.1093C42.2988 73.3159 43.6978 73.6021 43.6978 72.4315C44.8765 72.8217 45.6667 72.5485 45.8221 71.1959C46.0423 68.9977 46.3273 66.7476 46.5475 64.5625C48.1149 65.512 50.3558 66.1363 48.7366 68.7896C47.8299 71.495 47.1045 74.2394 46.7289 77.0618C46.6771 77.5691 46.7807 78.2454 45.9387 78.2454C45.3299 77.8552 45.1486 77.2309 45.032 76.5676C44.9802 76.2944 45.0838 75.9953 45.032 75.7221C44.9802 75.449 44.9154 75.5661 44.76 75.8392C44.2548 76.7887 44.0346 78.4795 42.2988 77.1399C42.0268 76.6846 41.9102 76.1904 41.7937 75.6831C41.7419 75.0718 41.6382 74.5646 41.9102 74.1093Z" fill="#AB7F5D"/>
<path d="M46.0681 78.2203C46.5214 75.4109 46.9748 72.5884 47.5189 69.8441C47.6354 69.3888 46.91 67.3728 48.8142 68.7125C49.423 69.662 50.0447 70.6244 49.8763 71.8731C50.0965 73.5509 47.6354 73.1087 47.6354 74.9686C47.6354 76.1522 47.0266 77.4009 47.1303 78.7406C47.7391 79.8071 47.1303 80.6525 46.5214 81.4849C46.1329 81.4849 45.7313 81.4849 45.3427 81.4849C45.1873 81.2638 45.0059 81.0297 44.9541 80.8086C44.8893 79.7421 45.0448 78.7796 46.0681 78.2203Z" fill="#E5C09A"/>
<path d="M51.6126 77.4258C51.1074 75.6309 50.4338 73.888 50.5504 71.976C51.4572 71.4687 50.5504 69.96 51.6126 69.7259C52.4545 69.5698 52.5193 70.6753 52.7913 71.2997C52.338 72.6003 52.6359 73.888 52.7913 75.1236C52.8302 76.1381 52.9468 77.1526 51.6126 77.4258Z" fill="#87503B"/>
<path d="M51.6131 77.4249C52.4033 76.6315 52.5198 75.7861 52.2219 74.6805C52.0017 73.549 51.6131 72.2483 52.7271 71.2988C52.9991 71.689 53.3359 72.0922 53.6338 72.4304C52.4033 72.7035 53.1805 73.614 53.1805 74.2253C53.1286 75.7991 53.1805 77.3209 52.0017 78.6085C51.7297 78.7256 51.1597 78.9467 51.1597 78.8817C50.8877 78.2704 51.4318 77.8802 51.6131 77.4249Z" fill="#AB7D5A"/>
<path d="M44.7094 49.2936C43.984 49.3456 43.2586 49.4107 42.5203 49.4497C42.3001 49.3977 42.0669 49.3326 41.9115 49.2936C41.1214 47.0435 40.9659 45.1315 44.0358 44.5722C44.9814 44.4161 46.3415 43.7788 46.1084 42.7123C45.8881 41.4116 44.3208 42.4391 43.4788 41.9839C43.5954 41.8669 43.6343 41.7108 43.7509 41.5937C44.9814 42.0489 46.7172 40.5792 47.6239 42.5432C48.0125 43.2195 47.7793 43.8829 47.4037 44.3381C46.0047 45.7038 45.4996 47.5637 44.7094 49.2936Z" fill="#CBCACA"/>
<path d="M44.7088 49.294C44.1 47.7722 45.0455 46.7056 45.7709 45.5221C46.3797 44.5075 47.5585 43.8442 47.6232 42.4785C47.7787 42.8167 48.0118 43.2069 48.1932 43.5451C48.1932 43.7662 48.1414 44.0003 48.1414 44.2214C46.6906 45.6261 46.2372 47.317 46.4704 49.2809C45.8875 49.294 45.3305 49.294 44.7088 49.294Z" fill="#B3ADAD"/>
<path d="M42.5321 76.9699C43.4777 77.4251 43.8274 76.7488 44.0476 76.0594C44.3196 75.214 44.501 74.3166 45.4465 73.8613C46.2367 74.7718 45.4984 75.6042 45.3947 76.3846C45.8481 77.8414 45.1745 79.0249 44.5528 80.2085C44.0476 80.8199 43.646 81.5092 43.1538 82.0685C42.8818 82.1856 42.6486 82.1856 42.4284 81.9514C40.7963 81.8994 41.9233 80.6118 41.5865 79.7533C40.8611 80.3646 40.2523 80.8849 39.6823 81.3922C39.4621 81.2361 39.2937 81.002 39.1772 80.7158C38.957 79.5842 38.7886 78.4657 39.6305 77.5162C40.7316 77.8804 41.6383 77.2691 42.5321 76.9699Z" fill="#DFB993"/>
<path d="M35.2403 81.9905C34.515 79.8574 32.4424 78.2706 32.3906 75.7994C32.6108 75.4092 32.9606 74.2256 32.9994 74.6678C33.3362 77.139 35.9657 77.4122 36.8725 79.1681C36.7559 79.7403 36.717 80.2996 36.9243 80.8459C37.0797 81.4182 37.4942 82.0295 36.8077 82.5238C36.3673 82.2116 35.9139 81.8084 35.2403 81.9905Z" fill="#F2CDA6"/>
<path d="M42.4688 81.9921C42.689 81.9921 42.9221 81.9401 43.1423 81.9401C44.4376 80.3013 44.2693 82.2132 44.7744 82.5514C45.0465 85.4779 42.0802 85.1397 40.746 86.4794C39.8522 84.4634 42.0931 83.5659 42.4688 81.9921Z" fill="#E6C49E"/>
<path d="M39.6709 80.9764C39.619 81.1325 39.6709 81.2495 39.7227 81.4316C41.5102 83.5127 38.9325 84.9304 38.8159 86.7643C38.3626 85.3596 37.8704 83.9549 37.417 82.5372C37.8056 81.9649 38.4273 81.6918 38.8159 81.1325C39.0621 80.9244 39.3341 80.6382 39.6709 80.9764Z" fill="#5A0E0A"/>
<path d="M39.0999 81.3674C39.1517 82.707 38.1543 82.4339 37.3642 82.551C37.2087 82.551 36.9756 82.551 36.7942 82.551C36.6388 81.9787 36.4575 81.4194 36.2891 80.8731C37.2735 80.9772 38.5559 79.2213 39.0999 81.3674Z" fill="#845439"/>
<path d="M46.458 81.4313C46.6782 80.5208 46.8466 79.6364 47.0668 78.6869C47.2223 78.4658 47.4036 78.2317 47.5202 78.0105C48.2456 77.7374 48.4658 78.1276 48.4658 78.7389C48.7378 80.3127 47.7922 81.1061 46.5616 81.7825C46.5616 81.6524 46.5616 81.5353 46.458 81.4313Z" fill="#773B26"/>
<path d="M44.7734 82.5381C44.2682 82.265 44.048 81.2374 43.1413 81.9268C43.0247 81.1334 42.9858 80.405 44.048 80.288C44.7216 79.7807 44.9547 80.405 45.2786 80.7952C45.2786 81.0163 45.2786 81.1854 45.2786 81.4065C44.8252 81.6536 44.8252 82.1089 44.7734 82.5381Z" fill="#BE9B79"/>
<path d="M48.4651 78.7779C48.1283 78.5568 47.8563 78.2707 47.5195 78.0496C47.1827 76.3717 48.9184 75.7344 49.592 74.5508C49.8252 76.0856 49.864 77.5943 48.4651 78.7779Z" fill="#744229"/>
<path d="M41.9105 74.1094C42.1307 74.4996 42.2991 74.9028 42.5193 75.293C41.9105 75.8002 41.1851 76.0213 40.395 76.0213C39.3846 76.0213 38.3225 76.0213 37.3121 75.9693C36.7422 75.9693 36.2499 75.4621 35.68 75.8132C35.2266 75.5921 35.1748 75.1369 35.1748 74.6817C35.395 74.5256 35.5634 74.3435 35.7836 74.1744C37.8173 74.4475 39.8898 74.5646 41.9105 74.1094Z" fill="#C9AB94"/>
<path d="M39.0998 81.3661C38.3097 80.3516 37.1309 81.4831 36.3019 80.8588C35.4599 79.9484 35.6283 79.4021 36.8719 79.181C37.662 78.7908 37.4418 78.1144 37.4418 77.5031C37.7138 77.282 38.0506 77.23 38.3485 77.1129C38.9185 76.7227 39.2553 75.9814 40.1361 76.2025C40.6413 76.4756 41.0428 76.8138 40.8615 77.4511C40.8096 77.7243 40.4729 77.6722 40.2527 77.5682C39.4107 78.6347 39.9806 79.9354 39.7475 81.106C39.5143 81.145 39.333 81.249 39.0998 81.3661Z" fill="#D8B790"/>
<path d="M30.8747 72.433C30.6545 72.433 30.4213 72.485 30.2659 72.485C29.5405 71.3014 31.4447 69.4415 29.3203 68.596C29.5923 67.9197 30.3825 67.0222 30.5509 68.0237C30.8229 69.3894 31.6649 70.9112 30.8747 72.433Z" fill="#CDA37F"/>
<path d="M38.672 77.9977C38.2834 77.8416 37.8819 77.6595 37.4415 77.4254C36.2109 77.5425 36.5348 76.0207 35.7705 75.6825C36.0425 75.2273 36.4959 75.1753 37.0011 75.2273C38.2705 75.7475 39.4492 76.2418 38.672 77.9977Z" fill="#AC876D"/>
<path d="M40.1745 77.4923C40.8998 76.764 39.9543 76.6989 39.7211 76.3607C39.3843 75.7885 39.8765 75.5673 40.2263 75.2942C41.0164 75.2942 41.7418 75.2942 42.532 75.2422C42.532 75.8145 42.532 76.3738 42.532 76.92C41.9232 77.5964 41.405 78.3768 40.5242 78.7149C40.4594 78.3377 40.2781 77.8825 40.1745 77.4923Z" fill="#8C6856"/>
<path d="M45.2784 80.8064C44.8898 80.6503 44.4364 80.4682 44.0479 80.2991C44.5012 78.9985 44.9546 77.7108 45.382 76.4102C45.9908 76.8654 45.8354 77.6588 45.9908 78.2701C45.7706 79.1155 45.5504 79.9479 45.2784 80.8064Z" fill="#9F7558"/>
<path d="M40.2403 75.293C40.0848 75.6311 39.9035 76.0213 39.7351 76.3595C39.1263 76.7497 39.6185 77.8813 38.6729 78.0374C38.9449 76.5806 37.831 76.0213 37.002 75.293C38.0382 75.293 39.1652 75.293 40.2403 75.293Z" fill="#4F0806"/>
</svg>
