<svg width="128" height="73" viewBox="0 0 128 73" fill="none" xmlns="http://www.w3.org/2000/svg">
<path d="M65.7175 40.143C64.8099 39.2466 64.3129 38.0727 64.3129 36.8775V35.6823C64.3129 34.4871 64.8099 33.3133 65.7175 32.4169L78.6398 19.7606C80.4333 17.9891 80.4333 15.0011 78.6398 13.2297L66.9276 1.55515C65.134 -0.216301 62.1087 -0.216301 60.3152 1.55515L48.603 13.2297C46.8094 15.0011 46.8094 17.9891 48.603 19.7606L61.4172 32.4169C62.3248 33.3133 62.8218 34.4871 62.8218 35.6823V36.8775C62.8218 38.0727 62.3248 39.2466 61.4172 40.143L48.603 52.7993C46.8094 54.5707 46.8094 57.5587 48.603 59.3302L60.3152 70.898C62.1087 72.6694 65.134 72.6694 66.9276 70.898L78.6398 59.4155C80.4333 57.6441 80.4333 54.6561 78.6398 52.8846L65.7175 40.143Z" fill="white"/>
<path d="M57.0084 33.0136L45.1881 21.4458C43.3946 19.6743 40.3693 19.6743 38.5757 21.4458L25.7615 34.1021C23.9679 35.8735 20.9426 35.8735 19.149 34.1021L12.6231 27.6779C10.8295 25.9064 7.80421 25.9064 6.01065 27.6779L0.694782 32.9282C-1.09878 34.6997 -1.09878 37.6877 0.694782 39.4591L6.01065 44.7094C7.80421 46.4809 10.8295 46.4809 12.6231 44.7094L19.1274 38.2853C20.921 36.5138 23.9463 36.5138 25.7398 38.2853L38.5541 51.155C40.3477 52.9264 43.373 52.9264 45.1665 51.155L56.8787 39.5872C58.8019 37.773 58.8019 34.785 57.0084 33.0136Z" fill="white"/>
<path d="M121.23 27.7651C119.437 25.9936 116.412 25.9936 114.618 27.7651L108.114 34.1893C107.206 35.0857 106.018 35.5765 104.807 35.5765H104.699C103.489 35.5765 102.301 35.0857 101.393 34.1893L88.579 21.4262C86.7854 19.6548 83.7601 19.6548 81.9665 21.4262L70.2544 32.9941C68.4608 34.7655 68.4608 37.7535 70.2544 39.525L81.9665 51.0928C83.7601 52.8642 86.7854 52.8642 88.579 51.0928L101.501 38.4365C102.409 37.5401 103.597 37.0492 104.807 37.0492H104.916C106.126 37.0492 107.314 37.5401 108.222 38.4365L114.726 44.8607C116.52 46.6321 119.545 46.6321 121.338 44.8607L126.654 39.6103C128.448 37.8389 128.448 34.8509 126.654 33.0794L121.23 27.7651Z" fill="white"/>
</svg>
