<svg width="84" height="103" viewBox="0 0 84 103" fill="none" xmlns="http://www.w3.org/2000/svg">
<path d="M13.9897 39.9287C15.9821 39.7606 17.806 40.3069 19.4336 41.2033C31.2475 47.562 43.0473 54.2569 53.7527 62.6044C57.7515 65.4897 58.2987 69.5094 59.0143 73.6692C59.1826 74.9437 58.4671 76.0362 57.3867 76.5544C52.1252 79.8178 46.8496 83.0812 41.5881 86.3446C40.3113 87.0729 38.8662 87.241 38.319 85.6163C35.2182 78.3612 28.8903 75.0978 22.6887 71.2882C17.0484 67.8567 11.6045 64.3832 5.99219 61.3159C-1.64052 57.3522 -0.910926 53.5426 2.56869 46.6656C4.56105 42.1277 9.27537 40.489 13.9897 39.9287Z" fill="#1DA7F8"/>
<path d="M24.498 3.03711C33.2111 7.74313 41.9523 12.6592 50.1181 18.2616C58.1016 23.696 66.6463 28.2339 74.8402 33.3181" fill="#2FF3FA"/>
<path d="M83.1614 53.6573C75.5147 49.3014 67.3909 45.8559 60.123 40.7717C46.1484 31.1496 30.8689 23.3483 16.7119 14.1043C13.8216 12.1154 10.342 11.009 8.89683 7.39541C7.99887 5.58863 6.35727 6.13487 4.91211 5.9668" fill="#2FF3FA"/>
<path d="M5.22104 5.96481C4.46338 5.90879 6.77845 4.11602 7.36774 3.62581C12.3206 -0.730064 18.0171 -1.19226 24.7939 2.40728C33.507 7.1133 42.2481 12.0294 50.4 17.6318C58.3834 23.0662 66.4651 27.8562 74.617 32.9404C80.4397 36.582 82.404 39.3551 83.6808 45.6859C84.0035 47.6467 84.1999 50.2238 83.6808 51.8905C83.5124 52.4368 83.6808 54.0895 83.1897 53.7953C75.8657 49.7196 67.3631 44.9576 60.4179 40.0975C46.4433 30.4893 31.1638 22.688 17.0068 13.444C14.1165 11.4552 10.6369 10.3487 9.19174 6.73514C8.64454 5.72671 6.03482 6.04885 5.22104 5.96481Z" fill="#2FF3FA"/>
<path d="M5.43066 5.29092C6.87582 5.459 9.10671 4.68866 9.86437 6.50945C11.3095 10.151 15.0698 10.9353 17.9741 12.9242C32.1592 22.3362 46.681 29.9415 60.866 39.3535C68.3023 44.4377 75.7386 48.0513 83.3853 52.5892C83.7641 54.9562 82.8662 58.2476 81.421 60.0684C81.2526 60.4466 80.8738 60.6147 80.6914 60.9648C77.0434 61.6931 74.8687 59.5222 72.1607 57.7014C60.1785 49.9001 47.6491 43.0231 35.4704 35.5719C27.3045 30.4877 19.293 25.2355 10.5799 20.6975C6.93195 18.8768 4.20999 16.1596 0.772461 14.1707C1.95104 10.9213 2.32987 7.48987 5.43066 5.29092Z" fill="#1BE7F4"/>
<path d="M0.912819 13.7656C4.35034 15.7545 7.0723 18.4716 10.7203 20.2924C19.251 24.8304 27.4168 30.0826 35.6108 35.1668C47.7894 42.8001 60.3329 49.495 72.3011 57.2963C75.0231 59.1171 77.3942 61.288 80.8318 60.5597C77.0154 65.6439 71.0243 67.4647 66.1276 71.2463C64.5 72.5208 64.3036 70.7001 64.1352 69.6216C62.8584 61.4701 57.9757 56.3859 51.0586 52.1981C36.8735 44.2287 23.4461 35.531 9.63992 27.1834C8.19476 26.287 6.53914 25.3626 5.09397 24.4662C-0.181577 21.525 -0.714744 19.9143 0.912819 13.7656Z" fill="#0EDDED"/>
<path d="M12.8949 101.795C4.91145 103.784 -2.00569 90.8982 0.53387 84.5675C3.97139 76.2199 6.90381 74.049 14.1717 74.2311C16.8937 74.3991 19.6156 75.8558 21.0889 77.1163C25.256 80.9259 32.5239 81.8223 33.0711 89.0774C33.0711 89.9738 33.8007 90.8982 32.6923 91.2484C27.2484 93.2372 23.432 97.9572 18.1705 100.492C16.5429 101.795 14.7189 101.963 12.8949 101.795Z" fill="#4C71FD"/>
</svg>
