<svg width="80" height="86" viewBox="0 0 80 86" fill="none" xmlns="http://www.w3.org/2000/svg">
<path d="M0 42.9015C0.302746 32.3587 3.83478 22.8013 11.1007 14.7218C17.2565 7.92323 24.9261 3.39084 34.0084 1.22318C36.4304 0.631994 38.8524 0.336403 41.3753 0.139343C42.7881 0.0408125 44.1 -0.0577177 45.5128 0.0408126C51.3659 0.434934 57.0171 1.51877 62.3656 3.98202C66.5031 5.8541 70.237 8.21882 73.5672 11.1747C73.9709 11.4703 73.9709 11.6674 73.5672 12.0615C71.3471 14.0321 69.026 16.0027 66.8059 17.9733C66.5032 18.2689 66.3013 18.2689 65.9986 17.9733C61.4574 14.1306 56.3107 11.6674 50.4576 10.5835C39.3569 8.61294 29.5682 11.2733 21.1922 18.663C15.7428 23.491 12.3117 29.5014 10.8988 36.497C9.99061 40.6353 9.99061 44.675 10.7979 48.8133C13.3208 60.9325 20.4858 69.209 32.192 73.84C35.6231 75.2194 39.1551 75.8106 42.7881 75.9091C51.9714 76.2047 59.9437 73.2488 66.705 67.2384C68.2187 65.859 69.6315 64.3811 70.8425 62.7061C71.1452 62.3119 71.3471 62.2134 71.7507 62.509C74.3745 63.9869 76.9983 65.4649 79.6221 66.9428C80.0258 67.1399 80.1267 67.337 79.824 67.7311C73.9709 75.712 66.3013 81.1312 56.7144 84.0871C53.4851 85.0724 50.1549 85.5651 46.8247 85.8607C45.21 85.9592 43.6963 86.0577 42.0817 85.9592C36.2286 85.5651 30.5773 84.3827 25.3297 81.9194C20.0821 79.4562 15.44 76.2047 11.5043 71.9679C5.954 65.9575 2.32105 58.9619 0.706408 50.981C0.403662 49.4045 0.302746 47.828 0 46.153C0 45.2662 0.100915 44.1824 0 42.9015Z" fill="#F2931D"/>
<path d="M58.9345 38.9607C63.9802 38.9607 68.9251 38.9607 73.9708 38.9607C74.3745 38.9607 74.5763 38.9607 74.6772 39.5519C75.6864 49.2078 72.7598 57.6814 65.6958 64.5786C60.3473 69.8007 53.6869 72.7566 46.1182 73.2492C37.4395 73.7419 29.669 71.1801 23.2104 65.3668C17.0546 59.8491 13.6235 52.8535 13.3208 44.6755C12.9171 35.7092 16.0455 27.9253 22.605 21.6194C28.2562 16.2002 35.1184 13.4414 42.9898 13.1458C50.7603 12.8502 57.5216 15.2149 63.5766 19.9444C64.283 20.437 64.283 20.5355 63.5766 21.0282C61.861 22.6047 60.0445 24.1812 58.329 25.7576C57.9253 26.0532 57.7235 26.1518 57.3198 25.8562C53.3841 22.9988 48.9438 21.5208 44.0999 21.5208C33.302 21.2253 23.8159 29.1077 22.1004 39.5519C20.183 50.9814 27.8525 61.9182 39.4578 64.3815C51.3658 66.8448 62.9711 59.6521 65.7967 48.0255C65.9985 47.3358 65.9985 47.3358 65.1912 47.3358C58.228 47.3358 51.3658 47.3358 44.4027 47.3358C42.6871 47.3358 41.2743 46.7446 40.2651 45.2666C39.3569 43.8872 39.3569 42.4093 40.2651 41.0298C41.0724 39.6504 42.3843 38.9607 44.0999 38.9607C49.0448 38.9607 53.9896 38.9607 58.9345 38.9607Z" fill="white"/>
<path d="M56.3107 35.0186C54.9988 35.0186 53.6869 35.0186 52.2741 35.0186C51.8705 35.0186 51.5677 34.92 51.265 34.6244C47.7329 31.8656 43.8982 31.1759 39.7606 32.9494C35.6231 34.6244 33.3021 37.8759 32.8984 42.2113C32.4947 46.6451 34.9167 50.8819 39.0542 52.8525C43.3936 54.9217 47.632 54.429 51.3659 51.4731C51.6686 51.2761 51.8705 51.1775 52.2741 51.1775C54.9988 51.1775 57.8245 51.1775 60.5492 51.1775C61.1547 51.1775 61.1547 51.1775 60.8519 51.7687C57.8245 57.1879 53.0814 60.4394 46.8247 61.4247C36.935 63.0012 27.3481 56.3011 25.5316 46.7437C23.6142 36.9892 29.5682 27.6288 39.4579 25.2641C46.0174 23.6876 51.8705 25.1655 56.9162 29.5009C58.6318 30.9788 59.8428 32.6538 60.9528 34.5259C61.1547 34.92 61.1547 35.0186 60.6501 35.0186C59.1364 35.0186 57.7235 35.0186 56.3107 35.0186Z" fill="#F2931D"/>
</svg>
