<svg width="70" height="94" viewBox="0 0 70 94" fill="none" xmlns="http://www.w3.org/2000/svg">
<path d="M29.2231 40.9194C30.3258 40.72 31.3033 40.3213 32.1805 39.6734C33.0326 39.0504 33.8596 37.9539 34.6115 36.5085L51.5288 3.66331C52.1804 2.56681 53.0075 1.69459 53.9348 0.996819C54.8622 0.348887 55.9649 0 57.193 0H67.9198L46.8421 38.6267C45.9148 40.2216 44.8622 41.5175 43.6842 42.5143C42.4812 43.5111 41.1529 44.2837 39.6992 44.7821C41.9549 45.3802 43.8596 46.3272 45.3885 47.6729C46.9173 48.9936 48.3709 50.8378 49.6992 53.2301L70 94H58.1955C55.8145 94 53.9098 92.7041 52.4561 90.1373L35.8396 55.5976C34.9875 54.0525 34.0351 52.956 33.0326 52.3081C32.0301 51.6601 30.7519 51.2614 29.2231 51.1617V68.6808H19.9499V51.087H13.1078V94H0V0H13.1078V41.0689H19.9248V20.7588H29.198V40.9194H29.2231Z" fill="#FFED00"/>
</svg>
