<svg width="92" height="92" viewBox="0 0 92 92" fill="none" xmlns="http://www.w3.org/2000/svg">
<circle cx="45.5574" cy="45.5574" r="45.5574" fill="#14B0FD"/>
<path d="M41.7494 41.1908C42.5334 41.049 43.2283 40.7655 43.8519 40.3049C44.4577 39.862 45.0457 39.0824 45.5803 38.0549L57.6074 14.704C58.0707 13.9245 58.6587 13.3044 59.3179 12.8083C59.9772 12.3476 60.7612 12.0996 61.6343 12.0996H69.2604L54.2754 39.5608C53.6162 40.6947 52.8678 41.616 52.0304 42.3246C51.1751 43.0333 50.2308 43.5825 49.1973 43.9369C50.8009 44.3621 52.1551 45.0353 53.242 45.992C54.3289 46.931 55.3623 48.2421 56.3067 49.9429L70.7393 78.9277H62.347C60.6543 78.9277 59.3001 78.0065 58.2667 76.1816L46.4534 51.626C45.8475 50.5276 45.1705 49.748 44.4577 49.2874C43.745 48.8267 42.8363 48.5433 41.7494 48.4724V60.9274H35.1567V48.4192H30.2924V78.9277H20.9736V12.0996H30.2924V41.2971H35.1389V26.8578H41.7316V41.1908H41.7494Z" fill="#FFED00"/>
</svg>
