<svg width="98" height="72" viewBox="0 0 98 72" fill="none" xmlns="http://www.w3.org/2000/svg">
<path d="M68.9819 12.8283C68.945 15.3682 68.7234 17.4663 67.9482 19.4725C66.2315 23.9449 62.9088 26.3191 58.1648 26.7056C56.5589 26.8345 54.9529 26.8713 53.3654 26.8897C52.8486 26.9081 52.664 27.0369 52.6825 27.5891C52.7378 28.951 52.6825 30.3314 52.7378 31.6934C52.7932 32.9817 53.2178 33.3498 54.4545 33.1106C57.5557 32.5216 58.7371 34.1044 58.6448 37.0124C58.5709 39.0554 57.2788 41.5953 54.1592 41.172C50.4304 40.675 46.7017 41.0431 42.9729 41.1904C41.2193 41.264 39.9087 40.3621 39.2627 38.7977C38.8381 37.7486 38.7458 36.6627 38.9489 35.54C38.9673 35.4296 38.9858 35.3192 39.0227 35.1903C39.4472 33.5155 40.3333 32.8161 42.0684 32.8161C43.1945 32.8161 43.3975 32.6136 43.3975 31.5093C43.3975 24.2394 43.3975 16.9694 43.3975 9.68102C43.3975 8.63194 43.176 8.39268 42.2346 8.37427C40.1302 8.33746 39.318 7.65647 38.9304 5.59512C38.7273 4.50922 38.8196 3.44173 39.2442 2.42946C39.9087 0.865034 41.1086 0.018405 42.8437 0C44.3943 0 45.9264 0.165644 47.4585 0.349694C50.3197 0.699388 53.1624 0.404908 56.0051 0.110428C62.9827 -0.607366 67.9851 3.42333 68.7604 10.4356C68.908 11.3743 69.0188 12.2945 68.9819 12.8283ZM52.7009 14.4295C52.7009 15.6442 52.7009 16.5645 52.7009 17.5031C52.7009 19.4909 52.7009 19.4909 54.7499 19.3805C57.1126 19.2516 58.6817 18.0001 59.1431 15.8835C59.3462 14.9449 59.4016 13.9878 59.3093 13.0307C59.0139 9.93869 57.3342 8.26384 54.6576 8.37427C53.4762 8.42949 53.0332 8.77918 52.8301 9.93869C52.5348 11.5215 52.7747 13.1228 52.7009 14.4295Z" fill="#FDFDFD"/>
<path d="M31.4544 47.5391C35.1831 50.2078 39.1888 52.3796 43.3421 54.3121C51.0026 57.8827 59.0323 60.3305 67.3574 61.8213C67.9296 61.9318 68.4834 62.0974 69.0372 62.2999C69.6279 62.5207 70.0893 62.9256 70.3662 63.4962C70.6247 64.0115 70.7539 64.6189 70.477 65.079C70.2555 65.4655 69.7202 65.171 69.3325 65.1158C64.9946 64.5269 60.7859 63.3121 56.5773 62.1894C41.8284 58.2508 28.6486 51.2569 16.6871 41.9071C10.7617 37.2691 5.87001 31.7844 2.36277 25.1034C1.18139 22.8396 0.461478 20.4469 0.0369183 17.9438C0.0184591 17.7782 -0.0738366 17.5941 0.129214 17.5021C0.313805 17.4285 0.387642 17.5757 0.443019 17.7046C1.86437 20.7046 4.37482 22.8028 6.71913 25.0114C11.7954 29.8151 16.927 34.5635 22.594 38.6863C29.0916 43.3979 36.1984 46.9685 43.5636 50.1158C53.0331 54.1649 62.8718 56.944 72.969 58.9133C72.9874 58.9133 73.0059 58.9501 73.1905 59.0974C72.0829 59.5023 71.2153 60.2385 70.034 60.2385C66.4344 60.2569 62.9641 59.5023 59.5307 58.5452C51.0026 56.171 42.899 52.674 34.9247 48.9194C33.8171 48.4041 32.7096 47.8703 31.602 47.355C31.5282 47.3182 31.4544 47.2998 31.3805 47.263C31.2144 47.0973 31.0667 47.0605 30.8821 47.2446C31.0114 47.2998 31.1221 47.355 31.2513 47.4102C31.3252 47.4654 31.399 47.5022 31.4544 47.5391Z" fill="#F7F7F7"/>
<path d="M57.9625 53.4664C63.7402 49.8038 69.961 47.043 75.0003 42.4418C75.0926 42.3498 75.1295 42.2209 75.2403 42.0001C74.6496 42.0553 74.2804 42.3314 73.9112 42.589C68.4289 46.2516 62.5404 49.1964 56.7442 52.3069C56.4304 52.4725 56.1351 52.5461 55.7474 52.4541C54.9352 52.2517 54.1046 52.1044 53.3662 51.9572C70.2748 42.6811 85.4482 31.2332 98.0004 16.4355C97.8712 18.184 97.4097 19.8405 96.9482 21.5153C95.7668 25.7301 93.4225 29.2638 90.5429 32.4847C87.9956 35.3559 85.3744 38.1718 82.5686 40.8038C80.4273 42.8099 77.9907 44.4111 75.5541 45.994C71.4931 48.6075 67.3398 51.0737 63.1865 53.5768C62.5404 53.9633 61.9312 54.0922 61.2113 53.9633C60.1592 53.7609 59.107 53.632 57.9625 53.4664Z" fill="#F7F7F7"/>
<path d="M72.1759 65.0445C72.1574 64.1427 72.1205 63.2408 71.899 62.3574C71.7882 61.9341 71.9544 61.7868 72.2866 61.6396C72.8404 61.3819 73.3942 61.1242 73.9295 60.8298C75.757 59.8359 77.326 58.6028 78.2489 56.6702C78.6366 55.8604 79.135 55.1058 79.7441 54.4248C80.9993 53.0629 82.9376 53.0261 84.2112 54.388C84.5435 54.7377 85.2265 55.0322 85.0234 55.6028C84.8204 56.1733 84.1374 55.9893 83.6205 56.0445C82.6607 56.1365 82.0146 56.7071 81.5716 57.5169C80.6302 59.2653 79.3749 60.7377 77.7321 61.842C77.3814 62.0813 77.4183 62.3574 77.4183 62.6703C77.4367 63.9586 77.1783 65.2102 76.7722 66.4249C75.277 70.9525 70.6253 72.1672 67.358 71.9832C66.3982 71.928 65.5491 71.5231 64.8476 70.8605C64.4969 70.5292 64.3123 70.1611 64.6999 69.7378C64.9768 69.4433 65.3645 69.2593 65.1614 68.6703C65.0507 68.339 65.4568 68.431 65.6598 68.4863C66.269 68.6519 66.8781 68.8543 67.5057 69.02C68.0041 69.1672 68.521 69.2593 69.0563 69.2225C71.5483 69.0568 72.342 67.9893 72.1759 65.0445Z" fill="#F7F7F7"/>
<path d="M32.7648 71.3555C28.9068 71.3739 25.3257 68.9076 23.9598 65.1346C23.1291 62.8524 22.5015 60.4781 21.8923 58.1223C21.5601 56.834 21.0801 55.7849 19.8065 55.2143C19.4373 55.0487 18.9943 54.8278 19.0496 54.3493C19.0866 53.8892 19.5665 53.7419 19.9172 53.5763C20.9878 53.0977 22.0954 52.9321 23.2214 53.3002C24.0521 53.5763 24.5505 54.018 24.8827 54.9566C25.6395 57.1836 26.7656 59.2634 28.1315 61.1959C28.4823 61.6929 28.9991 61.8585 29.4975 62.061C29.959 62.245 30.1251 62.4475 29.6821 62.9444C28.353 64.3984 29.1283 68.0794 30.9004 68.9444C31.4542 69.2205 32.0449 69.1469 32.6171 69.0549C33.2263 68.9444 33.8169 68.8524 34.4076 68.7052C34.8876 68.5947 35.2752 68.7236 35.6259 68.9996C36.3643 69.5702 36.3458 70.1776 35.5336 70.6377C34.6661 71.1714 33.6508 71.3371 32.7648 71.3555Z" fill="#F7F7F7"/>
<path d="M46.0369 60.7366C44.2279 61.4176 42.6219 62.0617 40.979 62.6139C38.7455 63.3685 36.4935 64.0679 34.2415 64.7857C34.0753 64.8409 33.9092 64.8961 33.7431 64.9145C33.1893 64.9881 32.5063 65.3746 32.1371 64.7489C31.7864 64.1599 32.1925 63.5709 32.5617 63.074C33.0416 62.4298 33.6323 61.9513 34.4261 61.712C36.8073 61.0126 39.1701 60.2949 41.5328 59.5771C41.7913 59.5034 42.0312 59.4114 42.3081 59.5034C43.4895 59.9083 44.6524 60.2949 46.0369 60.7366Z" fill="#F7F7F7"/>
<path d="M84.9494 61.0679C85.8539 61.0679 86.7584 61.0495 87.6629 61.0679C87.9583 61.0679 88.3275 60.8655 88.4936 61.2888C88.6413 61.6569 88.6228 62.0618 88.3828 62.3747C87.9952 62.8532 87.6998 63.3501 87.626 63.9943C87.5891 64.436 87.1092 64.4544 86.74 64.5465C84.8202 65.0434 82.8636 65.209 80.8884 65.0066C80.6669 64.9882 80.4269 65.0066 80.187 65.0434C79.0979 65.2091 79.0979 65.2091 79.1533 64.1232C79.1902 63.2765 79.5225 62.6508 80.2424 62.1538C81.7006 61.1599 81.7006 61.1415 84.9494 61.0679Z" fill="#F7F7F7"/>
<path d="M20.1204 65.7801C19.0129 65.8353 17.9238 65.9089 16.8347 66.1298C16.4655 66.2034 16.0778 66.2586 15.7087 66.2586C14.2504 66.2586 14.0104 65.8353 14.6934 64.5469C14.9334 64.0868 15.4133 63.6819 15.1364 63.0377C14.9888 62.7064 15.3579 62.7616 15.5056 62.7248C17.13 62.3751 18.7544 62.0439 20.3604 61.6942C20.8772 61.5837 21.1357 61.8046 21.2833 62.2463C21.5971 63.1666 21.9294 64.1052 22.2247 65.0439C22.3724 65.5408 22.0217 65.7433 21.6156 65.7801C21.0987 65.8169 20.6003 65.7801 20.1204 65.7801Z" fill="#F7F7F7"/>
<path d="M10.6139 65.3194C10.2447 65.3562 9.65401 65.3746 9.10023 65.5035C8.15882 65.7243 7.97423 66.3501 8.58338 67.1231C9.22945 67.9697 10.4108 68.1538 11.4261 67.5464C11.6661 67.3992 11.8691 67.1783 12.1091 67.0127C12.386 66.8286 12.6813 66.4421 12.9767 66.8838C13.2166 67.2519 12.9028 67.5464 12.589 67.7304C11.02 68.6875 9.37712 68.9268 7.67888 68.1722C6.51595 67.6568 6.12831 66.2949 6.79284 65.0433C7.56812 63.5525 8.80489 62.5771 10.4477 62.1721C10.7985 62.0801 11.2046 62.0801 11.5738 62.1353C12.6813 62.2642 13.3828 62.9083 13.272 63.6445C13.1243 64.7672 12.2937 65.4666 11.1677 65.3746C11.0569 65.3746 10.9461 65.3562 10.6139 65.3194Z" fill="#F7F7F7"/>
<path d="M95.0826 62.1544C95.0272 63.8661 93.7904 65.5409 92.166 66.0931C90.8 66.5532 89.8217 65.7434 90.0617 64.3262C90.2094 63.5164 90.4124 62.7066 90.9846 62.1176C91.6122 61.4734 91.3354 61.0685 90.7262 60.682C90.4309 60.498 90.0248 60.3691 90.1909 59.9274C90.357 59.4489 90.7816 59.6513 91.0954 59.725C91.9999 59.8906 92.9228 60.0931 93.8089 60.3323C94.8795 60.59 95.1195 60.9765 95.0826 62.1544Z" fill="#F7F7F7"/>
<path d="M30.1992 59.577C32.6358 58.9145 35.0171 58.1783 37.3429 57.3316C37.749 57.1844 38.0813 57.5709 38.4504 57.7365C38.875 57.9206 39.2811 58.1415 39.8533 58.4359C37.4721 59.2826 35.2755 60.2396 32.9312 60.7181C32.2113 60.8654 31.1037 60.3316 30.1992 59.577Z" fill="#F7F7F7"/>
<path d="M88.6596 68.2458C87.7366 68.2642 87.1644 67.5832 87.349 66.8102C87.4967 66.2028 87.8843 66.0372 88.4196 66.3501C88.8257 66.5893 89.1949 66.8654 89.6195 67.0679C90.1733 67.3623 90.1179 67.6016 89.6379 67.8961C89.2872 68.0985 88.9365 68.1906 88.6596 68.2458Z" fill="#F7F7F7"/>
<path d="M52.7009 14.4295C52.7932 13.1228 52.5348 11.5215 52.8301 9.9387C53.0516 8.77918 53.4946 8.42949 54.6576 8.37427C57.3157 8.26384 59.0139 9.9387 59.3093 13.0307C59.4016 13.9878 59.3462 14.9449 59.1431 15.8835C58.6817 18.0001 57.1126 19.2516 54.7499 19.3805C52.7009 19.4909 52.7009 19.4909 52.7009 17.5032C52.7009 16.5645 52.7009 15.6258 52.7009 14.4295Z" fill="#010101"/>
<path d="M31.251 47.4114C31.1218 47.3562 31.011 47.301 30.8818 47.2458C31.0664 47.0617 31.2326 47.0986 31.3802 47.2642C31.3249 47.3194 31.2879 47.3746 31.251 47.4114Z" fill="#010101"/>
<path d="M31.3802 47.2637C31.454 47.3005 31.5279 47.3189 31.6017 47.3557C31.5648 47.4109 31.5094 47.4845 31.4725 47.5397C31.3986 47.5029 31.3248 47.4661 31.251 47.4293C31.2879 47.3741 31.3248 47.3189 31.3802 47.2637Z" fill="#010101"/>
</svg>
