<svg width="93" height="97" viewBox="0 0 93 97" fill="none" xmlns="http://www.w3.org/2000/svg">
<path d="M60.4684 36.3983C61.8958 41.6212 64.4108 46.3354 67.674 50.6426C68.557 51.8296 69.679 52.067 71.14 51.5922C74.335 50.5408 77.36 52.4061 78.073 55.662C78.277 56.6455 78.141 57.0186 77.02 57.1881C71.378 57.9682 66.11 56.7472 61.1141 54.2036C54.2149 50.6765 49.7627 44.9109 46.2621 38.2636C45.5484 39.5184 45.3444 43.0117 46.1261 45.0127C47.6215 48.7433 49.4568 52.3044 51.7339 55.6281C53.2972 57.9343 53.807 58.036 56.5599 57.3577C59.5168 56.6116 62.9494 59.1891 63.0853 62.2076C63.1193 63.2589 62.3716 63.0893 61.8278 63.1233C55.1325 63.9033 49.015 62.2754 43.4072 58.6465C38.0374 55.1872 34.3328 50.2695 31.376 44.7074C31.308 44.5718 31.1721 44.47 30.9342 44.1987C30.4244 48.065 31.0362 51.4904 32.8374 54.8819C30.8322 55.1872 28.963 55.4585 27.0937 55.7298C17.5435 57.0525 13.3632 65.1921 12.9214 71.9751C12.7515 74.7561 13.5332 77.5032 16.0142 79.9112C14.6207 75.0274 15.2665 70.788 17.8154 66.9217C21.316 61.5293 26.38 58.7143 32.7355 58.1378C34.8766 57.9343 36.304 58.8161 37.3236 60.5457C28.963 61.9023 23.5931 66.6165 21.7919 74.8578C20.7723 79.6059 21.8258 84.0149 25.9382 87.237C24.4428 84.1505 23.933 80.9625 24.5447 77.571C25.8702 70.3811 32.3276 64.412 39.6007 63.6998C40.9262 63.5642 42.0817 63.8016 43.1693 64.8868C39.1249 65.5651 35.9642 67.4983 33.7211 70.8559C31.512 74.1456 30.7303 77.8084 31.2061 81.6747C32.0218 88.39 36.6099 93.24 43.0334 94.291C42.9314 93.613 42.2857 93.613 41.8778 93.341C36.5419 89.747 34.4348 84.6253 35.2505 78.4189C35.9642 72.8569 38.989 68.821 44.3588 66.7522C45.4464 66.3452 46.534 66.0739 47.4856 67.0913C41.2321 71.6359 38.921 77.6049 40.7563 84.4558C42.1837 89.848 46.2621 93.715 51.326 94.291C50.3064 93.511 49.3888 92.901 48.5392 92.188C41.9798 86.491 42.4216 74.6204 49.3548 69.4314C50.5444 68.5497 51.7339 67.9731 53.1613 68.9566C48.4712 74.4848 48.0294 80.4199 51.6319 86.626C54.1129 90.9 58.7691 93.24 63.2213 92.629C59.4148 91.442 56.7299 89.272 54.8946 86.05C52.0737 81.0643 52.5495 74.6204 56.0501 70.4489C56.492 69.9402 56.9338 69.228 57.7155 69.6349C58.3952 70.008 57.8174 70.6524 57.7155 71.1611C55.9482 80.759 63.935 89.509 73.485 88.424C74.165 88.356 74.811 88.288 75.558 87.712C70.8 87.508 67.028 85.575 64.2409 81.9461C61.7599 78.7241 60.6723 75.0613 61.352 70.9576C61.454 70.3471 61.454 69.7367 62.3716 69.7028C63.2893 69.6688 63.3232 70.2115 63.4932 70.8559C65.532 77.8084 71.786 82.4548 78.787 82.2174C80.52 82.1496 82.22 81.7765 83.885 80.759C83.035 80.3521 82.322 80.5555 81.642 80.5555C75.524 80.6234 69.543 76.5875 67.402 70.8559C67.232 70.415 66.552 69.7367 67.232 69.4314C67.945 69.1262 68.863 68.5497 69.679 69.5671C71.548 71.9072 73.927 73.6369 76.782 74.5865C81.2 76.0788 85.414 75.9092 89.323 72.9247C82.933 74.5187 77.632 72.7212 73.043 67.8714C81.2 64.9886 86.978 59.5961 91.498 52.2366C92.654 54.848 92.721 57.2221 92.857 59.5622C93.571 73.8404 86.638 83.7436 74.369 89.882C57.4776 98.361 40.3144 98.395 23.6611 89C10.6103 81.6069 2.45358 70.4828 0.380375 55.4924C-1.25092 43.7578 2.41958 33.5494 10.3384 24.7993C16.0821 18.4572 23.0833 13.8448 31.0022 10.6229C32.9394 9.84281 34.7747 8.79151 36.8138 8.28281C37.2217 7.94361 37.2217 6.55311 38.1733 7.77401C39.2609 9.60541 40.1785 11.5047 41.334 13.3022C41.538 13.9126 42.0477 14.4553 41.9458 15.1675C41.504 15.9815 41.1641 17.0328 39.8726 16.3206C39.3968 16.0493 39.2949 16.5241 39.1249 16.7276C38.6491 17.372 38.3092 18.0842 38.0374 18.8303C37.5276 20.1191 36.8478 21.2722 35.6243 22.0183C34.8426 22.527 34.5368 23.1036 34.8766 24.0193C35.2845 25.2402 34.8426 25.749 33.4152 25.4437C34.9786 27.7839 37.1877 28.8691 39.5667 29.6831C40.2465 29.9205 40.9942 30.0901 41.7079 30.2597C43.5431 30.7005 45.1745 30.9719 45.9902 33.3459C46.8738 35.9913 49.2869 37.4157 52.0398 37.7549C52.3116 37.9584 52.3116 37.4835 52.2437 37.7209C52.2097 37.7888 52.1757 37.7888 52.1077 37.7209C51.53 37.1783 50.7823 36.8731 50.2045 36.3643C49.2529 35.5504 49.3208 34.2616 50.5104 33.9564C52.3116 33.5155 52.2437 32.3285 52.1417 30.9719C52.1077 30.5649 52.0398 30.1918 51.9378 29.8188C51.496 28.123 50.8502 27.8517 49.6607 29.0726C48.1313 30.6327 46.5679 30.6666 44.7327 29.8527C42.4216 28.8691 40.2125 27.7499 38.2413 26.2238C36.9498 25.2063 36.9838 24.7315 38.5132 24.1889C41.1981 23.2393 43.7131 21.9505 46.2621 20.6956C49.7287 18.966 50.0346 19.0338 52.2097 22.1879C52.8554 19.8478 52.7535 17.5415 53.1953 15.2692C53.2973 14.7266 53.1953 14.1161 53.6711 13.6752C54.0789 13.5735 54.3508 13.777 54.5547 14.1161C54.9286 14.964 54.7247 15.8797 54.9966 16.7276C55.1665 18.4912 55.4724 20.2547 55.5743 22.0522C56.1861 21.9505 56.1521 21.5435 56.322 21.2722C57.2397 19.5764 58.2593 19.2034 60.0945 19.8817C61.6239 20.4582 62.9834 21.4078 64.4788 22.0861C66.076 22.7984 67.707 23.4767 69.339 24.0871C70.188 24.4263 70.902 25.1385 69.985 25.8168C67.096 28.0552 64.0709 30.1579 60.1965 30.3275C59.2789 30.0901 58.7351 29.31 57.9874 28.7674C57.0697 28.123 56.424 28.1569 56.1181 29.344C55.7783 30.6666 55.5064 31.9893 56.0501 33.312C56.1861 33.4477 56.322 33.5494 56.492 33.5833C57.2737 33.7868 58.0893 34.0242 58.2253 34.9399C58.3612 35.8556 57.6815 36.3304 56.9678 36.7374C56.458 37.0087 56.1861 37.4835 55.8122 37.8227C57.3756 37.6531 58.6671 36.6696 60.1625 36.2287C60.1965 36.1948 60.3324 36.2965 60.4684 36.3983Z" fill="white"/>
<path d="M70.869 4.17773C71.276 7.12833 70.733 9.90943 69.169 12.4191C68.693 13.233 68.727 13.8096 69.135 14.5557C69.883 15.8784 70.529 17.235 71.31 18.5577C72.126 19.9821 73.078 21.3387 74.981 21.5761C74.573 22.3901 74.233 23.1023 73.893 23.8145C73.588 23.8823 73.452 23.6788 73.35 23.4754C73.248 23.1701 73.248 22.7292 72.942 22.5936C70.699 21.3387 69.917 19.0664 68.863 16.9976C68.524 16.3193 68.184 15.6071 67.266 16.3532C67.062 16.4889 66.824 16.4889 66.654 16.2854C65.771 15.2001 64.2752 14.5896 64.0713 12.9617C64.2752 12.8261 64.5131 12.7921 64.751 12.8261C65.635 13.4026 66.212 12.8939 66.79 12.2834C68.592 10.3503 69.339 7.90843 69.951 5.46653C70.223 4.99173 70.019 4.21163 70.869 4.17773Z" fill="white"/>
<path d="M37.9018 7.9086C37.2561 6.959 37.1881 8.2817 36.7803 8.2139C36.8143 6.959 36.9162 5.7042 36.8483 4.4832C36.6783 1.2274 39.1254 -0.5362 42.1502 0.7187C44.4272 1.6683 46.2285 3.2962 47.7919 5.1615C48.2337 5.6703 48.5736 6.3146 49.3893 6.179C49.7971 6.0772 50.2389 5.9416 50.5788 6.3146C51.3265 9.1635 51.3265 9.1635 48.6416 10.4862C47.8939 10.8593 47.1801 11.3341 46.2965 11.1984C45.4128 10.8932 44.2913 11.4358 43.6456 10.4184C44.0194 9.7061 44.6991 9.9096 45.2769 9.8418C45.9566 9.8079 46.6364 9.8418 47.2821 9.6044C48.0638 9.367 48.4716 8.9939 47.8939 8.1461C46.5004 6.1112 45.107 4.0763 43.0338 2.584C42.3201 2.0753 41.5724 1.7361 40.7227 1.6005C39.0234 1.3291 38.2417 2.0414 38.0038 3.7371C37.8339 5.1615 38.5136 6.5521 37.9018 7.9086Z" fill="white"/>
<path d="M58.3952 6.14478C59.3129 6.24658 59.6187 5.46648 60.0945 4.92388C61.9298 2.92288 63.901 1.05758 66.6539 0.345381C67.6059 0.107981 68.421 0.141881 69.203 0.718381C69.305 1.02368 69.135 1.19328 68.897 1.32888C64.275 1.39668 62.1337 4.82218 59.8566 8.01018C59.2449 8.89188 59.6528 9.33278 60.5024 9.60418C61.1481 9.80768 61.8279 9.77368 62.5076 9.80768C63.0853 9.84158 63.7651 9.67198 64.1389 10.3842C63.3572 11.4695 62.2017 10.8251 61.2161 11.1303C59.5508 10.9268 58.2253 10.0111 56.8319 9.16328C56.3221 8.85798 55.9822 8.38318 56.526 7.80668C56.9338 7.36578 56.9338 6.78918 57.1717 6.28048C57.5456 5.94128 57.9534 6.00918 58.3952 6.14478Z" fill="white"/>
<path d="M73.554 23.4414C73.656 23.5771 73.792 23.6788 73.894 23.8145C73.962 24.0519 73.656 24.5945 74.301 24.4249C74.845 24.2554 75.321 24.018 75.865 23.7806C75.321 27.5112 71.175 30.3261 64.7513 31.2758C64.6493 31.1401 64.6493 30.9705 64.7513 30.801C65.193 30.2244 65.907 30.2244 66.519 29.987C69.373 29.3087 72.058 28.3252 73.996 25.7815C73.588 25.3067 72.568 25.3746 72.704 24.4928C72.772 23.984 72.908 23.5092 73.554 23.4414Z" fill="white"/>
<path d="M64.7508 30.9704C64.7508 31.0721 64.7508 31.1739 64.7508 31.2417C63.6292 32.4626 63.1534 34.1245 61.8279 35.2098C61.3521 35.5828 60.9103 35.9898 60.4345 36.3629C60.2985 36.3629 60.1626 36.3629 60.0267 36.3629C59.6868 35.6846 60.2985 35.3454 60.6044 34.9384C61.3521 33.9549 62.0658 33.0392 62.3037 31.7165C62.5417 30.5295 63.6972 30.4617 64.7508 30.9704Z" fill="white"/>
<path d="M58.396 6.14453C58.0221 6.28023 57.5463 6.07673 57.3084 6.51763C55.0313 6.75503 52.7542 6.82283 50.5111 6.48373C50.2392 6.11063 49.7634 6.28023 49.3896 6.14453C52.3804 5.46623 55.3712 5.50013 58.396 6.14453Z" fill="white"/>
<path d="M68.7275 1.19481C68.8965 1.05911 69.0325 0.889606 69.2025 0.753906C70.4945 1.53391 70.8345 2.78881 70.8685 4.17931C70.6645 4.62021 70.4605 5.09501 70.2565 5.53591C69.5765 4.14541 69.5425 2.51751 68.7275 1.19481Z" fill="white"/>
<path d="M41.029 13.166C41.5727 13.2339 42.0485 14.5566 42.5244 13.6069C43.0342 12.6234 42.5244 11.979 42.1845 11.8434C40.2813 11.2668 39.5675 8.92671 39.2617 6.89181C39.2277 6.28131 38.7179 5.60301 39.5675 5.16211C40.2813 6.04391 41.3008 6.04391 42.4224 6.04391C41.6747 7.84141 42.0146 9.26581 43.7139 10.2494C44.4956 11.0633 45.7531 10.0459 46.4668 10.9955C44.8694 12.3521 43.2721 13.6748 41.6747 15.0314C41.7087 14.3531 40.825 13.9461 41.029 13.166Z" fill="white"/>
<path d="M58.1575 22.832C58.3614 23.8156 58.5313 24.5956 59.5169 24.6634C59.7888 24.6974 60.3326 24.6974 60.0607 24.2225C59.6529 23.5782 59.6868 23.2051 60.4346 23.0016C60.9104 22.8659 61.3182 22.9338 61.5901 23.4086C61.896 23.9173 62.0999 24.4939 61.6921 24.9687C60.8084 25.9183 59.7548 25.6809 58.7692 25.1722C57.9196 24.7313 57.4098 24.053 58.1575 22.832Z" fill="#201600"/>
<path d="M49.4915 22.5938C50.2392 23.9504 49.8653 24.6287 49.0496 25.1374C48.166 25.6461 47.2144 25.7817 46.3307 25.2729C45.685 24.8999 45.719 24.2556 46.0249 23.6451C46.2628 23.1364 46.6026 22.865 47.2144 23.0345C47.9621 23.238 48.098 23.5434 47.7242 24.2556C47.5542 24.5947 47.9281 24.832 48.3699 24.6964C49.1856 24.4251 49.4575 23.8147 49.4915 22.5938Z" fill="#201600"/>
<path d="M53.6035 13.7432C53.6035 13.2683 53.6035 12.7935 53.6035 12.1152C54.4192 12.7257 54.2493 13.404 54.1813 14.0484C53.9774 13.9466 53.8075 13.8449 53.6035 13.7432Z" fill="#A6A6A6"/>
<path d="M68.524 6.61971C68.354 8.41721 67.402 9.87561 66.213 11.1643C65.669 11.7409 65.125 12.2835 64.7854 12.9958C64.5135 12.9958 64.2416 13.0297 63.9697 13.0297C62.9841 12.3175 61.9985 11.6052 61.0469 10.893C61.9645 10.1469 63.222 11.0965 64.1057 10.2486C65.397 9.46861 66.009 8.34941 65.533 6.85711C65.295 6.07711 65.669 6.07711 66.281 6.04321C67.029 6.00931 67.708 5.80581 68.218 5.19531C69.068 5.46661 68.592 6.07711 68.524 6.61971Z" fill="white"/>
<path d="M39.5328 5.19649C39.023 5.70519 39.4649 6.34959 39.227 6.92609C38.7851 6.07829 38.7851 5.16249 38.9891 4.28079C39.3289 2.78849 40.3145 2.48329 41.8439 3.33109C40.7903 3.67029 39.4309 3.56849 39.5328 5.19649Z" fill="white"/>
<path d="M68.524 6.62129C68.32 6.18039 68.728 5.56989 68.184 5.19679C68.286 3.56889 66.927 3.67069 65.873 3.39929C66.519 2.65319 67.267 2.55149 67.946 3.12799C69.034 4.07759 69.102 5.33249 68.524 6.62129Z" fill="white"/>
</svg>
