<svg width="84" height="78" viewBox="0 0 84 78" fill="none" xmlns="http://www.w3.org/2000/svg">
<path d="M38.6179 44.7129L23.7764 59.5545C28.4837 69.5176 38.4381 76.5325 50.0551 77.0063V57.181C43.8605 56.2378 39.0347 51.0654 38.6179 44.7129Z" fill="white"/>
<path d="M38.6179 44.7129L23.7764 59.5545C28.4837 69.5176 38.4381 76.5325 50.0551 77.0063V57.181C43.8605 56.2378 39.0347 51.0654 38.6179 44.7129Z" stroke="white"/>
<path d="M83.3393 46.6042L83.2998 4.98381H83.2954V0.0351562L65.6242 17.7064V43.8272C65.6242 50.5789 60.6492 56.1857 54.1738 57.1859V77.0156C70.371 76.34 83.3393 62.9593 83.3393 46.6042Z" fill="white"/>
<path d="M83.3393 46.6042L83.2998 4.98381H83.2954V0.0351562L65.6242 17.7064V43.8272C65.6242 50.5789 60.6492 56.1857 54.1738 57.1859V77.0156C70.371 76.34 83.3393 62.9593 83.3393 46.6042Z" stroke="white"/>
<path d="M38.5917 38.5588V32.4388V24.8184L20.8854 42.5247L20.881 46.6047C20.881 47.741 20.9424 48.8641 21.0653 49.9652L13.6072 57.4233L13.5984 61.0646L0.217773 74.4452V76.9327L38.5917 38.5588Z" fill="#007CCD"/>
<path d="M38.5917 38.5588V32.4388V24.8184L20.8854 42.5247L20.881 46.6047C20.881 47.741 20.9424 48.8641 21.0653 49.9652L13.6072 57.4233L13.5984 61.0646L0.217773 74.4452V76.9327L38.5917 38.5588Z" stroke="white"/>
<path d="M40.6006 1.02344H38.9203H38.9071H38.6044H38.5913H38.0604H37.7445H36.6785H36.4416H36.367H36.1301H23.3943H23.0785H20.9156H20.5998H18.9195C20.1786 3.01518 20.9156 5.37105 20.9156 7.88925V9.34138L20.8893 30.3117L13.5936 37.6075L13.6111 41.2137L0.212891 54.6119V57.0906L38.5913 18.721V18.7166V9.20977L38.6044 7.88925C38.6044 5.36667 39.3371 3.01518 40.6006 1.02344Z" fill="#00B1BF"/>
<path d="M40.6006 1.02344H38.9203H38.9071H38.6044H38.5913H38.0604H37.7445H36.6785H36.4416H36.367H36.1301H23.3943H23.0785H20.9156H20.5998H18.9195C20.1786 3.01518 20.9156 5.37105 20.9156 7.88925V9.34138L20.8893 30.3117L13.5936 37.6075L13.6111 41.2137L0.212891 54.6119V57.0906L38.5913 18.721V18.7166V9.20977L38.6044 7.88925C38.6044 5.36667 39.3371 3.01518 40.6006 1.02344Z" stroke="white"/>
</svg>
