<svg width="94" height="94" viewBox="0 0 94 94" fill="none" xmlns="http://www.w3.org/2000/svg">
<path d="M91.3746 46.9998C91.3746 71.5072 71.5072 91.3746 46.9998 91.3746C22.4924 91.3746 2.625 71.5072 2.625 46.9998C2.625 22.4924 22.4924 2.625 46.9998 2.625C71.5072 2.625 91.3746 22.4924 91.3746 46.9998V46.9998Z" fill="#FFDD55"/>
<path d="M85.6123 43.3359C85.6123 65.6816 67.4976 83.7964 45.1519 83.7964C32.0903 83.7964 20.4767 77.6057 13.0791 68.0001C20.0657 80.1292 33.1608 88.2947 48.1635 88.2947C70.5092 88.2947 88.6239 70.1799 88.6239 47.8343C88.6239 38.5498 85.4944 29.9978 80.2359 23.1699C83.6558 29.1066 85.6123 35.9926 85.6123 43.3359V43.3359Z" fill="white"/>
<path fill-rule="evenodd" clip-rule="evenodd" d="M10.8311 46.3095H13.7759C13.9249 43.2498 14.4827 40.2128 15.4015 37.3235H16.1178C16.3903 37.323 16.6641 37.323 16.9388 37.3235C19.5839 37.3235 22.229 37.3235 24.8741 37.3235C25.0124 37.0911 25.1509 36.8586 25.2893 36.6262C26.6256 34.3819 28.0516 32.3859 29.9227 30.5942C31.3431 29.2341 33.0388 27.9739 35.1726 26.788C35.1655 27.9405 35.1584 29.0931 35.1514 30.2456C35.1506 30.4232 35.1499 30.6007 35.1492 30.7782C32.6795 32.4231 30.4221 34.6049 28.517 37.3235C29.7229 37.3235 30.9288 37.3235 32.1347 37.3235C33.7304 35.3944 35.5396 33.8346 37.4798 32.6439C40.6163 30.719 44.0981 29.7605 47.5687 29.7674C51.0362 29.7743 54.5028 30.7458 57.6123 32.6804C59.5152 33.8644 61.2871 35.412 62.8485 37.3235C64.0506 37.3235 65.2527 37.3235 66.4547 37.3235C64.6119 34.6591 62.4195 32.5076 60.011 30.8704C60.0101 30.6589 60.0092 30.4474 60.0084 30.2358C60.0013 29.0833 59.9942 27.9307 59.9871 26.7782C62.1209 27.9641 63.8167 29.2242 65.237 30.5844C67.1082 32.3761 68.5341 34.3721 69.8704 36.6163C70.0088 36.8488 70.1473 37.0812 70.2857 37.3137C71.7281 37.3319 72.0294 37.3206 73.4722 37.3137C71.796 33.9584 70.169 31.3476 67.3355 28.6343C64.344 25.7695 60.9938 23.8135 57.0187 22.459C57.0329 24.6963 57.0044 26.913 57.0187 29.1502C54.0054 27.7027 50.8124 26.9957 47.5687 26.9893C44.3429 26.9829 41.1581 27.6703 38.1411 29.0918C38.1553 26.8774 38.1269 24.6831 38.1411 22.4688C34.1659 23.8233 30.8158 25.7794 27.8243 28.6441C25.9356 30.4526 24.4761 32.4083 23.1429 34.564C21.8756 34.572 20.5748 34.5641 19.274 34.5562C18.3555 34.5506 17.437 34.5451 16.53 34.545C16.9485 33.3926 17.4375 32.2938 17.9903 31.248C19.0239 29.3561 20.1382 27.702 21.5989 26.0663C25.9472 21.1964 31.9798 17.9968 38.45 16.4012C44.9505 14.7981 51.8827 14.8147 57.996 16.3825C58.0636 16.3998 58.1311 16.4173 58.1985 16.4351V13.55C51.7521 12.0025 44.512 12.0334 37.7121 13.7102C30.6809 15.4441 24.11 18.9385 19.3505 24.2687C17.8088 25.9953 16.4906 27.8754 15.4117 29.8914C12.7114 34.8103 11.0918 40.5257 10.8311 46.3095Z" fill="#0000FF"/>
<path fill-rule="evenodd" clip-rule="evenodd" d="M32.3466 38.7528C33.0694 38.7534 33.8043 38.7543 34.5481 38.7554C35.2631 39.33 36.2653 38.9886 36.7866 38.5736C36.5673 39.0293 36.8858 39.4762 37.5066 39.1421C38.1899 38.7744 39.0496 38.7473 39.3313 38.7886C39.1989 39.5376 40.5909 38.8467 41.371 39.1734C42.2056 39.523 42.4044 39.2087 42.9492 39.01C43.4954 39.4266 44.3696 39.4143 44.864 38.9924C45.0998 39.2459 45.8313 39.6294 46.7505 39.2794C47.9839 38.8098 49.4905 38.3918 50.9541 38.3061C50.9641 38.2189 50.976 38.1311 50.9892 38.0485L51.1232 37.1772C51.118 37.1098 51.0529 36.8812 51.0348 36.6524C50.9973 36.1788 51.0324 35.7358 51.0862 35.2758C51.1172 35.0111 51.0783 35.047 51.0268 34.8102C50.9654 34.5286 50.958 34.1916 50.9426 33.9067C50.9329 33.724 50.9664 33.147 50.9238 33.0452C50.9009 32.9905 50.8994 33.0002 50.8766 32.9308L50.7758 32.5393C50.743 32.3837 50.6793 31.7367 50.6899 31.5893C50.697 31.4882 50.6894 31.3344 50.65 31.2597C50.4978 30.9712 50.4221 30.5721 50.3857 30.2274L50.3144 29.7164C50.3064 29.6344 50.2988 29.6412 50.2676 29.5844C50.0683 29.2207 49.9861 28.6814 49.8935 28.2731C49.8436 28.053 49.7467 27.9625 49.6678 27.7563C49.5475 27.4421 49.4167 26.8848 49.3688 26.7647L49.1646 26.4094C49.1225 26.3228 49.0915 26.2422 49.0529 26.1495C48.9788 25.9711 48.9291 25.7891 48.864 25.6066C48.8006 25.4291 48.6752 25.3076 48.5925 25.1433C48.5327 25.0243 48.3004 24.44 48.2579 24.3803C48.115 24.1797 48.1123 24.2223 47.9634 23.9441C47.904 23.8263 47.737 23.542 47.6108 23.5072C47.3907 24.9647 45.829 26.9365 45.11 29.846C45.03 30.1695 44.9923 30.6154 44.8342 30.8865C44.5679 30.5834 44.4153 30.2171 44.2763 29.8408C43.8085 28.5748 43.6101 26.8736 43.6823 25.4644C43.7018 25.0827 43.8861 24.3593 43.8868 24.146C43.8561 24.1569 43.5588 25.0583 42.8096 25.5447C41.9851 26.0802 41.1527 26.8077 40.6287 27.6555C40.5092 27.441 40.4531 26.8758 40.4475 26.8069C40.196 23.6286 42.0751 20.8779 44.2741 20.7058C43.0405 19.7989 41.3968 20.5897 41.3993 20.5412C41.5174 18.2004 46.3042 17.6054 47.5346 18.7218C49.086 17.7226 50.8272 16.888 53.1975 18.4005C51.8173 18.8276 50.537 19.5744 49.9968 20.185C50.3722 20.1165 53.0473 20.9099 54.361 22.7658C54.5471 23.0288 54.8253 23.362 54.9144 24.1096C54.7805 23.9161 54.4964 23.6406 54.2934 23.5412C53.1734 22.9927 50.7383 24.1428 49.332 23.6481C49.2864 23.632 49.2069 23.5992 49.1565 23.5989C49.1414 23.699 49.2267 23.7446 49.3194 23.8497C49.3932 23.9334 49.4597 24.0042 49.5305 24.0949C49.5682 24.1434 49.594 24.1686 49.631 24.215C50.0742 24.7721 49.7937 24.6944 49.8901 24.8268C49.9265 24.8766 49.9646 24.9189 50.0032 24.9679C50.0798 25.0651 50.1515 25.1554 50.226 25.2504C50.3058 25.3521 50.595 25.7638 50.6064 25.9087C50.6229 26.1174 50.4326 25.8727 50.7891 26.3742C50.8691 26.4868 50.9374 26.5969 51.0131 26.7062C51.1312 26.877 51.2275 27.0637 51.2957 27.2602C51.3611 27.4486 51.1373 27.3331 51.3356 27.6192C51.5135 27.8759 51.9455 28.5967 51.9657 28.8513C51.9716 28.9262 51.8821 28.9816 51.8872 29.0453C51.8904 29.0863 52.0767 29.3995 52.1071 29.45C52.2559 29.6979 52.5533 30.2976 52.5665 30.5566C52.5714 30.652 52.4582 30.7252 52.4603 30.7518C52.4646 30.8071 52.8278 31.537 52.8816 31.685C52.9324 31.8243 53.136 32.317 53.0964 32.4677C53.0744 32.5512 52.9674 32.6129 52.9717 32.6666C52.9769 32.733 53.1016 32.9916 53.1348 33.07C53.165 33.1415 53.1824 33.1964 53.2128 33.2674C53.3838 33.6649 53.5049 34.067 53.5403 34.5143C53.5451 34.5751 53.4106 34.6823 53.3686 34.7156C53.3837 34.8084 53.5418 35.2102 53.5801 35.3341C53.7299 35.8185 53.8247 36.13 53.8681 36.6783C53.8749 36.764 53.8514 36.8143 53.8049 36.8563L53.6571 36.9766C53.6972 37.1028 53.7289 37.2237 53.7668 37.3576C53.8418 37.623 53.9199 37.9078 53.9683 38.1746C54.0049 38.3759 54.0388 38.5871 54.0524 38.7971C54.3496 38.9368 54.6302 39.1085 54.8894 39.3168V39.9837V41.6605V43.3372V45.014V46.6907V48.1339C54.8998 48.2112 54.9093 48.289 54.918 48.3675H56.3479L56.2289 50.0442H54.9905C54.9832 50.5476 54.9522 51.0461 54.8894 51.5279V51.721V53.3977V55.0745V56.7512H55.7529L55.8719 55.0745H54.8894H53.2462C52.5546 55.6513 51.6106 55.9957 50.3359 55.9957C46.1837 55.9957 45.5214 52.2209 45.7048 48.813C45.8533 46.0535 47.2431 43.7694 50.2842 43.7694C51.1312 43.7694 51.8364 43.9137 52.4206 44.1748V43.3372H53.4719L53.6326 44.5707L53.7463 43.3372H54.8894H56.7048L56.788 42.1646L56.874 43.3372H58.5926V45.014V46.6907H59.1573L59.3703 48.3675H58.5926H57.2429L57.3659 50.0442H58.5926H59.5832L59.7345 51.2352L59.7756 50.0442H61.0614V48.3675H59.8336L59.8916 46.6907H61.0614V45.0143L61.0613 45.014H59.9495L60.0075 43.3372H60.2352C59.8508 42.7218 59.398 42.1627 58.8766 41.6605H58.5926H54.8894H53.9007L54.0552 39.9837H54.8894H56.5562C57.2964 40.3639 57.9671 40.8343 58.5926 41.3959V41.6605V43.3372H58.7314L58.9443 45.014H58.5926H56.997L57.12 46.6907H58.5926V48.3675V50.0442V51.721H57.4889L57.6118 53.3977H58.5926V55.0745V56.7512H58.931L58.8893 58.428H58.5926V56.7512H57.8578L57.7348 55.0745H58.5926H58.9727L59.0144 53.3977H58.5926V51.721H59.0561L59.0835 50.6183L59.1991 51.721H61.0614V53.3977H59.3747L59.5505 55.0745H60.8986C60.6434 55.6735 60.3369 56.2324 59.9793 56.7512H59.7262L59.9019 58.428H60.9342C60.9765 58.4526 61.0189 58.477 61.0614 58.5012V60.1047H62.2826L60.7921 63.0249L54.1635 60.5502C50.9003 61.2022 47.143 61.2385 44.1355 59.6856C40.3065 57.7482 38.8282 53.9847 38.8282 49.9816C38.8282 47.8038 39.1273 45.7647 40.2329 43.7921L37.4446 43.7921L36.2031 47.136L31.0087 48.8127H35.5806L33.713 53.843L28.9272 55.5197H33.0904L31.0634 60.9792H23.6236L21.5613 55.5197H25.8879L25.3657 53.843H20.9277L19.0272 48.8127L23.7826 48.8133L23.2603 47.1365H18.3943L16.4935 42.1063H21.6936L21.1714 40.4295H15.8601L15.2266 38.7528H22.4026L23.972 43.783H18.9196L19.5532 45.4597H24.4943L26.0733 50.4895H21.4532L22.0868 52.1662L26.5977 52.1601L27.4108 54.75L28.2085 52.1646H31.4341L28.7302 50.4895L30.297 45.4592H33.634L30.8065 43.792L31.3295 42.106H31.3283L32.3466 38.7528ZM71.599 43.2965C71.5994 43.297 71.6 43.2973 71.6003 43.2981L71.6103 43.3022C71.6176 43.2935 71.6104 43.288 71.6103 43.288C71.6019 43.2903 71.603 43.2891 71.599 43.2965ZM70.1886 43.1177C70.1933 43.1268 70.1885 43.1226 70.1968 43.1287C70.2051 43.1226 70.2003 43.1268 70.2053 43.1173L70.1971 43.1112L70.1886 43.1177ZM71.9317 43.271C71.9317 43.2809 71.9374 43.2795 71.9431 43.2795C71.9521 43.2635 71.9419 43.2626 71.9317 43.2624V43.271ZM72.8191 43.4189C72.8191 43.4321 72.8355 43.4302 72.8355 43.4189C72.8355 43.4076 72.8191 43.4057 72.8191 43.4189ZM70.8026 43.1571C70.8026 43.1735 70.8197 43.1735 70.8197 43.1571C70.8197 43.1451 70.8026 43.1451 70.8026 43.1571ZM70.2906 42.9921C70.299 42.994 70.3026 42.997 70.3075 42.9888C70.3116 42.9821 70.3084 42.975 70.2992 42.975C70.2889 42.975 70.2906 42.9822 70.2906 42.9921V42.9921ZM70.7059 42.9779C70.7059 42.9942 70.7258 42.9942 70.7258 42.9779C70.7258 42.9657 70.7059 42.9657 70.7059 42.9779ZM71.5563 43.4104C71.5563 43.4181 71.5576 43.4182 71.5591 43.4246C71.5682 43.4268 71.5819 43.4293 71.5819 43.4132C71.5819 43.3961 71.5563 43.4008 71.5563 43.4104ZM71.4852 43.3591C71.4852 43.3847 71.5255 43.3811 71.5079 43.3478C71.4988 43.3478 71.4852 43.3458 71.4852 43.3591ZM72.2759 43.2539C72.2792 43.2602 72.2806 43.2624 72.2844 43.2681H72.3015C72.3183 43.2429 72.3086 43.2396 72.2844 43.2396C72.2806 43.2453 72.2792 43.2475 72.2759 43.2539ZM71.6473 43.7233V43.7319C71.653 43.7357 71.6552 43.7371 71.6615 43.7404C71.6679 43.7371 71.6701 43.7357 71.6758 43.7319C71.6758 43.7072 71.6768 43.7063 71.653 43.7063C71.65 43.7119 71.6473 43.7147 71.6473 43.7233ZM71.2434 43.1742C71.2434 43.1952 71.2625 43.1906 71.2719 43.1884C71.2828 43.1415 71.2434 43.1568 71.2434 43.1742ZM70.7628 43.1258C70.7628 43.1564 70.8054 43.1611 70.8054 43.1287C70.8054 43.1125 70.7929 43.109 70.7798 43.1059C70.7746 43.1094 70.7628 43.1178 70.7628 43.1258ZM70.6746 42.9011C70.6746 42.9096 70.6908 42.9225 70.6973 42.9226C70.7055 42.9227 70.7201 42.9125 70.7201 42.9011C70.7201 42.8943 70.709 42.8754 70.6945 42.8754C70.6861 42.8754 70.6746 42.8941 70.6746 42.9011V42.9011ZM70.6405 43.1372C70.6405 43.1726 70.6831 43.1694 70.6831 43.1401C70.6831 43.1097 70.6405 43.1104 70.6405 43.1372ZM71.3999 43.2681C71.3999 43.2904 71.4425 43.3071 71.4425 43.2653C71.4425 43.2354 71.3999 43.2402 71.3999 43.2681ZM72.1052 43.6323C72.1052 43.643 72.1098 43.6477 72.1173 43.6543L72.1251 43.6608C72.1313 43.6575 72.1507 43.6484 72.1507 43.6408C72.1507 43.5988 72.1052 43.6021 72.1052 43.6323V43.6323ZM71.4937 43.0774C71.4937 43.113 71.5421 43.113 71.5421 43.0718C71.5421 43.0523 71.4937 43.0443 71.4937 43.0774ZM72.1365 43.3279C72.1365 43.3137 72.1226 43.3022 72.1109 43.3022C72.0739 43.3022 72.0837 43.3626 72.1183 43.3498C72.1292 43.3458 72.1365 43.3417 72.1365 43.3279ZM72.0853 43.6152C72.1076 43.6152 72.1168 43.6059 72.1183 43.5858C72.122 43.5384 72.0542 43.5366 72.0552 43.584C72.0554 43.5947 72.0727 43.6152 72.0853 43.6152V43.6152ZM72.4863 43.564C72.4863 43.553 72.4756 43.5327 72.4579 43.5327C72.4359 43.5327 72.4313 43.5354 72.4208 43.5583C72.3984 43.6072 72.4863 43.6304 72.4863 43.564V43.564ZM70.7116 43.2396C70.7116 43.2554 70.7336 43.2758 70.7489 43.2758C70.7635 43.2758 70.7855 43.2573 70.7855 43.2396C70.7855 43.2137 70.7647 43.212 70.7599 43.1913C70.7294 43.1919 70.7116 43.2127 70.7116 43.2396V43.2396ZM71.6302 43.1287C71.6302 43.1653 71.6725 43.177 71.6843 43.177C71.7178 43.177 71.7085 43.1018 71.653 43.0888C71.6409 43.0969 71.6302 43.117 71.6302 43.1287ZM70.6291 43.0035C70.6291 43.0412 70.6467 43.0318 70.6681 43.0441C70.6814 43.0517 70.6796 43.0803 70.7144 43.0803C70.7455 43.0803 70.7571 43.0477 70.7338 43.0239C70.7123 43.0018 70.7001 43.0312 70.6859 42.9979C70.6711 42.963 70.6291 42.9885 70.6291 43.0035V43.0035ZM71.2605 42.8868C71.2608 42.9006 71.2642 42.9103 71.2706 42.9194C71.2859 42.9413 71.336 43.0017 71.3607 42.9672C71.377 42.9445 71.3636 42.9119 71.3419 42.8993C71.3335 42.8945 71.3274 42.8911 71.3201 42.8869C71.3008 42.8756 71.2795 42.874 71.2605 42.8868V42.8868ZM71.9858 42.9864C71.9858 43.0096 71.9911 42.9972 72.0131 43.0331C72.0291 43.059 72.0059 43.0664 72.0092 43.0912C72.0136 43.1242 72.0739 43.123 72.0739 43.0803C72.0739 43.0663 72.0657 43.0566 72.0709 43.0462C72.0758 43.0362 72.1036 43.0251 72.0798 42.9919C72.0612 42.9658 72.0335 42.9781 72.0191 42.98L71.9858 42.9864ZM71.4994 43.1628C71.4994 43.1895 71.5209 43.1825 71.5325 43.1895C71.5715 43.213 71.5388 43.2124 71.5876 43.2084C71.5602 43.2492 71.6069 43.2625 71.6075 43.2624C71.6183 43.261 71.6486 43.2358 71.6241 43.2088C71.6162 43.2002 71.6137 43.2026 71.599 43.2026C71.6078 43.1893 71.6132 43.1883 71.6132 43.1657C71.6132 43.1233 71.5832 43.1201 71.5591 43.1201C71.5487 43.1201 71.5376 43.1374 71.5292 43.1414C71.5255 43.1431 71.4994 43.1475 71.4994 43.1628V43.1628ZM70.612 42.9011C70.612 42.921 70.6247 42.9176 70.6377 42.9238C70.6377 42.955 70.619 42.9722 70.6803 42.9722C70.6975 42.9722 70.7026 42.9605 70.7059 42.9465C70.7148 42.9531 70.7103 42.9579 70.7201 42.9579C70.7268 42.9579 70.7285 42.9521 70.74 42.9494C70.7413 42.9647 70.746 42.9567 70.7483 42.9724C70.7529 43.0043 70.7459 43.032 70.7912 43.032C70.8069 43.032 70.847 43.0192 70.8133 42.9786C70.8087 42.973 70.8023 42.9629 70.7987 42.9561C70.792 42.9434 70.7956 42.9254 70.773 42.9106C70.7549 42.8988 70.7348 42.9056 70.7343 42.9295C70.7191 42.9295 70.7127 42.9272 70.7087 42.938C70.6964 42.9347 70.6782 42.92 70.6698 42.9115C70.6562 42.8979 70.6635 42.9076 70.647 42.903C70.6354 42.8997 70.6365 42.8897 70.6263 42.8897C70.6204 42.8897 70.612 42.898 70.612 42.9011V42.9011ZM71.2747 43.0689C71.2747 43.1077 71.3086 43.1468 71.3381 43.162C71.3851 43.1861 71.4043 43.1673 71.4417 43.1449C71.4635 43.1319 71.4795 43.115 71.4795 43.086C71.4795 43.0381 71.3933 42.9835 71.36 42.9835C71.3364 42.9835 71.3006 43.0215 71.2867 43.0382C71.2794 43.0469 71.2747 43.0535 71.2747 43.0689V43.0689ZM48.7746 40.7608V40.47H48.4837L47.4194 41.5343L46.3553 40.47H46.0644V40.7609L47.1286 41.8251L46.0644 42.8893V43.1802H46.3553L47.4194 42.1159L48.4837 43.1802H48.7746V42.8894L47.7103 41.8251L48.7746 40.7608ZM73.5366 61.83C73.7566 61.83 73.9349 62.0083 73.9349 62.2283C73.9349 62.4483 73.7566 62.6266 73.5366 62.6266C73.3167 62.6266 73.1383 62.4483 73.1383 62.2283C73.1383 62.0083 73.3167 61.83 73.5366 61.83ZM79.9091 61.83C80.1291 61.83 80.3074 62.0083 80.3074 62.2283C80.3074 62.4483 80.1291 62.6266 79.9091 62.6266C79.6892 62.6266 79.5108 62.4483 79.5108 62.2283C79.5108 62.0083 79.6892 61.83 79.9091 61.83ZM67.1642 61.83C67.3841 61.83 67.5625 62.0083 67.5625 62.2283C67.5625 62.4483 67.3841 62.6266 67.1642 62.6266C66.9442 62.6266 66.7659 62.4483 66.7659 62.2283C66.7659 62.0083 66.9442 61.83 67.1642 61.83ZM70.3504 61.83C70.5704 61.83 70.7487 62.0083 70.7487 62.2283C70.7487 62.4483 70.5704 62.6266 70.3504 62.6266C70.1304 62.6266 69.9521 62.4483 69.9521 62.2283C69.9521 62.0083 70.1304 61.83 70.3504 61.83ZM76.7228 61.83C76.9428 61.83 77.1212 62.0083 77.1212 62.2283C77.1212 62.4483 76.9428 62.6266 76.7228 62.6266C76.5029 62.6266 76.3246 62.4483 76.3246 62.2283C76.3246 62.0083 76.5029 61.83 76.7228 61.83ZM63.9779 61.83C64.1979 61.83 64.3762 62.0083 64.3762 62.2283C64.3762 62.4483 64.1979 62.6266 63.9779 62.6266C63.7579 62.6266 63.5796 62.4483 63.5796 62.2283C63.5796 62.0083 63.7579 61.83 63.9779 61.83ZM71.9435 61.83C72.1635 61.83 72.3418 62.0083 72.3418 62.2283C72.3418 62.4483 72.1635 62.6266 71.9435 62.6266C71.7235 62.6266 71.5452 62.4483 71.5452 62.2283C71.5452 62.0083 71.7235 61.83 71.9435 61.83ZM78.316 61.83C78.5359 61.83 78.7143 62.0083 78.7143 62.2283C78.7143 62.4483 78.5359 62.6266 78.316 62.6266C78.096 62.6266 77.9177 62.4483 77.9177 62.2283C77.9177 62.0083 78.096 61.83 78.316 61.83ZM65.571 61.83C65.791 61.83 65.9694 62.0083 65.9694 62.2283C65.9694 62.4483 65.791 62.6266 65.571 62.6266C65.3511 62.6266 65.1727 62.4483 65.1727 62.2283C65.1727 62.0083 65.3511 61.83 65.571 61.83ZM81.5022 61.83C81.7222 61.83 81.9005 62.0083 81.9005 62.2283C81.9005 62.4483 81.7222 62.6266 81.5022 62.6266C81.2823 62.6266 81.1039 62.4483 81.1039 62.2283C81.1039 62.0083 81.2823 61.83 81.5022 61.83ZM68.7573 61.83C68.9773 61.83 69.1556 62.0083 69.1556 62.2283C69.1556 62.4483 68.9773 62.6266 68.7573 62.6266C68.5373 62.6266 68.359 62.4483 68.359 62.2283C68.359 62.0083 68.5373 61.83 68.7573 61.83ZM75.1297 61.83C75.3497 61.83 75.5281 62.0083 75.5281 62.2283C75.5281 62.4483 75.3497 62.6266 75.1297 62.6266C74.9098 62.6266 74.7315 62.4483 74.7315 62.2283C74.7315 62.0083 74.9098 61.83 75.1297 61.83ZM62.3848 61.83C62.6048 61.83 62.7831 62.0083 62.7831 62.2283C62.7831 62.4483 62.6048 62.6266 62.3848 62.6266C62.1648 62.6266 61.9865 62.4483 61.9865 62.2283C61.9865 62.0083 62.1648 61.83 62.3848 61.83ZM61.3153 41.9211V38.5868H72.7597C74.8809 38.5868 76.5055 38.7679 77.623 39.1352C78.7457 39.4974 79.6511 40.1751 80.3392 41.1582C81.0274 42.1464 81.3688 43.3518 81.3688 44.7694C81.3688 46.0008 81.105 47.0666 80.5772 47.9617C80.0547 48.8619 79.3304 49.5862 78.4042 50.145C77.8196 50.4968 77.0125 50.7917 75.9933 51.0245C76.8108 51.2987 77.4057 51.5677 77.7782 51.842C78.0266 52.0231 78.3939 52.4163 78.875 53.0112C79.351 53.6062 79.6718 54.0667 79.8322 54.3926L83.1693 60.8133H75.4086L71.7404 54.0357C71.2748 53.1561 70.8609 52.587 70.4988 52.3231C70.002 51.9817 69.4381 51.8109 68.8121 51.8109H68.2068V60.8133H63.8607L64.7153 59.1391C63.4044 58.5742 62.6383 58.0992 61.4558 57.3017C63.0701 55.3941 63.8771 52.8558 63.8771 49.6816C63.8771 46.3936 63.0232 43.8041 61.3153 41.9211V41.9211ZM68.2134 43.309L68.6514 43.0167C68.9563 42.858 69.2224 42.7525 69.5488 42.6732L69.5463 42.6799C69.5421 42.6907 69.5398 42.6978 69.5359 42.7094C69.5231 42.7471 69.5142 42.7487 69.5414 42.7941C69.5494 42.8075 69.5594 42.8384 69.5767 42.8384C69.5954 42.8384 69.6126 42.8008 69.62 42.7935C69.6331 42.7805 69.6727 42.7561 69.6517 42.7066C69.6448 42.6904 69.6412 42.692 69.6304 42.6824C69.6263 42.6788 69.6208 42.6679 69.6131 42.658C69.6305 42.6541 69.648 42.6502 69.6657 42.6464C69.6691 42.6644 69.6688 42.6726 69.7039 42.7141C69.7081 42.7192 69.7094 42.722 69.7137 42.7271C69.7243 42.7399 69.7502 42.7572 69.7645 42.7644C69.7925 42.7787 69.7917 42.7839 69.8057 42.8114C69.8108 42.8215 69.8161 42.8278 69.8214 42.8384C69.8417 42.8793 69.8414 42.8982 69.8412 42.9523C69.8411 42.9712 69.8442 42.9768 69.8442 42.9948L69.8413 43.0974C69.841 43.1189 69.8356 43.1289 69.8356 43.1515C69.8356 43.1896 69.8341 43.2183 69.8544 43.2549C69.8652 43.2743 69.8839 43.2852 69.9095 43.2852C69.9278 43.2852 69.9416 43.2717 69.9513 43.2587L69.9596 43.2442C69.9724 43.2214 69.9695 43.1917 69.9719 43.1627C69.9744 43.1332 69.9725 43.0993 69.9748 43.0716C69.9759 43.0573 69.9752 43.0408 69.9733 43.0279C69.9692 43.0007 69.9739 42.9737 69.9738 42.9669C69.9731 42.9387 69.9677 42.9108 69.9781 42.8786C69.9907 42.84 69.9836 42.8212 69.9877 42.8029C69.9909 42.7887 69.9979 42.7855 70.007 42.7766C70.0244 42.7592 70.0413 42.7393 70.0493 42.7136C70.051 42.7082 70.0515 42.7017 70.0537 42.6953C70.0595 42.6783 70.0717 42.6794 70.0717 42.6649C70.0717 42.6462 70.0561 42.6429 70.0468 42.6328C70.0332 42.6178 70.0238 42.6034 70.0162 42.5885C70.0371 42.5862 70.0581 42.5841 70.0792 42.5821C70.0838 42.6008 70.1004 42.6137 70.1342 42.6137C70.125 42.6216 70.1117 42.6229 70.109 42.6371C70.1057 42.6544 70.1157 42.6832 70.1248 42.697C70.1294 42.7039 70.1293 42.7067 70.1333 42.7142C70.1427 42.7319 70.1456 42.7259 70.1456 42.7531C70.1275 42.7627 70.1314 42.7646 70.12 42.773C70.1015 42.7681 70.099 42.7292 70.0529 42.7428C70.0339 42.7484 70.0293 42.7732 70.0206 42.7874C69.9981 42.824 70.0189 42.821 70.0125 42.8445C70.0055 42.8706 69.9858 42.8948 70.0085 42.9215C70.0142 42.9282 70.0318 42.9371 70.0403 42.9409C70.0558 42.9478 70.0604 42.9468 70.0799 42.9497C70.104 42.9533 70.1019 42.9808 70.1513 42.981C70.196 42.9812 70.2209 42.938 70.1957 42.8965C70.1919 42.8903 70.1888 42.8867 70.185 42.8815C70.1829 42.8786 70.1826 42.8778 70.1804 42.8748L70.178 42.8715C70.175 42.8679 70.1767 42.8695 70.1738 42.8672C70.164 42.8593 70.1495 42.8562 70.1399 42.8498C70.1399 42.8335 70.1425 42.8281 70.1427 42.8157C70.1653 42.8138 70.1759 42.7956 70.1976 42.8149C70.2174 42.8323 70.2095 42.8386 70.2394 42.8499C70.267 42.8603 70.3363 42.8612 70.3598 42.886C70.3854 42.913 70.3911 42.9883 70.3853 43.0127C70.3811 43.03 70.3662 43.0559 70.3655 43.0693L70.3786 43.1346C70.3804 43.1598 70.3871 43.1741 70.3907 43.1993C70.3951 43.2303 70.3908 43.2433 70.3877 43.2714C70.3865 43.2833 70.3883 43.2956 70.3869 43.3075C70.3856 43.3199 70.3844 43.3283 70.3845 43.3449L70.3844 43.5812C70.3846 43.597 70.3873 43.5993 70.3874 43.6151L70.3902 43.7319C70.3901 43.8323 70.3959 43.9383 70.3959 44.0392L70.3971 44.268C70.3928 44.2964 70.4019 44.3266 70.3947 44.3766C70.3928 44.3895 70.394 44.4012 70.3922 44.414C70.3844 44.4734 70.3814 44.572 70.3692 44.6271L70.3444 44.7588C70.3401 44.7964 70.3452 44.7827 70.3475 44.8075C70.348 44.8137 70.3472 44.8209 70.3476 44.8272C70.3483 44.8369 70.3526 44.8519 70.3559 44.8588C70.3604 44.8685 70.3668 44.8728 70.3769 44.8777C70.3815 44.8799 70.3989 44.8877 70.4028 44.8887C70.4049 44.8893 70.4072 44.8897 70.4095 44.89H70.423C70.4292 44.8895 70.435 44.8884 70.439 44.8876C70.467 44.8814 70.4655 44.8673 70.4805 44.8495C70.5179 44.8056 70.4942 44.7311 70.5035 44.679C70.5059 44.6656 70.5057 44.6579 70.5076 44.6432C70.5104 44.6214 70.5102 44.5938 70.5137 44.5696C70.5211 44.5192 70.5092 44.4707 70.5165 44.4217C70.5219 44.3856 70.5211 44.3456 70.521 44.3094C70.5208 44.292 70.5235 44.2874 70.5239 44.2726C70.5252 44.23 70.5241 44.1151 70.5274 44.0825C70.5283 44.0731 70.5295 44.0672 70.5296 44.0507C70.53 43.9731 70.5252 43.6223 70.5312 43.5827C70.5341 43.5635 70.5266 43.3858 70.5268 43.3534C70.527 43.2946 70.5041 43.1883 70.513 43.1349C70.5147 43.1247 70.5212 43.1164 70.5267 43.1087C70.5451 43.0835 70.5596 43.0636 70.565 43.0304C70.5691 43.0049 70.565 42.9792 70.5725 42.9582C70.5875 42.9161 70.5792 42.9158 70.6178 42.8869C70.633 42.8756 70.6369 42.8544 70.6587 42.8507C70.6709 42.8486 70.6742 42.8568 70.6855 42.8616C70.6985 42.8671 70.7038 42.8648 70.7185 42.8685C70.7356 42.8727 70.7311 42.877 70.7372 42.8897H70.7514C70.7552 42.8818 70.7558 42.8726 70.7599 42.8641C70.7731 42.861 70.7829 42.8607 70.7999 42.8611C70.8276 42.8617 70.8433 42.8746 70.8426 42.9038C70.8423 42.918 70.837 42.925 70.8326 42.9369C70.8256 42.9562 70.8278 42.9526 70.834 42.9693C70.8385 42.9813 70.8343 42.9902 70.8321 43.0046C70.8269 43.0385 70.8367 43.0556 70.8367 43.086C70.8209 43.086 70.8202 43.0884 70.8111 43.0945C70.8111 43.1289 70.8219 43.1224 70.8424 43.1087C70.8452 43.1424 70.848 43.1813 70.8481 43.2169C70.8482 43.2413 70.844 43.2455 70.8489 43.2673C70.858 43.3083 70.8572 43.3742 70.8639 43.423C70.8728 43.4866 70.8657 43.5668 70.8875 43.627L70.9095 43.6904C70.9192 43.7239 70.9291 43.8239 70.9343 43.8648L70.9399 43.9003C70.948 43.9908 70.9518 44.0329 70.9506 44.1303C70.9504 44.1441 70.9487 44.1452 70.9478 44.156L70.9444 44.2095C70.9429 44.2197 70.9402 44.2214 70.9393 44.2328C70.9362 44.2686 70.9363 44.3042 70.9363 44.3437C70.9363 44.4014 70.932 44.3999 70.9567 44.437C70.9743 44.4634 70.9923 44.4804 71.0269 44.4743C71.0665 44.4672 71.0725 44.4525 71.087 44.4205C71.0977 44.397 71.1006 44.3482 71.0963 44.3172C71.0933 44.2951 71.0979 44.2821 71.0985 44.264C71.0998 44.2263 71.0898 44.1488 71.0898 44.1018C71.0898 44.0843 71.0923 44.0619 71.0878 44.0469C71.0833 44.0322 71.0851 44.0109 71.0842 43.9936L71.075 43.889C71.0649 43.8477 71.0774 43.7772 71.0602 43.7331C71.0542 43.7175 71.0501 43.7072 71.0499 43.6865C71.0496 43.6517 71.0526 43.5641 71.0809 43.5465C71.0936 43.5385 71.1105 43.5375 71.1121 43.5179C71.1132 43.5035 71.1001 43.4891 71.0844 43.4899C71.0707 43.4905 71.0739 43.4959 71.0613 43.4957C71.0502 43.4956 71.0519 43.4921 71.0426 43.486C71.0108 43.4652 71.0187 43.4743 71.0188 43.3961C71.0188 43.3351 71.0101 43.2459 71.0046 43.1827C71.0027 43.1603 70.9921 43.0991 70.9973 43.0788C70.9988 43.0728 70.9996 43.0734 71.0008 43.068C71.0069 43.0409 70.9998 43.0018 71.0086 42.9763C71.0137 42.9615 71.0188 42.9498 71.0233 42.934C71.0345 42.8941 71.0396 42.8903 71.063 42.86C71.076 42.8433 71.0772 42.8425 71.0955 42.8327C71.1259 42.8592 71.0996 42.8804 71.1417 42.9118C71.171 42.9337 71.2037 42.9162 71.2293 42.8982C71.2447 42.8873 71.2554 42.8743 71.2682 42.8603L71.2765 42.8516C71.2835 42.8451 71.2866 42.8431 71.2919 42.8357C71.3062 42.8156 71.3167 42.7614 71.3401 42.7559C71.3354 42.7762 71.3306 42.7683 71.3404 42.7926C71.3593 42.8393 71.4105 42.8213 71.4113 42.8697C71.4118 42.903 71.4261 42.9139 71.4475 42.9331L71.4901 42.9644C71.5202 42.99 71.522 42.942 71.5307 42.9238C71.5393 42.9261 71.5834 42.9631 71.5841 42.9729C71.5852 42.9896 71.5309 42.9732 71.5128 43.0026C71.4886 43.0419 71.5473 43.0579 71.5714 43.0709C71.6168 43.0953 71.6695 43.0638 71.6614 43.0094C71.6592 42.9952 71.6536 42.9984 71.6501 42.9835L71.6583 42.9774C71.6666 42.98 71.6745 42.9921 71.6801 42.9991C71.6845 43.0046 71.6816 43.0122 71.6871 43.0177C71.6954 43.026 71.708 43.0142 71.7159 43.0403C71.7224 43.0618 71.6966 43.0965 71.7242 43.1428C71.7315 43.155 71.7316 43.1533 71.7347 43.1693C71.7413 43.2031 71.7566 43.1814 71.774 43.2353C71.7861 43.2727 71.7795 43.2702 71.8155 43.299C71.826 43.3073 71.8446 43.3237 71.8432 43.3418C71.8423 43.3536 71.8369 43.3509 71.8377 43.3704C71.8388 43.3979 71.8467 43.3992 71.8418 43.4345C71.84 43.4471 71.8433 43.4516 71.8437 43.4643C71.8447 43.4985 71.8439 43.4987 71.8531 43.526C71.8568 43.537 71.8699 43.5674 71.876 43.5742C71.886 43.5852 71.9081 43.5963 71.9233 43.5927C71.9373 43.5893 71.9576 43.5739 71.9648 43.5629C71.9721 43.5515 71.9759 43.5228 71.9783 43.505C71.9819 43.4768 71.9549 43.4524 71.9603 43.4222C71.9629 43.408 71.9687 43.416 71.9687 43.3933C71.9563 43.3873 71.9556 43.3942 71.9477 43.3802L71.9305 43.3462C71.9162 43.3252 71.9242 43.3256 71.9201 43.3024C71.9175 43.2875 71.8975 43.2805 71.8974 43.254C71.8973 43.2284 71.9057 43.2338 71.9008 43.1909C71.8956 43.1449 71.9152 43.1298 71.8713 43.0866C71.8547 43.0703 71.822 43.0626 71.8105 43.0419C71.8041 43.0304 71.8096 43.0259 71.8151 43.0177C71.8317 43.0177 71.838 43.0226 71.8482 43.0301C71.8659 43.0434 71.8589 43.0437 71.8658 43.0609C71.8702 43.0718 71.8847 43.0785 71.8965 43.071C71.9049 43.0656 71.9103 43.0523 71.9188 43.0446C71.9518 43.0149 71.9491 43.0039 71.9277 42.9677C71.9085 42.9352 71.9306 42.9554 71.8919 42.9295C71.8919 42.9011 71.9154 42.9015 71.9121 42.8347C71.9563 42.8518 72 42.8697 72.0432 42.8884C72.0398 42.8965 72.0381 42.9038 72.0448 42.913C72.1101 43.0021 72.1565 42.8942 72.1264 43.0644C72.1207 43.0966 72.1046 43.0912 72.1026 43.1234C72.101 43.1493 72.1221 43.1611 72.1268 43.1839C72.1346 43.2212 72.1429 43.3009 72.1407 43.3355C72.1394 43.3568 72.1417 43.3478 72.1467 43.366C72.1545 43.3942 72.1425 43.3981 72.156 43.4364C72.174 43.4873 72.2247 43.4797 72.2248 43.5782C72.2248 43.6065 72.2253 43.6306 72.2275 43.6579C72.2288 43.6733 72.2334 43.6732 72.2333 43.6948C72.2332 43.7385 72.2266 43.7699 72.2502 43.8031C72.2784 43.8426 72.3327 43.8377 72.359 43.7951C72.3889 43.7466 72.3817 43.7103 72.3746 43.6559C72.3719 43.6353 72.3697 43.5993 72.3697 43.5754C72.3698 43.5379 72.3769 43.4903 72.373 43.4583C72.3677 43.4155 72.4006 43.4078 72.3503 43.3672C72.3432 43.3615 72.3336 43.3541 72.3256 43.3493C72.3156 43.3433 72.3062 43.3467 72.2941 43.3437L72.2822 43.3357C72.2753 43.3247 72.2771 43.307 72.275 43.2945C72.2727 43.2805 72.2711 43.2532 72.2674 43.2395C72.2587 43.207 72.2563 43.1616 72.2731 43.1344C72.2957 43.0977 72.2878 43.1148 72.3015 43.0689C72.3068 43.0508 72.313 43.0362 72.3168 43.0225C72.3541 43.0431 72.3908 43.0643 72.4267 43.0862C72.4402 43.1073 72.438 43.1032 72.438 43.1543L72.4388 43.3371C72.4317 43.3879 72.448 43.3498 72.4181 43.4104C72.4103 43.4261 72.4032 43.4388 72.3916 43.4521C72.3869 43.4575 72.3811 43.4602 72.3811 43.4673C72.3811 43.4805 72.3981 43.5065 72.4086 43.5109C72.4323 43.5206 72.4952 43.5274 72.5246 43.5084C72.5582 43.4867 72.5648 43.4526 72.5659 43.4131C72.5663 43.3988 72.5687 43.3974 72.5689 43.382C72.5696 43.3281 72.5629 43.2779 72.5631 43.2396C72.5632 43.2151 72.5649 43.1953 72.5658 43.177C72.6698 43.2494 72.7666 43.3282 72.8548 43.4134C73.1525 43.7011 73.2528 43.8144 73.4592 44.2098C73.8475 44.9537 73.6532 45.9775 73.0805 46.5712C72.8541 46.8058 72.7487 46.9111 72.4601 47.0927C71.2184 47.8743 69.515 47.8241 68.3195 46.9811L68.2134 46.9014C68.2347 46.9814 68.6417 47.3216 68.7225 47.3882C69.2754 47.8442 70.1567 48.1692 70.8679 48.25C72.1962 48.4008 73.478 48.1003 74.4941 47.2284C75.0663 46.7374 75.508 45.9282 75.508 45.1749C75.508 44.1696 75.0533 43.4132 74.2895 42.8148C72.9967 41.8018 71.1068 41.6831 69.6329 42.2921C69.0975 42.5133 68.6765 42.8131 68.278 43.2275C68.2609 43.2453 68.2189 43.2884 68.2134 43.309V43.309ZM70.1684 42.5749L70.173 42.5745C70.1719 42.5764 70.1703 42.5781 70.1684 42.5795V42.5749ZM75.2321 54.8108C75.3493 54.7562 75.493 54.8164 75.5531 54.9453C75.6133 55.0742 75.567 55.223 75.4498 55.2776C75.3327 55.3323 75.1889 55.2721 75.1288 55.1432C75.0687 55.0142 75.115 54.8654 75.2321 54.8108ZM71.4496 52.3185L75.7511 60.2294L77.1887 57.2124L74.4368 52.2455L71.4496 52.3185ZM54.8894 53.3977H55.9909L56.1099 51.721H54.8894H54.8625C54.7731 52.3164 54.6321 52.883 54.4231 53.3977H54.8894ZM54.8894 46.6907H56.4669L56.5858 45.014H54.8894H53.6032C54.0349 45.4752 54.3468 46.0454 54.5643 46.6907H54.8894ZM61.0614 46.6907V48.3675H61.791C61.7405 47.7832 61.6592 47.2243 61.547 46.6907H61.0614ZM61.0614 50.0442V51.721H61.7506C61.8117 51.1836 61.8454 50.6248 61.8516 50.0442H61.0614ZM61.0614 53.3977V54.6684C61.2144 54.2623 61.3452 53.8387 61.4538 53.3977H61.0614Z" fill="black"/>
<path fill-rule="evenodd" clip-rule="evenodd" d="M82.1855 64.0488H70.0982C69.9598 64.2813 69.8214 64.5137 69.683 64.7462C68.3466 66.9905 66.9207 68.9864 65.0495 70.7782C63.6292 72.1383 61.9334 73.3984 59.7996 74.5844C59.8067 73.4319 59.8138 72.2793 59.8209 71.1267C59.8216 70.9492 59.8223 70.7717 59.8231 70.5942C62.2928 68.9492 64.5502 66.7674 66.4553 64.0488H62.8375C61.2419 65.978 59.4326 67.5378 57.4925 68.7285C54.3559 70.6534 50.8742 71.6118 47.4035 71.605C43.936 71.5981 40.4695 70.6266 37.3599 68.6919C35.457 67.508 33.6851 65.9603 32.1238 64.0488H28.5175C30.3604 66.7133 32.5528 68.8648 34.9612 70.502C34.9621 70.7135 34.963 70.925 34.9639 71.1366C34.9709 72.2891 34.978 73.4417 34.9851 74.5942C32.8513 73.4083 31.1555 72.1481 29.7352 70.788C27.8641 68.9962 26.4381 67.0003 25.1018 64.756C24.9634 64.5235 24.825 64.2911 24.6866 64.0586C23.2441 64.0405 22.9428 64.0518 21.5 64.0586C23.1762 67.4139 24.8033 70.0248 27.6368 72.7381C30.6283 75.6028 33.9784 77.5589 37.9536 78.9134C37.9393 76.6761 37.9679 74.4594 37.9536 72.2222C40.9668 73.6696 44.1599 74.3766 47.4035 74.3831C50.6293 74.3894 53.8141 73.7021 56.8312 72.2806C56.817 74.4949 56.8453 76.6892 56.8312 78.9035C60.8063 77.5491 64.1565 75.593 67.148 72.7283C69.0366 70.9198 70.4962 68.9641 71.8293 66.8083L80.2739 66.8162L82.1855 64.0488Z" fill="#FF0000"/>
</svg>
