<svg width="40" height="40" viewBox="0 0 40 40" fill="none" xmlns="http://www.w3.org/2000/svg">
<g clip-path="url(#clip0_1917_238)">
<path d="M5.96699 35.3267H29.732L28.597 31.6517L31.312 33.9817L33.8003 36.2117L38.3336 40V4.125C38.2203 1.895 36.3003 0 33.9203 0L5.97532 0.005C3.59699 0.005 1.66699 1.90333 1.66699 4.13333V31.2C1.66699 33.5517 3.59366 35.3267 5.96699 35.3267ZM23.547 9.47167L23.492 9.49167L23.512 9.47167H23.547ZM10.8287 11.5867C13.8837 9.36333 16.7153 9.47 16.7153 9.47L16.9437 9.695C13.2053 10.5867 11.5103 12.2567 11.5103 12.2567C11.5103 12.2567 11.9637 12.035 12.7553 11.6967C17.7903 9.71667 23.2887 9.86 28.3787 12.3667C28.3787 12.3667 26.6803 10.805 23.172 9.805L23.482 9.5C23.967 9.50167 26.5337 9.59167 29.2803 11.6C29.2803 11.6 32.3537 16.85 32.3537 23.3C32.252 23.1767 30.447 26.0767 25.802 26.1767C25.802 26.1767 25.0153 25.2867 24.4553 24.51C27.172 23.73 28.1887 22.17 28.1887 22.17C27.297 22.7317 26.4837 23.065 25.8237 23.3983C24.8087 23.845 23.792 24.065 22.777 24.29C17.9703 25.07 15.272 23.765 12.722 22.73L11.8503 22.2867C11.8503 22.2867 12.8653 23.8467 15.4737 24.6267C14.7887 25.4083 14.1103 26.2967 14.1103 26.2967C9.46699 26.1867 7.77366 23.2867 7.77366 23.2867C7.77366 16.8267 10.8287 11.5867 10.8287 11.5867Z" fill="white"/>
<path d="M23.8463 21.2845C25.0313 21.2845 25.9963 20.2845 25.9963 19.0512C25.9963 17.8262 25.0363 16.8262 23.8463 16.8262V16.8312C22.6663 16.8312 21.6996 17.8278 21.6963 19.0612C21.6963 20.2845 22.6613 21.2845 23.8463 21.2845Z" fill="white"/>
<path d="M16.15 21.2845C17.335 21.2845 18.3 20.2845 18.3 19.0512C18.3 17.8262 17.3417 16.8262 16.1567 16.8262L16.15 16.8312C14.965 16.8312 14 17.8278 14 19.0612C14 20.2845 14.965 21.2845 16.15 21.2845Z" fill="white"/>
</g>
<defs>
<clipPath id="clip0_1917_238">
<rect width="40" height="40" fill="white"/>
</clipPath>
</defs>
</svg>
