<svg width="40" height="40" viewBox="0 0 40 40" fill="none" xmlns="http://www.w3.org/2000/svg">
<g clip-path="url(#clip0_1917_246)">
<path d="M0.706518 19.2852L9.92332 22.7252L13.4908 34.1981C13.7191 34.9329 14.6176 35.2045 15.214 34.7169L20.3516 30.5287C20.8901 30.0899 21.6572 30.068 22.22 30.4765L31.4864 37.2041C32.1244 37.6679 33.0282 37.3183 33.1882 36.5473L39.9764 3.8952C40.151 3.05307 39.3236 2.35053 38.5217 2.66067L0.695718 17.2528C-0.237749 17.6128 -0.229615 18.9344 0.706518 19.2852ZM12.9159 20.894L30.9289 9.79973C31.2526 9.60093 31.5857 10.0387 31.3077 10.2965L16.4417 24.1152C15.9192 24.6016 15.5821 25.2525 15.4867 25.9591L14.9803 29.7119C14.9132 30.2129 14.2093 30.2627 14.0711 29.7777L12.1235 22.9344C11.9004 22.1539 12.2255 21.3201 12.9159 20.894Z" fill="white"/>
</g>
<defs>
<clipPath id="clip0_1917_246">
<rect width="40" height="40" fill="white"/>
</clipPath>
</defs>
</svg>
