<svg width="40" height="41" viewBox="0 0 40 41" fill="none" xmlns="http://www.w3.org/2000/svg">
<path d="M37.9578 10.8488C37.5256 9.24373 36.259 7.9785 34.6527 7.54631C31.7182 6.74414 19.98 6.74414 19.98 6.74414C19.98 6.74414 8.24226 6.74414 5.30777 7.5159C3.73238 7.94763 2.43484 9.24395 2.00272 10.8488C1.23047 13.7803 1.23047 19.8599 1.23047 19.8599C1.23047 19.8599 1.23047 25.9702 2.00272 28.8711C2.4353 30.4759 3.70148 31.7411 5.308 32.1733C8.27316 32.9757 19.9805 32.9757 19.9805 32.9757C19.9805 32.9757 31.7182 32.9757 34.6527 32.204C36.2592 31.772 37.5256 30.5068 37.9582 28.902C38.7302 25.9702 38.7302 19.8908 38.7302 19.8908C38.7302 19.8908 38.7611 13.7803 37.9578 10.8488ZM16.2428 25.4765V14.2434L26.0037 19.8599L16.2428 25.4765Z" fill="white"/>
</svg>
