<?xml version="1.0" encoding="utf-8"?>
<!-- Generator: Adobe Illustrator 17.1.0, SVG Export Plug-In . SVG Version: 6.00 Build 0)  -->
<!DOCTYPE svg PUBLIC "-//W3C//DTD SVG 1.1//EN" "http://www.w3.org/Graphics/SVG/1.1/DTD/svg11.dtd">
<svg version="1.1" id="Layer_1" xmlns="http://www.w3.org/2000/svg" xmlns:xlink="http://www.w3.org/1999/xlink" x="0px" y="0px"
	 viewBox="0 48.3 649 374" enable-background="new 0 48.3 649 374" xml:space="preserve">
<g>
	<polygon fill="#141414" points="395.3,170.8 466,211.6 395.3,252.5 324.5,211.6 	"/>
	<polygon fill="none" stroke="#FFFFFF" stroke-width="4" points="324.5,230.8 391.8,269.6 324.5,308.5 257.3,269.6 	"/>
	<polygon fill="none" stroke="#FFFFFF" stroke-width="4" points="183.1,312.5 250.4,351.3 183.1,390.1 115.9,351.3 	"/>
	<polygon fill="none" stroke="#FFFFFF" stroke-width="4" points="466,230.8 533.2,269.6 466,308.5 398.7,269.6 	"/>
	<polygon fill="none" stroke="#FFFFFF" stroke-width="4" points="324.5,312.5 391.8,351.3 324.5,390.1 257.3,351.3 	"/>
	<polygon fill="none" stroke="#FFFFFF" stroke-width="4" points="466,312.5 533.2,351.3 466,390.1 398.7,351.3 	"/>
	<polygon fill="none" stroke="#FFFFFF" stroke-width="4" points="324.5,394.1 391.8,432.9 324.5,471.7 257.3,432.9 	"/>
	
		<linearGradient id="SVGID_1_" gradientUnits="userSpaceOnUse" x1="253.8452" y1="406.0072" x2="395.2505" y2="161.0658" gradientTransform="matrix(1 0 0 -1 0 546)">
		<stop  offset="0" style="stop-color:#833AB4"/>
		<stop  offset="0.5" style="stop-color:#FD1D1D"/>
		<stop  offset="1" style="stop-color:#FCB045"/>
	</linearGradient>
	<path fill="url(#SVGID_1_)" d="M600.5,262.5l-63.8-36.8l-63.8,36.8l63.8,36.8L600.5,262.5z M540.1,223.6l-3.5-2l-3.5,2l-63.8,36.8
		l-3.5,2l-3.5-2l-63.8-36.8l-3.5-2l-3.5,2L328,260.5l-3.5,2l3.5,2l63.8,36.8l3.5,2l3.5-2l63.8-36.8l3.5-2l3.5,2l63.8,36.8l3.5,2
		l3.5-2l63.8-36.8l3.5-2l-3.5-2L540.1,223.6z M317.6,180.8L253.8,144l-63.8,36.8l63.8,36.8L317.6,180.8z M257.3,142l-3.5-2l-3.5,2
		l-63.8,36.8l-3.5,2l3.5,2l63.8,36.8l3.5,2l3.5-2l63.8-36.8l3.5-2l-3.5-2L257.3,142z M317.6,262.5l-63.8-36.8l-63.8,36.8l63.8,36.8
		L317.6,262.5z M257.3,223.6l-3.5-2l-3.5,2l-63.8,36.8l-3.5,2l-3.5-2l-63.8-36.8l-3.5-2l-3.5,2l-63.8,36.8l-3.5,2l3.5,2l63.8,36.8
		l3.5,2l3.5-2l63.8-36.8l3.5-2l3.5,2l63.8,36.8l3.5,2l3.5-2l63.8-36.8l3.5-2l-3.5-2L257.3,223.6z M112.4,225.6l63.8,36.8l-63.8,36.8
		l-63.8-36.8L112.4,225.6z M459,262.5l-63.8-36.8l-63.8,36.8l63.8,36.8L459,262.5z M253.8,307.3l63.8,36.8l-63.8,36.8l-63.8-36.8
		L253.8,307.3z M253.8,303.3l3.5,2l63.8,36.8l3.5,2l3.5-2l63.8-36.8l3.5-2l3.5,2l63.8,36.8l3.5,2l-3.5,2l-63.8,36.8l-3.5,2l-3.5-2
		L328,346.1l-3.5-2l-3.5,2l-63.8,36.8l-3.5,2l-3.5-2l-63.8-36.8l-3.5-2l3.5-2l63.8-36.8L253.8,303.3z M395.3,307.3l63.8,36.8
		l-63.8,36.8l-63.8-36.8L395.3,307.3z"/>
	<g>
		<path fill="#141414" fill-opacity="0.76" d="M123.7,209.2L318.1,97l203.1,117.2l-194,112.2L123.7,209.2z"/>
	</g>
</g>
<g>
	
		<linearGradient id="SVGID_2_" gradientUnits="userSpaceOnUse" x1="-126.4013" y1="327.5987" x2="-46.4013" y2="327.5987" gradientTransform="matrix(0.866 0.5 0.866 -0.5 44.7971 363)">
		<stop  offset="0" style="stop-color:#EC008C"/>
		<stop  offset="1" style="stop-color:#FC6767"/>
	</linearGradient>
	<polygon fill="url(#SVGID_2_)" points="253.7,116 323,156 253.7,196 184.4,156 	"/>
</g>
<g>
	
		<linearGradient id="SVGID_3_" gradientUnits="userSpaceOnUse" x1="-126.4013" y1="327.5987" x2="-46.4013" y2="327.5987" gradientTransform="matrix(0.866 0.5 0.866 -0.5 44.5141 339)">
		<stop  offset="0" style="stop-color:#EC008C"/>
		<stop  offset="1" style="stop-color:#FC6767"/>
	</linearGradient>
	<polygon shape-rendering="crispEdges" fill="url(#SVGID_3_)" fill-opacity="0.8" points="253.4,92 322.7,132 253.4,172 184.1,132 	
		"/>
</g>
<g>
	
		<linearGradient id="SVGID_4_" gradientUnits="userSpaceOnUse" x1="-126.4013" y1="327.5987" x2="-46.4013" y2="327.5987" gradientTransform="matrix(0.866 0.5 0.866 -0.5 44.1061 315)">
		<stop  offset="0" style="stop-color:#FFE000"/>
		<stop  offset="1" style="stop-color:#799F0C"/>
	</linearGradient>
	<polygon fill="url(#SVGID_4_)" fill-opacity="0.1" points="253,68 322.3,108 253,148 183.7,108 	"/>
</g>
<g>
	
		<linearGradient id="SVGID_5_" gradientUnits="userSpaceOnUse" x1="-126.4013" y1="327.5987" x2="-46.4013" y2="327.5987" gradientTransform="matrix(0.866 0.5 0.866 -0.5 -26.2049 517)">
		<stop  offset="0" style="stop-color:#FFE000"/>
		<stop  offset="1" style="stop-color:#799F0C"/>
	</linearGradient>
	<polygon fill="url(#SVGID_5_)" points="182.7,270 252,310 182.7,350 113.4,310 	"/>
</g>
<g>
	
		<linearGradient id="SVGID_6_" gradientUnits="userSpaceOnUse" x1="-126.4013" y1="327.5987" x2="-46.4013" y2="327.5987" gradientTransform="matrix(0.866 0.5 0.866 -0.5 -26.4869 493)">
		<stop  offset="0" style="stop-color:#FFE000"/>
		<stop  offset="1" style="stop-color:#799F0C"/>
	</linearGradient>
	<polygon shape-rendering="crispEdges" fill="url(#SVGID_6_)" fill-opacity="0.8" points="182.4,246 251.7,286 182.4,326 113.1,286 
			"/>
</g>
<g>
	
		<linearGradient id="SVGID_7_" gradientUnits="userSpaceOnUse" x1="-126.4013" y1="327.5987" x2="-46.4013" y2="327.5987" gradientTransform="matrix(0.866 0.5 0.866 -0.5 -26.8959 469)">
		<stop  offset="0" style="stop-color:#FFE000"/>
		<stop  offset="1" style="stop-color:#799F0C"/>
	</linearGradient>
	<polygon fill="url(#SVGID_7_)" fill-opacity="0.1" points="182,222 251.3,262 182,302 112.7,262 	"/>
</g>
<g>
	
		<linearGradient id="SVGID_8_" gradientUnits="userSpaceOnUse" x1="-126.4013" y1="327.5987" x2="-46.4013" y2="327.5987" gradientTransform="matrix(0.866 0.5 0.866 -0.5 185.7951 394)">
		<stop  offset="0" style="stop-color:#00C6FF"/>
		<stop  offset="1" style="stop-color:#0072FF"/>
	</linearGradient>
	<polygon fill="url(#SVGID_8_)" points="394.7,147 464,187 394.7,227 325.4,187 	"/>
</g>
<g>
	
		<linearGradient id="SVGID_9_" gradientUnits="userSpaceOnUse" x1="-126.4013" y1="327.5987" x2="-46.4013" y2="327.5987" gradientTransform="matrix(0.866 0.5 0.866 -0.5 185.5131 370)">
		<stop  offset="0" style="stop-color:#00C6FF"/>
		<stop  offset="1" style="stop-color:#0072FF"/>
	</linearGradient>
	<polygon shape-rendering="crispEdges" fill="url(#SVGID_9_)" fill-opacity="0.8" points="394.4,123 463.7,163 394.4,203 325.1,163 
			"/>
</g>
<g>
	
		<linearGradient id="SVGID_10_" gradientUnits="userSpaceOnUse" x1="-126.4013" y1="327.5987" x2="-46.4013" y2="327.5987" gradientTransform="matrix(0.866 0.5 0.866 -0.5 185.1041 346)">
		<stop  offset="0" style="stop-color:#FFE000"/>
		<stop  offset="1" style="stop-color:#799F0C"/>
	</linearGradient>
	<polygon fill="url(#SVGID_10_)" fill-opacity="0.1" points="394,99 463.3,139 394,179 324.7,139 	"/>
</g>
</svg>
