<?xml version="1.0" encoding="utf-8"?>
<!-- Generator: Adobe Illustrator 17.1.0, SVG Export Plug-In . SVG Version: 6.00 Build 0)  -->
<!DOCTYPE svg PUBLIC "-//W3C//DTD SVG 1.1//EN" "http://www.w3.org/Graphics/SVG/1.1/DTD/svg11.dtd">
<svg version="1.1" id="Layer_1" xmlns="http://www.w3.org/2000/svg" xmlns:xlink="http://www.w3.org/1999/xlink" x="0px" y="0px"
	 viewBox="0 0 648 702" enable-background="new 0 0 648 702" xml:space="preserve">
<g>
	<polygon fill="#141414" points="394.6,220.8 465.3,261.6 394.6,302.5 323.8,261.6 	"/>
	<polygon fill="#141414" points="253.1,220.8 323.8,261.6 253.1,302.5 182.4,261.6 	"/>
	
		<linearGradient id="SVGID_1_" gradientUnits="userSpaceOnUse" x1="-204.8422" y1="483.3781" x2="-123.1943" y2="483.3781" gradientTransform="matrix(0.866 0.5 0.866 -0.5 47.2633 626.1411)">
		<stop  offset="0" style="stop-color:#ABBAAB"/>
		<stop  offset="1" style="stop-color:#FFFFFF"/>
	</linearGradient>
	<polygon fill="url(#SVGID_1_)" points="323.8,261.6 394.6,302.5 323.8,343.3 253.1,302.5 	"/>
	<polygon fill="#141414" points="253.1,302.5 323.8,343.3 253.1,384.1 182.4,343.3 	"/>
	<polygon fill="#141414" points="111.7,302.5 182.4,343.3 111.7,384.1 41,343.3 	"/>
	
		<linearGradient id="SVGID_2_" gradientUnits="userSpaceOnUse" x1="-204.8422" y1="483.3781" x2="-123.1943" y2="483.3781" gradientTransform="matrix(0.866 0.5 0.866 -0.5 -94.1577 707.7831)">
		<stop  offset="0" style="stop-color:#ABBAAB"/>
		<stop  offset="1" style="stop-color:#FFFFFF"/>
	</linearGradient>
	<polygon fill="url(#SVGID_2_)" points="182.4,343.3 253.1,384.1 182.4,424.9 111.7,384.1 	"/>
	
		<linearGradient id="SVGID_3_" gradientUnits="userSpaceOnUse" x1="-204.8422" y1="483.3781" x2="-123.1943" y2="483.3781" gradientTransform="matrix(0.866 0.5 0.866 -0.5 188.6843 626.1411)">
		<stop  offset="0" style="stop-color:#ABBAAB"/>
		<stop  offset="1" style="stop-color:#FFFFFF"/>
	</linearGradient>
	<polygon fill="url(#SVGID_3_)" points="465.3,261.6 536,302.5 465.3,343.3 394.6,302.5 	"/>
	
		<linearGradient id="SVGID_4_" gradientUnits="userSpaceOnUse" x1="-204.8422" y1="483.3781" x2="-123.1943" y2="483.3781" gradientTransform="matrix(0.866 0.5 0.866 -0.5 47.2633 544.498)">
		<stop  offset="0" style="stop-color:#ABBAAB"/>
		<stop  offset="1" style="stop-color:#FFFFFF"/>
	</linearGradient>
	<polygon fill="url(#SVGID_4_)" points="323.8,180 394.6,220.8 323.8,261.6 253.1,220.8 	"/>
	<polygon fill="#141414" points="394.6,302.5 465.3,343.3 394.6,384.1 323.8,343.3 	"/>
	
		<linearGradient id="SVGID_5_" gradientUnits="userSpaceOnUse" x1="-204.8422" y1="483.3781" x2="-123.1943" y2="483.3781" gradientTransform="matrix(0.866 0.5 0.866 -0.5 47.2633 707.7831)">
		<stop  offset="0" style="stop-color:#ABBAAB"/>
		<stop  offset="1" style="stop-color:#FFFFFF"/>
	</linearGradient>
	<polygon fill="url(#SVGID_5_)" points="323.8,343.3 394.6,384.1 323.8,424.9 253.1,384.1 	"/>
	
		<linearGradient id="SVGID_6_" gradientUnits="userSpaceOnUse" x1="-204.8422" y1="483.3781" x2="-123.1943" y2="483.3781" gradientTransform="matrix(0.866 0.5 0.866 -0.5 -94.1577 626.1411)">
		<stop  offset="0" style="stop-color:#ABBAAB"/>
		<stop  offset="1" style="stop-color:#FFFFFF"/>
	</linearGradient>
	<polygon fill="url(#SVGID_6_)" points="182.4,261.6 253.1,302.5 182.4,343.3 111.7,302.5 	"/>
	<polygon fill="#141414" points="253.1,384.1 323.8,424.9 253.1,465.7 182.4,424.9 	"/>
	<polygon fill="#141414" points="536,302.5 606.7,343.3 536,384.1 465.3,343.3 	"/>
	
		<linearGradient id="SVGID_7_" gradientUnits="userSpaceOnUse" x1="-204.8422" y1="483.3781" x2="-123.1943" y2="483.3781" gradientTransform="matrix(0.866 0.5 0.866 -0.5 188.6843 707.7831)">
		<stop  offset="0" style="stop-color:#ABBAAB"/>
		<stop  offset="1" style="stop-color:#FFFFFF"/>
	</linearGradient>
	<polygon fill="url(#SVGID_7_)" points="465.3,343.3 536,384.1 465.3,424.9 394.6,384.1 	"/>
	<polygon fill="#141414" points="394.6,384.1 465.3,424.9 394.6,465.7 323.8,424.9 	"/>
	
		<linearGradient id="SVGID_8_" gradientUnits="userSpaceOnUse" x1="-204.8422" y1="483.3781" x2="-123.1943" y2="483.3781" gradientTransform="matrix(0.866 0.5 0.866 -0.5 47.2633 789.4261)">
		<stop  offset="0" style="stop-color:#ABBAAB"/>
		<stop  offset="1" style="stop-color:#FFFFFF"/>
	</linearGradient>
	<polygon fill="url(#SVGID_8_)" points="323.8,424.9 394.6,465.7 323.8,506.6 253.1,465.7 	"/>
</g>
<g>
	
		<linearGradient id="SVGID_9_" gradientUnits="userSpaceOnUse" x1="-205.0142" y1="484.4576" x2="-125.0327" y2="484.4576" gradientTransform="matrix(0.8662 0.4997 0.8662 -0.4997 -21.7289 938.8137)">
		<stop  offset="0" style="stop-color:#EC008C"/>
		<stop  offset="1" style="stop-color:#FC6767"/>
	</linearGradient>
	<polygon fill="url(#SVGID_9_)" points="255,574.3 324.3,614.3 255,654.3 185.7,614.3 	"/>
</g>
<g>
	
		<linearGradient id="SVGID_10_" gradientUnits="userSpaceOnUse" x1="-205.0142" y1="484.4576" x2="-125.0327" y2="484.4576" gradientTransform="matrix(0.8662 0.4997 0.8662 -0.4997 -22.0119 914.8347)">
		<stop  offset="0" style="stop-color:#EC008C"/>
		<stop  offset="1" style="stop-color:#FC6767"/>
	</linearGradient>
	<polygon shape-rendering="crispEdges" fill="url(#SVGID_10_)" fill-opacity="0.8" points="254.7,550.4 324,590.3 254.7,630.3 
		185.4,590.3 	"/>
</g>
<g>
	
		<linearGradient id="SVGID_11_" gradientUnits="userSpaceOnUse" x1="-205.0172" y1="484.4615" x2="-125.0359" y2="484.4615" gradientTransform="matrix(0.8662 0.4997 0.8662 -0.4997 -22.4212 890.8584)">
		<stop  offset="0" style="stop-color:#FFE000"/>
		<stop  offset="1" style="stop-color:#799F0C"/>
	</linearGradient>
	<polygon fill="url(#SVGID_11_)" fill-opacity="0.1" points="254.3,526.4 323.6,566.3 254.3,606.3 185,566.3 	"/>
</g>
<g>
	
		<linearGradient id="SVGID_12_" gradientUnits="userSpaceOnUse" x1="-205.0181" y1="484.4634" x2="-125.037" y2="484.4634" gradientTransform="matrix(0.8662 0.4996 0.8662 -0.4996 48.2684 413.3034)">
		<stop  offset="0" style="stop-color:#FEAC5E"/>
		<stop  offset="0.5" style="stop-color:#C779D0"/>
		<stop  offset="1" style="stop-color:#4BC0C8"/>
	</linearGradient>
	<polygon fill="url(#SVGID_12_)" points="325,48.8 394.3,88.8 325,128.7 255.7,88.8 	"/>
</g>
<g>
	
		<linearGradient id="SVGID_13_" gradientUnits="userSpaceOnUse" x1="-205.0142" y1="484.4576" x2="-125.0327" y2="484.4576" gradientTransform="matrix(0.8662 0.4997 0.8662 -0.4997 47.9881 389.3253)">
		<stop  offset="0" style="stop-color:#FEAC5E"/>
		<stop  offset="0.5" style="stop-color:#C779D0"/>
		<stop  offset="1" style="stop-color:#4BC0C8"/>
	</linearGradient>
	<polygon shape-rendering="crispEdges" fill="url(#SVGID_13_)" fill-opacity="0.8" points="324.7,24.8 394,64.8 324.7,104.8 
		255.4,64.8 	"/>
</g>
<g>
	
		<linearGradient id="SVGID_14_" gradientUnits="userSpaceOnUse" x1="-205.0192" y1="484.465" x2="-125.0382" y2="484.465" gradientTransform="matrix(0.8662 0.4996 0.8662 -0.4996 47.5768 365.3483)">
		<stop  offset="0" style="stop-color:#FFE000"/>
		<stop  offset="1" style="stop-color:#799F0C"/>
	</linearGradient>
	<polygon fill="url(#SVGID_14_)" fill-opacity="0.1" points="324.3,0.9 393.6,40.8 324.3,80.8 255,40.8 	"/>
</g>
<g>
	
		<linearGradient id="SVGID_15_" gradientUnits="userSpaceOnUse" x1="-205.0121" y1="484.4542" x2="-125.0303" y2="484.4542" gradientTransform="matrix(0.8662 0.4997 0.8662 -0.4997 -94.7279 680.0539)">
		<stop  offset="0" style="stop-color:#FFE000"/>
		<stop  offset="1" style="stop-color:#799F0C"/>
	</linearGradient>
	<polygon fill="url(#SVGID_15_)" points="182,315.6 251.3,355.5 182,395.5 112.7,355.5 	"/>
</g>
<g>
	
		<linearGradient id="SVGID_16_" gradientUnits="userSpaceOnUse" x1="-205.0147" y1="484.4582" x2="-125.0332" y2="484.4582" gradientTransform="matrix(0.8662 0.4997 0.8662 -0.4997 -95.0129 656.0779)">
		<stop  offset="0" style="stop-color:#FFE000"/>
		<stop  offset="1" style="stop-color:#799F0C"/>
	</linearGradient>
	<polygon shape-rendering="crispEdges" fill="url(#SVGID_16_)" fill-opacity="0.8" points="181.7,291.6 251,331.6 181.7,371.5 
		112.4,331.6 	"/>
</g>
<g>
	
		<linearGradient id="SVGID_17_" gradientUnits="userSpaceOnUse" x1="-205.0199" y1="484.4656" x2="-125.0388" y2="484.4656" gradientTransform="matrix(0.8662 0.4996 0.8662 -0.4996 -95.4243 632.1)">
		<stop  offset="0" style="stop-color:#FFE000"/>
		<stop  offset="1" style="stop-color:#799F0C"/>
	</linearGradient>
	<polygon fill="url(#SVGID_17_)" fill-opacity="0.1" points="181.3,267.6 250.6,307.6 181.3,347.5 112,307.6 	"/>
</g>
<g>
	
		<linearGradient id="SVGID_18_" gradientUnits="userSpaceOnUse" x1="-205.0199" y1="484.4656" x2="-125.0388" y2="484.4656" gradientTransform="matrix(0.8662 0.4996 0.8662 -0.4996 117.2677 557.17)">
		<stop  offset="0" style="stop-color:#00C6FF"/>
		<stop  offset="1" style="stop-color:#0072FF"/>
	</linearGradient>
	<polygon fill="url(#SVGID_18_)" points="394,192.7 463.3,232.7 394,272.6 324.7,232.7 	"/>
</g>
<g>
	
		<linearGradient id="SVGID_19_" gradientUnits="userSpaceOnUse" x1="-205.017" y1="484.4617" x2="-125.0357" y2="484.4617" gradientTransform="matrix(0.8662 0.4997 0.8662 -0.4997 116.9861 533.1923)">
		<stop  offset="0" style="stop-color:#00C6FF"/>
		<stop  offset="1" style="stop-color:#0072FF"/>
	</linearGradient>
	<polygon shape-rendering="crispEdges" fill="url(#SVGID_19_)" fill-opacity="0.8" points="393.7,168.7 463,208.7 393.7,248.6 
		324.4,208.7 	"/>
</g>
<g>
	
		<linearGradient id="SVGID_20_" gradientUnits="userSpaceOnUse" x1="-205.0173" y1="484.4614" x2="-125.036" y2="484.4614" gradientTransform="matrix(0.8662 0.4997 0.8662 -0.4997 116.5784 509.2133)">
		<stop  offset="0" style="stop-color:#FFE000"/>
		<stop  offset="1" style="stop-color:#799F0C"/>
	</linearGradient>
	<polygon fill="url(#SVGID_20_)" fill-opacity="0.1" points="393.3,144.7 462.6,184.7 393.3,224.7 324,184.7 	"/>
</g>
<g>
	
		<linearGradient id="SVGID_21_" gradientUnits="userSpaceOnUse" x1="-205.016" y1="484.4599" x2="-125.0346" y2="484.4599" gradientTransform="matrix(0.8662 0.4997 0.8662 -0.4997 -93.7306 517.2065)">
		<stop  offset="0" style="stop-color:#00B09B"/>
		<stop  offset="1" style="stop-color:#96C93D"/>
	</linearGradient>
	<polygon fill="url(#SVGID_21_)" points="183,152.7 252.3,192.7 183,232.7 113.7,192.7 	"/>
</g>
<g>
	
		<linearGradient id="SVGID_22_" gradientUnits="userSpaceOnUse" x1="-205.017" y1="484.4617" x2="-125.0357" y2="484.4617" gradientTransform="matrix(0.8662 0.4997 0.8662 -0.4997 -94.0149 493.2293)">
		<stop  offset="0" style="stop-color:#00B09B"/>
		<stop  offset="1" style="stop-color:#96C93D"/>
	</linearGradient>
	<polygon shape-rendering="crispEdges" fill="url(#SVGID_22_)" fill-opacity="0.8" points="182.7,128.8 252,168.7 182.7,208.7 
		113.4,168.7 	"/>
</g>
<g>
	
		<linearGradient id="SVGID_23_" gradientUnits="userSpaceOnUse" x1="-205.0149" y1="484.4583" x2="-125.0333" y2="484.4583" gradientTransform="matrix(0.8662 0.4997 0.8662 -0.4997 -94.4209 469.2506)">
		<stop  offset="0" style="stop-color:#FFE000"/>
		<stop  offset="1" style="stop-color:#799F0C"/>
	</linearGradient>
	<polygon fill="url(#SVGID_23_)" fill-opacity="0.1" points="182.3,104.8 251.6,144.7 182.3,184.7 113,144.7 	"/>
</g>
</svg>
