<?xml version="1.0" encoding="utf-8"?>
<!-- Generator: Adobe Illustrator 17.1.0, SVG Export Plug-In . SVG Version: 6.00 Build 0)  -->
<!DOCTYPE svg PUBLIC "-//W3C//DTD SVG 1.1//EN" "http://www.w3.org/Graphics/SVG/1.1/DTD/svg11.dtd">
<svg version="1.1" id="Layer_1" xmlns="http://www.w3.org/2000/svg" xmlns:xlink="http://www.w3.org/1999/xlink" x="0px" y="0px"
	 viewBox="0 0 810 650" enable-background="new 0 0 810 650" xml:space="preserve">
<path fill="#1E1E1E" d="M587.4,176.6l-70.7-40.8L446,176.6l70.7,40.8L587.4,176.6z M304.6,258.2l-70.7-40.8l-70.7,40.8l70.7,40.8
	L304.6,258.2z M92.4,299l70.7,40.8l-70.7,40.8l-70.7-40.8L92.4,299z M92.4,380.7l70.7,40.8l-70.7,40.8l-70.7-40.8L92.4,380.7z
	 M233.8,299l70.7,40.8l70.7-40.8l70.7,40.8l-70.7,40.8l-70.7-40.8l-70.7,40.8l-70.7-40.8L233.8,299z M375.3,462.3l-70.7-40.8
	l-70.7,40.8l-70.7-40.8l70.7-40.8l70.7,40.8l70.7-40.8l70.7,40.8L375.3,462.3z M375.3,462.3l70.7,40.8L375.3,544l-70.7-40.8
	L233.8,544l-70.7-40.8l70.7-40.8l70.7,40.8L375.3,462.3z M516.7,217.4l70.7,40.8l70.7-40.8l70.7,40.8L658.1,299l-70.7-40.8
	L516.7,299L446,258.2L516.7,217.4z M587.4,339.9L516.7,299L446,339.9l70.7,40.8L446,421.5l70.7,40.8l70.7-40.8l70.7,40.8l70.7-40.8
	l-70.7-40.8l-70.7,40.8l-70.7-40.8L587.4,339.9l70.7,40.8l70.7-40.8L658.1,299L587.4,339.9z M446,258.2l-70.7-40.8l-70.7,40.8
	l70.7,40.8L446,258.2z M446,584.8L375.3,544l-70.7,40.8l70.7,40.8L446,584.8z M587.4,503.1l70.7,40.8l70.7-40.8l-70.7-40.8
	L587.4,503.1l-70.7-40.8L446,503.1l70.7,40.8L446,584.8l70.7,40.8l70.7-40.8L516.7,544L587.4,503.1z"/>
<linearGradient id="SVGID_1_" gradientUnits="userSpaceOnUse" x1="286.8889" y1="487.1587" x2="534.344" y2="58.5166" gradientTransform="matrix(1 0 0 -1 0 650)">
	<stop  offset="0" style="stop-color:#5F72BD"/>
	<stop  offset="1" style="stop-color:#9B23EA"/>
</linearGradient>
<path fill="url(#SVGID_1_)" d="M728.8,234.3l-70.7-40.8l-70.7,40.8l-70.7-40.8l70.7-40.8l-70.7-40.8L446,152.6l70.7,40.8L446,234.3
	l70.7,40.8l70.7-40.8l70.7,40.8L728.8,234.3z M233.8,193.5l70.7,40.8l70.7-40.8l70.7,40.8l-70.7,40.8l-70.7-40.8l-70.7,40.8
	l-70.7-40.8L233.8,193.5z M163.1,397.6l-70.7-40.8l-70.7,40.8l70.7,40.8L163.1,397.6z M304.6,315.9l-70.7-40.8l-70.7,40.8l70.7,40.8
	l-70.7,40.8l70.7,40.8l70.7-40.8l70.7,40.8l70.7-40.8l-70.7-40.8l70.7-40.8l-70.7-40.8L304.6,315.9z M375.3,356.7l-70.7,40.8
	l-70.7-40.8l70.7-40.8L375.3,356.7z M304.6,479.2l70.7,40.8l-70.7,40.8l70.7,40.8l70.7-40.8L375.3,520l70.7-40.8l-70.7-40.8
	L304.6,479.2l-70.7-40.8l-70.7,40.8l70.7,40.8L304.6,479.2z M587.4,315.9l-70.7-40.8L446,315.9l70.7,40.8L446,397.6l70.7,40.8
	l70.7-40.8l70.7,40.8l70.7-40.8l-70.7-40.8l70.7-40.8l-70.7-40.8L587.4,315.9z M658.1,356.7l-70.7-40.8l-70.7,40.8l70.7,40.8
	L658.1,356.7z M587.4,479.2l70.7,40.8l70.7-40.8l-70.7-40.8L587.4,479.2l-70.7-40.8L446,479.2l70.7,40.8L587.4,479.2z"/>
<polygon fill="#FFFFFF" points="516.7,356.8 587.4,397.6 516.7,438.4 446,397.6 "/>
<polygon fill="#FFFFFF" points="92.4,356.8 163.1,397.6 92.4,438.4 21.7,397.6 "/>
<polygon fill="#FFFFFF" points="516.7,111.8 587.4,152.6 516.7,193.5 446,152.6 "/>
<g>
	
		<linearGradient id="SVGID_2_" gradientUnits="userSpaceOnUse" x1="-144.5894" y1="385.4106" x2="-64.5894" y2="385.4106" gradientTransform="matrix(0.866 0.5 0.866 -0.5 414.7767 700)">
		<stop  offset="0" style="stop-color:#EC008C"/>
		<stop  offset="1" style="stop-color:#FC6767"/>
	</linearGradient>
	<polygon fill="url(#SVGID_2_)" points="658,415 727.3,455 658,495 588.7,455 	"/>
</g>
<g>
	
		<linearGradient id="SVGID_3_" gradientUnits="userSpaceOnUse" x1="-144.5894" y1="385.4106" x2="-64.5894" y2="385.4106" gradientTransform="matrix(0.866 0.5 0.866 -0.5 414.4938 676)">
		<stop  offset="0" style="stop-color:#EC008C"/>
		<stop  offset="1" style="stop-color:#FC6767"/>
	</linearGradient>
	<polygon shape-rendering="crispEdges" fill="url(#SVGID_3_)" fill-opacity="0.8" points="657.7,391 727,431 657.7,471 588.4,431 	
		"/>
</g>
<g>
	
		<linearGradient id="SVGID_4_" gradientUnits="userSpaceOnUse" x1="-144.5894" y1="385.4106" x2="-64.5894" y2="385.4106" gradientTransform="matrix(0.866 0.5 0.866 -0.5 414.0858 652)">
		<stop  offset="0" style="stop-color:#FFE000"/>
		<stop  offset="1" style="stop-color:#799F0C"/>
	</linearGradient>
	<polygon fill="url(#SVGID_4_)" fill-opacity="0.1" points="657.3,367 726.6,407 657.3,447 588,407 	"/>
</g>
<g>
	
		<linearGradient id="SVGID_5_" gradientUnits="userSpaceOnUse" x1="-144.5894" y1="385.4106" x2="-64.5894" y2="385.4106" gradientTransform="matrix(0.866 0.5 0.866 -0.5 -9.2232 700)">
		<stop  offset="0" style="stop-color:#FFE000"/>
		<stop  offset="1" style="stop-color:#799F0C"/>
	</linearGradient>
	<polygon fill="url(#SVGID_5_)" points="234,415 303.3,455 234,495 164.7,455 	"/>
</g>
<g>
	
		<linearGradient id="SVGID_6_" gradientUnits="userSpaceOnUse" x1="-144.5894" y1="385.4106" x2="-64.5894" y2="385.4106" gradientTransform="matrix(0.866 0.5 0.866 -0.5 -9.5062 676)">
		<stop  offset="0" style="stop-color:#FFE000"/>
		<stop  offset="1" style="stop-color:#799F0C"/>
	</linearGradient>
	<polygon shape-rendering="crispEdges" fill="url(#SVGID_6_)" fill-opacity="0.8" points="233.7,391 303,431 233.7,471 164.4,431 	
		"/>
</g>
<g>
	
		<linearGradient id="SVGID_7_" gradientUnits="userSpaceOnUse" x1="-144.5894" y1="385.4106" x2="-64.5894" y2="385.4106" gradientTransform="matrix(0.866 0.5 0.866 -0.5 -9.9142 652)">
		<stop  offset="0" style="stop-color:#FFE000"/>
		<stop  offset="1" style="stop-color:#799F0C"/>
	</linearGradient>
	<polygon fill="url(#SVGID_7_)" fill-opacity="0.1" points="233.3,367 302.6,407 233.3,447 164,407 	"/>
</g>
<g>
	
		<linearGradient id="SVGID_8_" gradientUnits="userSpaceOnUse" x1="-144.5894" y1="385.4106" x2="-64.5894" y2="385.4106" gradientTransform="matrix(0.866 0.5 0.866 -0.5 131.7768 536)">
		<stop  offset="0" style="stop-color:#00C6FF"/>
		<stop  offset="1" style="stop-color:#0072FF"/>
	</linearGradient>
	<polygon fill="url(#SVGID_8_)" points="375,251 444.3,291 375,331 305.7,291 	"/>
</g>
<g>
	
		<linearGradient id="SVGID_9_" gradientUnits="userSpaceOnUse" x1="-144.5894" y1="385.4106" x2="-64.5894" y2="385.4106" gradientTransform="matrix(0.866 0.5 0.866 -0.5 131.4938 512)">
		<stop  offset="0" style="stop-color:#00C6FF"/>
		<stop  offset="1" style="stop-color:#0072FF"/>
	</linearGradient>
	<polygon shape-rendering="crispEdges" fill="url(#SVGID_9_)" fill-opacity="0.8" points="374.7,227 444,267 374.7,307 305.4,267 	
		"/>
</g>
<g>
	
		<linearGradient id="SVGID_10_" gradientUnits="userSpaceOnUse" x1="-144.5894" y1="385.4106" x2="-64.5894" y2="385.4106" gradientTransform="matrix(0.866 0.5 0.866 -0.5 131.0858 488)">
		<stop  offset="0" style="stop-color:#FFE000"/>
		<stop  offset="1" style="stop-color:#799F0C"/>
	</linearGradient>
	<polygon fill="url(#SVGID_10_)" fill-opacity="0.1" points="374.3,203 443.6,243 374.3,283 305,243 	"/>
</g>
<g>
	
		<linearGradient id="SVGID_11_" gradientUnits="userSpaceOnUse" x1="-144.5894" y1="385.4106" x2="-64.5894" y2="385.4106" gradientTransform="matrix(0.866 0.5 0.866 -0.5 414.7767 455)">
		<stop  offset="0" style="stop-color:#00B09B"/>
		<stop  offset="1" style="stop-color:#96C93D"/>
	</linearGradient>
	<polygon fill="url(#SVGID_11_)" points="658,170 727.3,210 658,250 588.7,210 	"/>
</g>
<g>
	
		<linearGradient id="SVGID_12_" gradientUnits="userSpaceOnUse" x1="-144.5894" y1="385.4106" x2="-64.5894" y2="385.4106" gradientTransform="matrix(0.866 0.5 0.866 -0.5 414.4938 431)">
		<stop  offset="0" style="stop-color:#00B09B"/>
		<stop  offset="1" style="stop-color:#96C93D"/>
	</linearGradient>
	<polygon shape-rendering="crispEdges" fill="url(#SVGID_12_)" fill-opacity="0.8" points="657.7,146 727,186 657.7,226 588.4,186 	
		"/>
</g>
<g>
	
		<linearGradient id="SVGID_13_" gradientUnits="userSpaceOnUse" x1="-144.5894" y1="385.4106" x2="-64.5894" y2="385.4106" gradientTransform="matrix(0.866 0.5 0.866 -0.5 414.0858 407)">
		<stop  offset="0" style="stop-color:#FFE000"/>
		<stop  offset="1" style="stop-color:#799F0C"/>
	</linearGradient>
	<polygon fill="url(#SVGID_13_)" fill-opacity="0.1" points="657.3,122 726.6,162 657.3,202 588,162 	"/>
</g>
<g>
	
		<linearGradient id="SVGID_14_" gradientUnits="userSpaceOnUse" x1="-144.5894" y1="385.4106" x2="-64.5894" y2="385.4106" gradientTransform="matrix(0.866 0.5 0.866 -0.5 -9.2232 333)">
		<stop  offset="0" style="stop-color:#FEAC5E"/>
		<stop  offset="0.5" style="stop-color:#C779D0"/>
		<stop  offset="1" style="stop-color:#4BC0C8"/>
	</linearGradient>
	<polygon fill="url(#SVGID_14_)" points="234,48 303.3,88 234,128 164.7,88 	"/>
</g>
<g>
	
		<linearGradient id="SVGID_15_" gradientUnits="userSpaceOnUse" x1="-144.5894" y1="385.4106" x2="-64.5894" y2="385.4106" gradientTransform="matrix(0.866 0.5 0.866 -0.5 -9.5062 309)">
		<stop  offset="0" style="stop-color:#FEAC5E"/>
		<stop  offset="0.5" style="stop-color:#C779D0"/>
		<stop  offset="1" style="stop-color:#4BC0C8"/>
	</linearGradient>
	<polygon shape-rendering="crispEdges" fill="url(#SVGID_15_)" fill-opacity="0.8" points="233.7,24 303,64 233.7,104 164.4,64 	"/>
</g>
<g>
	
		<linearGradient id="SVGID_16_" gradientUnits="userSpaceOnUse" x1="-144.5894" y1="385.4106" x2="-64.5894" y2="385.4106" gradientTransform="matrix(0.866 0.5 0.866 -0.5 -9.9142 285)">
		<stop  offset="0" style="stop-color:#FFE000"/>
		<stop  offset="1" style="stop-color:#799F0C"/>
	</linearGradient>
	<polygon fill="url(#SVGID_16_)" fill-opacity="0.1" points="233.3,0 302.6,40 233.3,80 164,40 	"/>
</g>
</svg>
